<?xml version="1.0" encoding="utf-8" standalone="no"?>
<!DOCTYPE svg PUBLIC "-//W3C//DTD SVG 1.1//EN"
  "http://www.w3.org/Graphics/SVG/1.1/DTD/svg11.dtd">
<!-- Created with matplotlib (https://matplotlib.org/) -->
<svg height="123.6pt" version="1.1" viewBox="0 0 504 123.6" width="504pt" xmlns="http://www.w3.org/2000/svg" xmlns:xlink="http://www.w3.org/1999/xlink">
 <defs>
  <style type="text/css">
*{stroke-linecap:butt;stroke-linejoin:round;}
  </style>
 </defs>
 <g id="figure_1">
  <g id="patch_1">
   <path d="M 0 123.6 
L 504 123.6 
L 504 0 
L 0 0 
z
" style="fill:#ffffff;"/>
  </g>
  <g id="axes_1">
   <g id="patch_2">
    <path d="M 63 110.004 
L 453.6 110.004 
L 453.6 14.832 
L 63 14.832 
z
" style="fill:#ffffff;"/>
   </g>
   <g id="matplotlib.axis_1">
    <g id="xtick_1">
     <g id="line2d_1">
      <defs>
       <path d="M 0 0 
L 0 3.5 
" id="m6da7fffb36" style="stroke:#000000;stroke-width:0.8;"/>
      </defs>
      <g>
       <use style="stroke:#000000;stroke-width:0.8;" x="80.754545" xlink:href="#m6da7fffb36" y="110.004"/>
      </g>
     </g>
     <g id="text_1">
      <!-- 0 -->
      <defs>
       <path d="M 31.78125 66.40625 
Q 24.171875 66.40625 20.328125 58.90625 
Q 16.5 51.421875 16.5 36.375 
Q 16.5 21.390625 20.328125 13.890625 
Q 24.171875 6.390625 31.78125 6.390625 
Q 39.453125 6.390625 43.28125 13.890625 
Q 47.125 21.390625 47.125 36.375 
Q 47.125 51.421875 43.28125 58.90625 
Q 39.453125 66.40625 31.78125 66.40625 
z
M 31.78125 74.21875 
Q 44.046875 74.21875 50.515625 64.515625 
Q 56.984375 54.828125 56.984375 36.375 
Q 56.984375 17.96875 50.515625 8.265625 
Q 44.046875 -1.421875 31.78125 -1.421875 
Q 19.53125 -1.421875 13.0625 8.265625 
Q 6.59375 17.96875 6.59375 36.375 
Q 6.59375 54.828125 13.0625 64.515625 
Q 19.53125 74.21875 31.78125 74.21875 
z
" id="DejaVuSans-48"/>
      </defs>
      <g transform="translate(77.573295 124.602437)scale(0.1 -0.1)">
       <use xlink:href="#DejaVuSans-48"/>
      </g>
     </g>
    </g>
    <g id="xtick_2">
     <g id="line2d_2">
      <g>
       <use style="stroke:#000000;stroke-width:0.8;" x="157.981798" xlink:href="#m6da7fffb36" y="110.004"/>
      </g>
     </g>
     <g id="text_2">
      <!-- 500 -->
      <defs>
       <path d="M 10.796875 72.90625 
L 49.515625 72.90625 
L 49.515625 64.59375 
L 19.828125 64.59375 
L 19.828125 46.734375 
Q 21.96875 47.46875 24.109375 47.828125 
Q 26.265625 48.1875 28.421875 48.1875 
Q 40.625 48.1875 47.75 41.5 
Q 54.890625 34.8125 54.890625 23.390625 
Q 54.890625 11.625 47.5625 5.09375 
Q 40.234375 -1.421875 26.90625 -1.421875 
Q 22.3125 -1.421875 17.546875 -0.640625 
Q 12.796875 0.140625 7.71875 1.703125 
L 7.71875 11.625 
Q 12.109375 9.234375 16.796875 8.0625 
Q 21.484375 6.890625 26.703125 6.890625 
Q 35.15625 6.890625 40.078125 11.328125 
Q 45.015625 15.765625 45.015625 23.390625 
Q 45.015625 31 40.078125 35.4375 
Q 35.15625 39.890625 26.703125 39.890625 
Q 22.75 39.890625 18.8125 39.015625 
Q 14.890625 38.140625 10.796875 36.28125 
z
" id="DejaVuSans-53"/>
      </defs>
      <g transform="translate(148.438048 124.602437)scale(0.1 -0.1)">
       <use xlink:href="#DejaVuSans-53"/>
       <use x="63.623047" xlink:href="#DejaVuSans-48"/>
       <use x="127.246094" xlink:href="#DejaVuSans-48"/>
      </g>
     </g>
    </g>
    <g id="xtick_3">
     <g id="line2d_3">
      <g>
       <use style="stroke:#000000;stroke-width:0.8;" x="235.209051" xlink:href="#m6da7fffb36" y="110.004"/>
      </g>
     </g>
     <g id="text_3">
      <!-- 1000 -->
      <defs>
       <path d="M 12.40625 8.296875 
L 28.515625 8.296875 
L 28.515625 63.921875 
L 10.984375 60.40625 
L 10.984375 69.390625 
L 28.421875 72.90625 
L 38.28125 72.90625 
L 38.28125 8.296875 
L 54.390625 8.296875 
L 54.390625 0 
L 12.40625 0 
z
" id="DejaVuSans-49"/>
      </defs>
      <g transform="translate(222.484051 124.602437)scale(0.1 -0.1)">
       <use xlink:href="#DejaVuSans-49"/>
       <use x="63.623047" xlink:href="#DejaVuSans-48"/>
       <use x="127.246094" xlink:href="#DejaVuSans-48"/>
       <use x="190.869141" xlink:href="#DejaVuSans-48"/>
      </g>
     </g>
    </g>
    <g id="xtick_4">
     <g id="line2d_4">
      <g>
       <use style="stroke:#000000;stroke-width:0.8;" x="312.436304" xlink:href="#m6da7fffb36" y="110.004"/>
      </g>
     </g>
     <g id="text_4">
      <!-- 1500 -->
      <g transform="translate(299.711304 124.602437)scale(0.1 -0.1)">
       <use xlink:href="#DejaVuSans-49"/>
       <use x="63.623047" xlink:href="#DejaVuSans-53"/>
       <use x="127.246094" xlink:href="#DejaVuSans-48"/>
       <use x="190.869141" xlink:href="#DejaVuSans-48"/>
      </g>
     </g>
    </g>
    <g id="xtick_5">
     <g id="line2d_5">
      <g>
       <use style="stroke:#000000;stroke-width:0.8;" x="389.663557" xlink:href="#m6da7fffb36" y="110.004"/>
      </g>
     </g>
     <g id="text_5">
      <!-- 2000 -->
      <defs>
       <path d="M 19.1875 8.296875 
L 53.609375 8.296875 
L 53.609375 0 
L 7.328125 0 
L 7.328125 8.296875 
Q 12.9375 14.109375 22.625 23.890625 
Q 32.328125 33.6875 34.8125 36.53125 
Q 39.546875 41.84375 41.421875 45.53125 
Q 43.3125 49.21875 43.3125 52.78125 
Q 43.3125 58.59375 39.234375 62.25 
Q 35.15625 65.921875 28.609375 65.921875 
Q 23.96875 65.921875 18.8125 64.3125 
Q 13.671875 62.703125 7.8125 59.421875 
L 7.8125 69.390625 
Q 13.765625 71.78125 18.9375 73 
Q 24.125 74.21875 28.421875 74.21875 
Q 39.75 74.21875 46.484375 68.546875 
Q 53.21875 62.890625 53.21875 53.421875 
Q 53.21875 48.921875 51.53125 44.890625 
Q 49.859375 40.875 45.40625 35.40625 
Q 44.1875 33.984375 37.640625 27.21875 
Q 31.109375 20.453125 19.1875 8.296875 
z
" id="DejaVuSans-50"/>
      </defs>
      <g transform="translate(376.938557 124.602437)scale(0.1 -0.1)">
       <use xlink:href="#DejaVuSans-50"/>
       <use x="63.623047" xlink:href="#DejaVuSans-48"/>
       <use x="127.246094" xlink:href="#DejaVuSans-48"/>
       <use x="190.869141" xlink:href="#DejaVuSans-48"/>
      </g>
     </g>
    </g>
   </g>
   <g id="matplotlib.axis_2">
    <g id="ytick_1">
     <g id="line2d_6">
      <defs>
       <path d="M 0 0 
L -3.5 0 
" id="mdf6cd2df95" style="stroke:#000000;stroke-width:0.8;"/>
      </defs>
      <g>
       <use style="stroke:#000000;stroke-width:0.8;" x="63" xlink:href="#mdf6cd2df95" y="105.694232"/>
      </g>
     </g>
     <g id="text_6">
      <!-- 0 -->
      <g transform="translate(49.6375 109.49345)scale(0.1 -0.1)">
       <use xlink:href="#DejaVuSans-48"/>
      </g>
     </g>
    </g>
    <g id="ytick_2">
     <g id="line2d_7">
      <g>
       <use style="stroke:#000000;stroke-width:0.8;" x="63" xlink:href="#mdf6cd2df95" y="74.463605"/>
      </g>
     </g>
     <g id="text_7">
      <!-- 200 -->
      <g transform="translate(36.9125 78.262824)scale(0.1 -0.1)">
       <use xlink:href="#DejaVuSans-50"/>
       <use x="63.623047" xlink:href="#DejaVuSans-48"/>
       <use x="127.246094" xlink:href="#DejaVuSans-48"/>
      </g>
     </g>
    </g>
    <g id="ytick_3">
     <g id="line2d_8">
      <g>
       <use style="stroke:#000000;stroke-width:0.8;" x="63" xlink:href="#mdf6cd2df95" y="43.232979"/>
      </g>
     </g>
     <g id="text_8">
      <!-- 400 -->
      <defs>
       <path d="M 37.796875 64.3125 
L 12.890625 25.390625 
L 37.796875 25.390625 
z
M 35.203125 72.90625 
L 47.609375 72.90625 
L 47.609375 25.390625 
L 58.015625 25.390625 
L 58.015625 17.1875 
L 47.609375 17.1875 
L 47.609375 0 
L 37.796875 0 
L 37.796875 17.1875 
L 4.890625 17.1875 
L 4.890625 26.703125 
z
" id="DejaVuSans-52"/>
      </defs>
      <g transform="translate(36.9125 47.032198)scale(0.1 -0.1)">
       <use xlink:href="#DejaVuSans-52"/>
       <use x="63.623047" xlink:href="#DejaVuSans-48"/>
       <use x="127.246094" xlink:href="#DejaVuSans-48"/>
      </g>
     </g>
    </g>
   </g>
   <g id="line2d_9">
    <path clip-path="url(#pccb3be8b58)" d="M 80.754545 104.080316 
L 81.063454 104.728557 
L 81.526818 104.783253 
L 81.835727 104.711977 
L 81.990182 104.797325 
L 82.299091 105.247208 
L 82.453545 105.357308 
L 82.608 105.083848 
L 82.916909 103.945981 
L 83.071363 103.976613 
L 83.534727 104.845365 
L 83.689181 104.835831 
L 84.461454 103.446479 
L 84.924817 104.821826 
L 85.233726 104.910102 
L 85.388181 105.096145 
L 85.542635 104.965695 
L 86.314908 103.187601 
L 86.778271 104.057285 
L 87.08718 104.748673 
L 87.396089 105.262773 
L 87.550544 105.600719 
L 88.013907 104.884615 
L 88.477271 104.57722 
L 88.631725 104.760356 
L 88.940634 105.563532 
L 89.095089 105.583097 
L 89.403998 105.290626 
L 89.712907 105.335152 
L 90.330725 104.936215 
L 90.639634 104.847654 
L 90.794088 104.826007 
L 91.102997 104.201745 
L 91.257452 103.965054 
L 91.566361 103.957579 
L 91.720815 103.685303 
L 91.87527 103.175425 
L 92.029724 103.104206 
L 92.801997 104.98696 
L 92.956451 104.591423 
L 93.26536 102.177725 
L 94.500996 76.704133 
L 94.809905 73.820333 
L 94.96436 74.202865 
L 95.273269 79.083714 
L 95.582178 84.956643 
L 95.891087 92.381202 
L 96.508905 101.785563 
L 96.66336 102.236509 
L 96.817814 102.153715 
L 97.898996 95.22695 
L 98.05345 95.320774 
L 98.516814 96.708272 
L 98.825723 98.925108 
L 99.134632 99.921145 
L 99.597995 105.124222 
L 100.215813 102.003673 
L 100.524722 100.351463 
L 100.679177 99.810653 
L 100.833631 100.091957 
L 101.296995 102.10884 
L 101.605904 102.219826 
L 101.760358 102.345135 
L 101.914813 102.111951 
L 102.532631 103.236278 
L 102.84154 103.898392 
L 103.150449 105.429583 
L 103.768267 103.113435 
L 104.077176 103.862985 
L 104.386085 105.223429 
L 104.694994 104.31327 
L 105.158357 102.950945 
L 105.312812 103.313321 
L 105.467266 104.346847 
L 105.621721 104.353234 
L 105.93063 104.033719 
L 106.085084 104.072003 
L 106.548448 105.011799 
L 107.475175 104.128677 
L 107.629629 104.162033 
L 107.784084 104.738803 
L 107.938538 104.825582 
L 108.401902 102.804043 
L 108.710811 104.089349 
L 109.01972 105.620909 
L 109.174175 105.031858 
L 109.483084 105.514449 
L 109.791993 104.706728 
L 110.100902 104.591063 
L 110.255356 104.462531 
L 110.873174 105.280496 
L 111.027629 105.36275 
L 111.182083 105.267018 
L 111.490992 104.265172 
L 111.954356 104.74331 
L 112.263265 103.966517 
L 112.572174 103.791702 
L 112.881083 104.0341 
L 113.189992 103.670913 
L 113.344446 103.82111 
L 113.80781 105.049369 
L 114.116719 104.1846 
L 114.425628 104.444607 
L 114.888991 103.633529 
L 115.043446 103.749741 
L 115.1979 104.079694 
L 115.352355 103.863186 
L 115.506809 103.851833 
L 116.124627 104.844334 
L 116.587991 103.657251 
L 116.742445 103.669736 
L 116.8969 103.906171 
L 117.205809 105.101444 
L 117.360263 105.085916 
L 117.669172 104.465009 
L 117.978081 104.268023 
L 118.132536 104.192974 
L 118.441445 105.187761 
L 118.750354 104.849699 
L 118.904808 105.479689 
L 119.368172 103.146223 
L 119.522626 103.263442 
L 120.140444 104.597214 
L 120.449353 104.531167 
L 121.067171 104.982104 
L 121.530535 104.243758 
L 121.839444 104.283325 
L 121.993899 104.137586 
L 122.148353 104.189938 
L 122.766171 104.960857 
L 123.07508 104.871154 
L 123.229535 105.050044 
L 123.383989 104.98389 
L 123.692898 104.289059 
L 123.847353 104.240645 
L 124.619625 105.393585 
L 125.082989 105.556014 
L 125.237443 105.543009 
L 125.700807 104.863199 
L 125.855261 105.329761 
L 126.009716 105.399776 
L 126.318625 104.708127 
L 126.627534 105.120986 
L 126.936443 105.479805 
L 127.399806 104.847296 
L 127.708715 105.004093 
L 127.86317 105.07084 
L 128.172079 105.371574 
L 128.326533 105.263085 
L 128.480988 105.516072 
L 128.635442 105.390376 
L 129.25326 103.932222 
L 129.407715 104.013794 
L 129.716624 104.6634 
L 130.025533 104.85757 
L 130.334442 105.623671 
L 130.797805 103.941233 
L 131.106714 104.171231 
L 131.261169 104.157087 
L 131.415623 104.012966 
L 131.570078 104.054598 
L 131.878987 104.881132 
L 132.187896 104.650439 
L 132.34235 104.864098 
L 132.805714 104.457657 
L 133.114623 105.351619 
L 133.269077 105.240805 
L 133.577986 102.849046 
L 133.732441 102.807874 
L 134.195804 104.5842 
L 134.504714 105.147425 
L 134.813623 103.971259 
L 135.122532 102.52394 
L 135.276986 102.372681 
L 135.431441 102.645295 
L 135.585895 103.15159 
L 135.894804 105.090149 
L 136.049259 105.146229 
L 136.203713 104.175337 
L 136.358168 104.32742 
L 136.667077 105.152176 
L 136.821531 105.239531 
L 137.284895 104.784758 
L 137.439349 104.882167 
L 137.593804 104.791206 
L 137.748258 104.918149 
L 137.902713 105.264544 
L 138.057167 105.131837 
L 138.211622 105.185074 
L 138.674985 104.882229 
L 138.983894 105.025888 
L 139.292803 105.108506 
L 140.065076 103.75081 
L 140.373985 103.697762 
L 140.682894 104.17227 
L 140.991803 104.052964 
L 141.300712 104.707619 
L 141.455166 105.231182 
L 141.609621 105.312001 
L 141.91853 104.4667 
L 142.072984 104.419908 
L 142.536348 105.678 
L 142.845257 105.224806 
L 143.771984 103.447618 
L 144.235347 102.998407 
L 144.389802 103.084651 
L 144.853165 104.379484 
L 145.00762 104.229398 
L 145.316529 104.603933 
L 145.625438 105.482737 
L 146.243256 104.595462 
L 146.39771 104.296868 
L 146.552165 103.041576 
L 146.861074 102.886054 
L 147.169983 104.051132 
L 147.324438 102.916664 
L 147.478892 99.775247 
L 148.09671 70.21758 
L 148.868983 26.997491 
L 149.177892 19.691875 
L 149.332346 19.158 
L 149.486801 19.428075 
L 149.79571 25.778368 
L 150.876891 75.765976 
L 151.1858 86.071654 
L 151.340255 88.581206 
L 151.494709 88.137079 
L 151.958073 79.006776 
L 152.421436 71.963129 
L 152.730345 70.463257 
L 152.8848 71.468357 
L 153.348163 82.82272 
L 153.811527 96.014219 
L 153.965981 96.042269 
L 154.738254 83.417026 
L 154.892708 82.841539 
L 155.047163 82.788425 
L 155.356072 85.226942 
L 156.591708 101.258753 
L 156.746162 101.943472 
L 157.055071 101.947777 
L 157.209526 102.207999 
L 157.981798 105.414498 
L 158.290707 104.424969 
L 158.754071 103.510965 
L 159.06298 102.813456 
L 159.217434 102.760431 
L 159.371889 102.863011 
L 159.835252 103.699972 
L 159.989707 103.66208 
L 160.298616 104.926654 
L 160.453071 105.519827 
L 160.916434 105.507774 
L 161.070889 105.567291 
L 161.225343 105.363575 
L 161.379798 105.368929 
L 161.534252 105.631727 
L 161.843161 105.293776 
L 161.997616 105.261668 
L 162.460979 105.607291 
L 162.615434 105.380332 
L 162.924343 105.603693 
L 163.078797 105.513604 
L 163.696615 104.515188 
L 164.005524 104.254245 
L 164.314433 104.467068 
L 164.468888 104.35518 
L 164.777797 103.920778 
L 164.932251 104.016217 
L 165.395615 104.960916 
L 165.550069 105.435123 
L 165.704524 105.169473 
L 165.858978 105.370813 
L 166.013433 104.940007 
L 166.167887 104.886482 
L 166.631251 105.050237 
L 166.785705 105.414432 
L 167.094614 105.035976 
L 167.249069 104.777586 
L 167.403523 104.75387 
L 167.712432 105.107746 
L 167.866887 105.231172 
L 168.793614 104.597782 
L 168.948068 105.266049 
L 169.102523 105.418941 
L 169.256977 105.106976 
L 169.720341 105.055058 
L 169.874795 104.848059 
L 170.02925 105.003473 
L 170.183704 105.40619 
L 170.338159 105.293757 
L 170.492613 104.938675 
L 170.647068 104.900952 
L 170.801522 105.288826 
L 170.955977 105.332442 
L 171.264886 104.981255 
L 171.41934 105.044294 
L 171.573795 104.916506 
L 171.728249 105.036088 
L 172.191613 104.73646 
L 172.500522 105.258409 
L 172.654976 105.354762 
L 173.11834 104.835852 
L 173.427249 105.371959 
L 173.890613 103.69485 
L 174.353976 105.138435 
L 174.662885 104.607871 
L 175.280703 105.506066 
L 175.435158 105.609561 
L 175.898521 104.850501 
L 176.052976 104.196927 
L 176.20743 104.257487 
L 176.516339 104.779867 
L 176.825248 103.91758 
L 177.134157 103.3654 
L 177.443066 103.660875 
L 177.751975 104.27018 
L 177.90643 104.216403 
L 178.215339 104.84621 
L 178.524248 103.739506 
L 178.678702 103.18302 
L 178.987611 103.527949 
L 179.450975 104.84989 
L 179.759884 104.744407 
L 180.068793 104.452545 
L 180.377702 104.853119 
L 180.686611 104.447197 
L 181.149974 105.146293 
L 181.304429 105.291083 
L 181.613338 104.927597 
L 181.922247 105.160822 
L 182.076701 105.496081 
L 182.231156 105.355857 
L 182.540065 104.894988 
L 182.694519 105.000614 
L 183.003428 105.35206 
L 183.157883 105.276056 
L 183.466792 104.779426 
L 183.621246 104.952971 
L 183.775701 105.356432 
L 184.08461 104.93848 
L 184.239064 104.991832 
L 184.547973 104.737567 
L 185.011337 104.219372 
L 185.165791 104.233132 
L 185.320246 104.409055 
L 185.4747 104.848267 
L 185.629155 104.952067 
L 185.938064 104.334301 
L 186.401427 104.640297 
L 186.710337 104.460852 
L 186.864791 104.534351 
L 187.328155 105.549039 
L 188.100427 104.019381 
L 188.254882 104.027189 
L 188.563791 104.552403 
L 188.8727 105.09044 
L 189.181609 104.737731 
L 189.953881 105.362411 
L 190.571699 103.828252 
L 190.726154 103.833881 
L 190.880608 104.06783 
L 191.189517 104.729104 
L 191.343972 104.869204 
L 191.498426 104.656519 
L 191.652881 104.132475 
L 191.807335 104.012732 
L 191.96179 104.255583 
L 192.270699 105.26997 
L 192.425153 104.989399 
L 192.579608 105.024217 
L 193.197426 103.522957 
L 193.660789 103.202133 
L 193.815244 103.341875 
L 194.278607 105.023231 
L 194.433062 104.946232 
L 194.587516 104.637995 
L 194.741971 104.830598 
L 194.896425 105.479509 
L 195.05088 105.468475 
L 195.359789 105.254796 
L 195.668698 105.331704 
L 195.977607 105.239497 
L 196.132061 105.620333 
L 196.44097 104.55784 
L 197.058788 104.831241 
L 197.213243 104.584274 
L 197.367697 104.592349 
L 197.676606 104.881667 
L 197.985515 104.895522 
L 198.294424 105.278081 
L 198.603333 104.967393 
L 198.757788 105.117771 
L 198.912242 105.097383 
L 199.83897 103.80852 
L 199.993424 104.027472 
L 200.456788 105.40275 
L 200.611242 105.327487 
L 200.920151 104.431873 
L 201.22906 103.962375 
L 201.383515 104.160723 
L 201.846878 105.06916 
L 202.001333 104.899461 
L 202.155787 104.897551 
L 202.310242 105.370037 
L 202.773605 104.541984 
L 202.92806 104.52003 
L 203.082514 104.381688 
L 203.391423 103.925488 
L 203.854787 103.403047 
L 204.009241 103.664207 
L 204.163696 103.500926 
L 204.472605 105.425844 
L 205.244877 93.833544 
L 205.862695 76.861546 
L 206.480513 60.600735 
L 206.789422 58.175144 
L 207.098331 60.118282 
L 207.870604 77.961349 
L 208.797331 99.991691 
L 209.10624 104.520625 
L 209.260694 103.675243 
L 209.569603 97.748922 
L 210.032967 92.53447 
L 210.187421 91.878738 
L 210.49633 93.634096 
L 211.577512 101.99799 
L 211.886421 104.976848 
L 212.040875 104.819733 
L 212.813148 98.562016 
L 213.122057 97.646224 
L 213.276512 97.694903 
L 213.739875 98.395934 
L 214.666602 102.490373 
L 214.821057 102.767317 
L 215.438875 104.683224 
L 215.747784 105.178322 
L 216.056693 104.419976 
L 216.211147 104.537098 
L 216.520056 105.043663 
L 216.674511 105.031306 
L 216.98342 105.158242 
L 217.601238 104.619229 
L 217.755692 104.449781 
L 218.219056 104.477879 
L 218.37351 104.48185 
L 218.991328 103.811559 
L 219.300237 103.848475 
L 219.454692 103.974837 
L 219.763601 104.527142 
L 219.918055 104.673708 
L 220.07251 104.426069 
L 220.226964 104.56064 
L 220.535873 105.21647 
L 220.844782 104.242128 
L 220.999237 104.241054 
L 222.080418 105.311342 
L 222.234873 105.324243 
L 222.389327 105.116206 
L 222.698236 104.201703 
L 222.852691 104.199466 
L 223.007145 104.777401 
L 223.1616 104.511147 
L 223.470509 103.50887 
L 223.624963 103.402581 
L 224.397236 105.244178 
L 224.55169 105.190796 
L 224.860599 104.679087 
L 225.015054 104.724989 
L 225.478417 105.180502 
L 225.632872 105.194539 
L 226.096236 103.273307 
L 226.25069 103.314857 
L 226.714054 103.787696 
L 226.868508 104.302861 
L 227.022963 104.228153 
L 227.331872 103.476626 
L 227.640781 102.963119 
L 227.795235 103.312855 
L 228.258599 105.271062 
L 228.721962 102.886693 
L 229.030871 102.177067 
L 229.185326 102.124211 
L 229.33978 102.498577 
L 229.803144 104.933268 
L 229.957598 104.783499 
L 230.266507 103.8031 
L 230.729871 104.522061 
L 231.03878 104.39378 
L 231.347689 105.285145 
L 231.502143 105.356539 
L 231.965507 104.257728 
L 232.119961 104.383107 
L 232.274416 104.868357 
L 232.42887 104.973611 
L 232.737779 104.789794 
L 232.892234 104.858229 
L 233.201143 105.55894 
L 233.818961 103.904479 
L 234.12787 103.703776 
L 234.591233 104.691639 
L 235.054597 104.599008 
L 235.51796 103.174469 
L 235.672415 103.087347 
L 236.135778 103.428394 
L 236.599142 104.740364 
L 236.753596 105.455337 
L 237.062505 104.589381 
L 237.525869 103.590465 
L 238.298141 105.342271 
L 238.452596 105.253748 
L 238.761505 104.662091 
L 239.070414 104.909662 
L 239.533778 105.57726 
L 239.688232 105.326099 
L 239.842687 104.733652 
L 240.30605 104.533421 
L 240.614959 103.932742 
L 240.769414 104.220069 
L 241.078323 105.499578 
L 241.387232 104.387442 
L 241.541686 104.226722 
L 242.00505 103.313928 
L 242.777322 104.33877 
L 243.086231 105.498169 
L 243.240686 105.438909 
L 243.549595 104.867004 
L 243.858504 104.76452 
L 244.012958 104.764053 
L 244.167413 104.643661 
L 244.476322 104.855588 
L 244.785231 105.179418 
L 244.939685 105.027208 
L 245.248594 104.068597 
L 245.403049 103.995014 
L 245.711958 105.431973 
L 245.866412 104.900259 
L 246.020867 104.937431 
L 246.175321 105.397523 
L 246.48423 104.895489 
L 246.638685 104.266695 
L 246.793139 104.488137 
L 247.102048 105.545207 
L 247.719866 104.456979 
L 248.028775 104.710021 
L 248.337684 105.01593 
L 248.955502 105.392106 
L 249.264411 104.54786 
L 249.418866 104.676086 
L 249.57332 104.614047 
L 249.727775 104.210903 
L 249.882229 104.128221 
L 250.191138 105.418638 
L 250.500047 105.459774 
L 250.654502 104.776736 
L 250.808956 104.704774 
L 250.963411 104.855515 
L 251.117865 105.295388 
L 251.27232 105.286248 
L 251.735683 104.741556 
L 251.890138 104.793594 
L 252.199047 105.484563 
L 252.507956 105.045456 
L 252.662411 104.35079 
L 252.816865 104.450632 
L 252.97132 104.765757 
L 253.280229 104.451125 
L 253.434683 104.237678 
L 253.589138 104.557567 
L 253.743592 104.520302 
L 254.206956 103.778909 
L 254.36141 103.81966 
L 254.670319 104.39816 
L 254.979228 105.447137 
L 255.133683 105.374437 
L 255.288137 104.79992 
L 255.442592 104.733507 
L 255.597046 104.8596 
L 255.905955 104.809075 
L 256.832682 105.455784 
L 257.296046 105.344691 
L 257.759409 104.206626 
L 258.377227 103.235816 
L 258.686136 103.823136 
L 258.995045 104.842573 
L 259.458409 105.300795 
L 259.767318 103.674047 
L 259.921772 103.414835 
L 260.53959 103.816209 
L 260.694045 103.896123 
L 261.311863 104.931622 
L 261.466317 104.746202 
L 261.620772 104.949992 
L 261.775226 105.537889 
L 262.084135 104.92671 
L 262.23859 104.960138 
L 262.393044 104.848708 
L 262.701953 104.409197 
L 262.856408 104.473566 
L 263.319771 104.967103 
L 263.62868 104.81909 
L 263.783135 105.048998 
L 263.937589 104.978979 
L 264.246498 104.443463 
L 264.555407 104.559197 
L 264.864317 104.90941 
L 265.32768 103.51433 
L 265.482135 103.573206 
L 265.945498 104.419785 
L 266.099953 104.90417 
L 266.563316 103.457879 
L 266.717771 103.41161 
L 267.335589 104.050765 
L 267.644498 104.737712 
L 267.953407 104.736181 
L 268.107861 104.688761 
L 268.41677 104.45415 
L 268.571225 104.399002 
L 268.725679 104.677794 
L 268.880134 105.190537 
L 269.034588 105.248122 
L 269.189043 105.161248 
L 269.343497 104.875994 
L 269.497952 104.867394 
L 269.961315 104.256594 
L 270.424679 105.350987 
L 270.733588 105.556767 
L 271.196951 104.914592 
L 271.50586 104.355487 
L 271.814769 104.225406 
L 272.278133 104.655408 
L 272.587042 105.521247 
L 273.050405 104.197281 
L 273.513769 103.304266 
L 273.668223 103.76215 
L 273.977132 105.355119 
L 274.131587 105.52256 
L 274.440496 105.283857 
L 274.59495 105.448333 
L 274.749405 105.367325 
L 275.058314 104.462698 
L 275.212768 104.314917 
L 275.521677 105.104234 
L 275.830586 104.572944 
L 275.985041 104.524923 
L 276.29395 104.960834 
L 276.448404 104.666082 
L 276.911768 103.085685 
L 277.066222 103.114982 
L 277.375131 103.821105 
L 277.68404 103.856518 
L 278.147404 105.01852 
L 278.301859 104.741845 
L 278.765222 103.044281 
L 278.919677 103.337077 
L 279.074131 103.296575 
L 279.228586 103.399553 
L 279.537495 100.307304 
L 280.000858 95.663758 
L 280.464222 90.696614 
L 280.773131 87.723142 
L 280.927585 87.445966 
L 281.08204 87.894232 
L 281.390949 90.475286 
L 281.854312 96.244298 
L 282.008767 97.08062 
L 282.47213 101.377874 
L 282.781039 102.650644 
L 283.244403 105.500394 
L 283.862221 102.367308 
L 284.17113 100.877866 
L 284.325584 100.834374 
L 284.634493 101.036073 
L 284.943402 100.54066 
L 285.097857 100.428885 
L 285.252311 100.81783 
L 286.024584 104.346808 
L 286.179038 104.463508 
L 286.333493 104.404548 
L 286.642402 104.092614 
L 286.796856 104.177932 
L 287.105765 102.70014 
L 287.26022 102.567415 
L 287.569129 102.667482 
L 287.878038 102.27815 
L 288.186947 101.948083 
L 288.341401 102.166144 
L 288.959219 105.039703 
L 289.113674 105.355414 
L 289.268128 105.324015 
L 289.577037 104.663085 
L 289.731492 104.686373 
L 290.040401 104.272828 
L 290.194855 104.330475 
L 290.812673 105.38082 
L 290.967128 105.325399 
L 291.276037 104.750197 
L 291.584946 105.50534 
L 291.739401 105.310124 
L 292.04831 104.515827 
L 292.511673 105.05381 
L 292.975037 104.665966 
L 293.4384 105.168848 
L 293.747309 104.33968 
L 293.901764 104.407683 
L 294.210673 105.068206 
L 294.674036 105.231347 
L 294.828491 104.933677 
L 295.291854 102.969316 
L 295.446309 103.070761 
L 295.755218 105.025711 
L 295.909672 105.30611 
L 296.52749 104.384946 
L 296.836399 103.747199 
L 296.990854 103.835023 
L 297.299763 104.313978 
L 297.608672 104.129811 
L 297.917581 104.710275 
L 298.22649 105.565528 
L 298.535399 104.326788 
L 298.689853 104.166909 
L 298.998762 104.719235 
L 299.307671 105.011255 
L 299.462126 104.979471 
L 299.771035 104.793063 
L 299.925489 104.664002 
L 300.388853 103.414346 
L 300.697762 104.184297 
L 301.006671 105.192063 
L 301.161125 105.251419 
L 301.31558 105.15043 
L 301.470034 105.190266 
L 301.624489 104.888684 
L 301.933398 103.831478 
L 302.087852 103.939493 
L 302.396761 104.55155 
L 302.551216 104.588703 
L 302.70567 104.987179 
L 302.860125 105.052857 
L 303.014579 104.838966 
L 303.323488 105.025991 
L 303.477943 105.043501 
L 303.632397 105.243109 
L 304.095761 105.11955 
L 304.40467 105.622982 
L 304.559125 105.218634 
L 304.868034 105.52561 
L 305.022488 105.376003 
L 305.640306 103.752921 
L 305.794761 104.075536 
L 306.10367 105.558397 
L 306.875942 103.559342 
L 307.184851 103.909494 
L 307.49376 104.192355 
L 307.648215 104.286561 
L 307.802669 104.552209 
L 307.957124 105.243036 
L 308.111578 105.392758 
L 308.420487 104.570927 
L 308.574942 104.668139 
L 308.729396 104.575032 
L 308.883851 104.653449 
L 309.19276 105.489932 
L 309.501669 104.824639 
L 309.965032 104.71915 
L 310.273941 103.916703 
L 310.428396 104.267531 
L 310.737305 105.251716 
L 310.891759 104.841042 
L 311.046214 104.930139 
L 311.355123 105.319788 
L 311.664032 105.034949 
L 311.972941 103.613376 
L 312.127395 103.880411 
L 312.28185 104.404797 
L 312.436304 105.506086 
L 312.745213 105.356786 
L 312.899668 105.126699 
L 313.054122 104.571622 
L 313.363031 104.435407 
L 313.67194 104.636778 
L 313.980849 104.378309 
L 314.135304 104.966135 
L 314.289758 104.917985 
L 314.598667 103.463691 
L 314.753122 103.981343 
L 315.062031 105.273855 
L 315.216485 105.614403 
L 315.525394 105.073293 
L 315.834303 104.653773 
L 316.143212 105.192568 
L 316.297667 105.35461 
L 316.452121 104.723893 
L 316.606576 104.751056 
L 316.76103 105.319763 
L 317.069939 105.078269 
L 317.378849 105.497677 
L 318.151121 104.170656 
L 318.768939 104.572011 
L 318.923394 104.391937 
L 319.386757 105.356839 
L 319.541212 104.964536 
L 319.695666 104.938229 
L 319.850121 105.203679 
L 320.313484 105.202325 
L 320.467939 105.044461 
L 320.931302 105.214507 
L 321.703575 103.799637 
L 322.630302 105.244778 
L 322.939211 104.534836 
L 323.24812 103.54338 
L 323.557029 103.272225 
L 323.865938 103.647246 
L 324.174847 104.909363 
L 324.483756 105.010889 
L 324.792665 105.302174 
L 325.410483 105.207134 
L 325.564937 105.459414 
L 325.719392 105.303621 
L 326.028301 104.753242 
L 326.182755 104.871249 
L 326.33721 104.828436 
L 326.646119 105.0973 
L 326.800573 104.970645 
L 326.955028 104.669558 
L 327.109482 104.727918 
L 327.263937 105.261541 
L 327.418391 105.330787 
L 327.7273 104.760827 
L 327.881755 104.319973 
L 328.036209 104.323224 
L 328.190664 104.456001 
L 328.499573 104.872706 
L 328.962936 104.38466 
L 329.117391 104.359198 
L 329.889663 105.330183 
L 330.044118 104.842915 
L 330.198573 105.052762 
L 330.353027 105.506581 
L 330.507482 105.512438 
L 331.279754 103.626789 
L 331.434209 103.379781 
L 331.588663 103.421164 
L 332.206481 104.485908 
L 332.51539 104.946464 
L 332.824299 104.563629 
L 332.978754 104.52913 
L 333.596572 105.196803 
L 333.905481 105.164495 
L 334.21439 105.321554 
L 334.523299 105.191442 
L 334.832208 105.073549 
L 334.986662 104.799092 
L 335.295571 104.002173 
L 335.450026 103.974129 
L 335.913389 104.489997 
L 336.222298 105.654849 
L 336.531207 104.411506 
L 336.840116 104.298663 
L 337.30348 104.224632 
L 337.612389 104.771459 
L 337.921298 105.578063 
L 338.075752 105.295283 
L 338.230207 104.596408 
L 338.539116 104.476187 
L 339.002479 104.477172 
L 339.311388 104.999807 
L 339.620297 105.490174 
L 339.929206 105.458376 
L 340.083661 105.41138 
L 340.238115 105.577788 
L 340.547024 105.460323 
L 341.010388 104.598866 
L 341.164842 104.78084 
L 341.473751 104.481188 
L 341.78266 104.096989 
L 341.937115 104.106306 
L 342.400478 104.665335 
L 342.554933 104.950081 
L 342.709387 105.48741 
L 342.863842 105.440896 
L 343.172751 104.868185 
L 343.636115 104.14864 
L 343.945024 104.739105 
L 344.099478 105.295543 
L 344.253933 105.375174 
L 344.408387 105.321395 
L 344.562842 105.553118 
L 344.871751 104.989799 
L 345.335114 105.555597 
L 345.489569 105.306252 
L 345.644023 105.311782 
L 346.107387 103.492915 
L 346.261841 103.380706 
L 346.57075 104.224725 
L 346.725205 104.096732 
L 346.879659 103.804312 
L 347.034114 103.868412 
L 347.343023 104.922016 
L 347.497477 105.04857 
L 347.651932 104.876715 
L 347.960841 104.403128 
L 348.115295 104.406053 
L 348.424204 104.675923 
L 348.733113 104.280896 
L 349.042022 104.48211 
L 349.196477 104.846248 
L 349.350931 104.759284 
L 349.505386 104.206643 
L 349.65984 104.283587 
L 350.123204 105.346344 
L 350.277658 105.374076 
L 350.741022 104.350582 
L 351.049931 104.190521 
L 351.204385 104.601548 
L 351.35884 105.362092 
L 351.513294 105.508493 
L 351.976658 103.996508 
L 352.131112 103.795618 
L 352.285567 103.875371 
L 352.594476 104.990007 
L 352.74893 104.789577 
L 352.903385 104.981924 
L 353.521203 104.969107 
L 353.984566 103.93279 
L 354.602384 104.949044 
L 354.756839 104.869033 
L 354.911293 104.592512 
L 355.220202 103.741245 
L 355.374657 103.662169 
L 355.83802 104.099136 
L 356.146929 105.388612 
L 356.455839 103.977991 
L 356.764748 103.492783 
L 357.073657 103.023426 
L 357.845929 105.032585 
L 358.000384 104.950531 
L 358.309293 104.255113 
L 358.618202 103.681961 
L 358.772656 103.618077 
L 358.927111 103.741841 
L 359.081565 104.051059 
L 359.390474 105.099604 
L 359.699383 104.347408 
L 359.853838 104.169755 
L 360.008292 104.429354 
L 360.162747 104.333448 
L 360.317201 104.388947 
L 360.62611 104.135066 
L 360.780565 104.2831 
L 361.089474 105.433396 
L 361.243928 105.122801 
L 361.398383 104.356172 
L 361.552837 104.463386 
L 361.707292 104.884663 
L 361.861746 104.964093 
L 362.32511 104.097248 
L 362.479564 104.156634 
L 363.097382 105.203654 
L 363.251837 105.35284 
L 363.406291 105.302695 
L 363.869655 105.504167 
L 364.178564 105.165395 
L 364.487473 104.0957 
L 364.950836 104.838417 
L 365.105291 104.702587 
L 365.259745 104.736119 
L 365.4142 104.616132 
L 365.568654 104.881307 
L 365.723109 105.404171 
L 366.032018 104.658412 
L 366.495381 105.154981 
L 366.958745 104.390012 
L 367.422108 104.389489 
L 367.576563 104.493142 
L 367.885472 104.890311 
L 368.039926 104.705923 
L 368.194381 104.258326 
L 368.348835 104.171321 
L 369.121108 104.864417 
L 369.430017 104.681084 
L 369.584472 104.757274 
L 369.738926 105.127258 
L 369.893381 105.062698 
L 370.20229 104.289779 
L 370.974562 104.350044 
L 371.59238 105.39623 
L 372.055744 104.410449 
L 372.210198 104.633696 
L 372.519107 105.522671 
L 373.136925 103.214295 
L 373.29138 103.123114 
L 373.754743 103.885122 
L 374.063652 103.928173 
L 374.372561 104.29748 
L 374.835925 103.626986 
L 374.990379 103.56094 
L 375.608197 104.863781 
L 375.917106 104.468082 
L 376.071561 104.680573 
L 376.38047 105.496508 
L 376.843833 104.244591 
L 377.307197 105.01587 
L 377.461651 104.904602 
L 377.77056 104.383387 
L 377.925015 104.394357 
L 378.233924 104.761505 
L 378.542833 104.816333 
L 379.006196 104.442043 
L 379.315105 102.205984 
L 379.46956 100.67415 
L 379.932923 93.313513 
L 380.705196 86.381205 
L 380.85965 86.838505 
L 381.168559 89.049238 
L 381.786377 97.822471 
L 382.095286 102.268036 
L 382.404196 104.405122 
L 382.55865 103.426928 
L 382.867559 100.127006 
L 383.485377 98.020057 
L 383.794286 99.063833 
L 384.566559 103.123238 
L 384.875468 104.904005 
L 385.029922 104.167712 
L 385.338831 104.669864 
L 385.493286 104.510428 
L 385.64774 104.134027 
L 385.802195 104.294405 
L 385.956649 104.212433 
L 386.111104 103.857892 
L 386.574467 101.895994 
L 386.728922 101.67331 
L 386.883376 101.840116 
L 387.192285 101.79608 
L 387.34674 102.013343 
L 387.501194 102.556522 
L 387.964558 105.463208 
L 388.582376 104.043926 
L 388.73683 103.991103 
L 389.045739 104.633343 
L 389.354648 105.519522 
L 390.281375 102.713911 
L 390.43583 102.744564 
L 390.590284 103.096114 
L 390.744739 103.156542 
L 391.208102 103.91768 
L 391.517011 103.697002 
L 391.671466 103.807187 
L 392.289284 105.104389 
L 392.598193 104.829813 
L 393.061556 104.315984 
L 393.370465 104.416611 
L 393.52492 104.529154 
L 393.833829 105.087538 
L 394.142738 104.562368 
L 394.297192 104.519942 
L 394.606101 105.337102 
L 394.760556 105.395086 
L 394.91501 105.105842 
L 395.069465 104.553633 
L 395.532829 104.300893 
L 396.150647 104.697166 
L 396.305101 104.527636 
L 396.61401 103.814068 
L 396.768465 103.672483 
L 397.077374 104.109019 
L 397.386283 104.840699 
L 397.540737 105.022226 
L 397.849646 103.971535 
L 398.004101 104.077193 
L 398.158555 104.74422 
L 398.31301 104.847697 
L 398.621919 103.487805 
L 398.776373 103.312573 
L 398.930828 103.63277 
L 399.394191 105.170045 
L 399.548646 105.002827 
L 399.7031 105.140903 
L 399.857555 105.040227 
L 400.320918 103.920018 
L 400.475373 103.739729 
L 400.629827 103.78287 
L 400.938736 105.467664 
L 401.093191 105.295989 
L 401.247645 104.831461 
L 401.556554 104.854288 
L 401.865463 104.344549 
L 402.174372 105.130995 
L 402.483281 105.21683 
L 402.946645 103.721612 
L 403.101099 103.789384 
L 403.410008 105.193052 
L 403.564463 105.375195 
L 404.027826 104.091034 
L 404.49119 103.247122 
L 405.263462 104.696239 
L 405.417917 105.161132 
L 405.726826 104.19823 
L 405.88128 104.015948 
L 406.499098 104.937684 
L 406.808007 104.769788 
L 407.116916 104.989347 
L 407.271371 105.411001 
L 407.58028 104.34834 
L 407.734734 104.062772 
L 408.043643 104.643741 
L 408.198098 105.297753 
L 408.352552 105.304644 
L 408.815916 104.552602 
L 408.970371 104.652973 
L 409.27928 105.275839 
L 409.588189 105.599387 
L 409.897098 104.794053 
L 410.051552 104.697793 
L 410.66937 105.138679 
L 411.132734 105.509417 
L 411.287188 105.545501 
L 411.596097 105.115701 
L 412.059461 105.496451 
L 412.522824 104.299559 
L 412.831733 104.665901 
L 412.986188 105.156526 
L 413.140642 104.929713 
L 413.295097 104.23565 
L 413.449551 104.169992 
L 413.604006 104.434665 
L 413.912915 104.327184 
L 414.067369 104.1232 
L 414.221824 104.103923 
L 414.376278 104.499346 
L 414.530733 104.541279 
L 414.685187 104.118778 
L 415.148551 103.796935 
L 415.766369 104.911725 
L 415.920823 104.808185 
L 416.075278 104.968053 
L 416.229732 104.94655 
L 416.384187 104.735511 
L 416.538641 104.759613 
L 417.002005 105.274682 
L 417.310914 104.17494 
L 417.465368 104.266243 
L 417.928732 105.123756 
L 418.083186 104.890066 
L 418.701004 105.087843 
L 418.855459 105.015779 
L 419.164368 105.160209 
L 419.627731 104.130731 
L 419.782186 104.438606 
L 420.091095 105.367669 
L 420.245549 105.374024 
L 420.400004 105.246682 
L 420.863367 104.287728 
L 421.326731 105.513537 
L 421.63564 105.231658 
L 421.944549 104.530581 
L 422.099004 104.025248 
L 422.253458 103.970879 
L 422.407913 104.201123 
L 422.716822 105.245136 
L 422.871276 105.320717 
L 423.180185 105.073965 
L 423.489094 105.077329 
L 423.798003 105.331652 
L 423.952458 105.206167 
L 424.106912 105.523539 
L 424.261367 105.52122 
L 424.415821 105.344692 
L 424.879185 104.146427 
L 425.033639 104.268388 
L 425.188094 104.541723 
L 425.651457 104.70261 
L 425.805912 104.83722 
L 426.269275 104.732476 
L 426.578184 104.847326 
L 426.732639 104.94075 
L 426.887093 105.172808 
L 427.041548 105.05 
L 427.350457 105.077934 
L 428.122729 105.043086 
L 428.277184 105.432708 
L 428.586093 105.137575 
L 428.740547 105.192054 
L 429.203911 104.531155 
L 429.358365 104.708482 
L 429.667274 105.616322 
L 429.821729 105.60342 
L 430.285092 104.462325 
L 430.90291 102.651689 
L 431.520728 104.507431 
L 432.138546 103.946871 
L 432.293001 104.163636 
L 432.447455 104.586726 
L 432.756364 104.742108 
L 433.065273 104.984083 
L 433.374182 104.43107 
L 433.683091 104.637032 
L 434.455364 102.600321 
L 434.764273 103.225425 
L 435.382091 105.464499 
L 435.845455 103.603642 
L 435.845455 103.603642 
" style="fill:none;stroke:#000000;stroke-linecap:square;stroke-width:0.5;"/>
   </g>
   <g id="patch_3">
    <path d="M 63 110.004 
L 63 14.832 
" style="fill:none;stroke:#000000;stroke-linecap:square;stroke-linejoin:miter;stroke-width:0.8;"/>
   </g>
   <g id="patch_4">
    <path d="M 453.6 110.004 
L 453.6 14.832 
" style="fill:none;stroke:#000000;stroke-linecap:square;stroke-linejoin:miter;stroke-width:0.8;"/>
   </g>
   <g id="patch_5">
    <path d="M 63 110.004 
L 453.6 110.004 
" style="fill:none;stroke:#000000;stroke-linecap:square;stroke-linejoin:miter;stroke-width:0.8;"/>
   </g>
   <g id="patch_6">
    <path d="M 63 14.832 
L 453.6 14.832 
" style="fill:none;stroke:#000000;stroke-linecap:square;stroke-linejoin:miter;stroke-width:0.8;"/>
   </g>
  </g>
 </g>
 <defs>
  <clipPath id="pccb3be8b58">
   <rect height="95.172" width="390.6" x="63" y="14.832"/>
  </clipPath>
 </defs>
</svg>
