<?xml version="1.0" encoding="UTF-8" standalone="no"?>
<!-- Created with Inkscape (http://www.inkscape.org/) -->

<svg
   xmlns:rendltx="http://NOTSET"
   xmlns:dc="http://purl.org/dc/elements/1.1/"
   xmlns:cc="http://creativecommons.org/ns#"
   xmlns:rdf="http://www.w3.org/1999/02/22-rdf-syntax-ns#"
   xmlns:svg="http://www.w3.org/2000/svg"
   xmlns="http://www.w3.org/2000/svg"
   xmlns:xlink="http://www.w3.org/1999/xlink"
   xmlns:sodipodi="http://sodipodi.sourceforge.net/DTD/sodipodi-0.dtd"
   xmlns:inkscape="http://www.inkscape.org/namespaces/inkscape"
   width="106.99829mm"
   height="55.544289mm"
   viewBox="0 0 106.99829 55.544289"
   version="1.1"
   id="svg7826"
   inkscape:version="0.92.4 (5da689c313, 2019-01-14)"
   sodipodi:docname="preproc.svg">
  <defs
     id="defs7820">
    <clipPath
       id="p6cbb97d697"
       style="stroke-linecap:butt;stroke-linejoin:round">
      <rect
         id="rect5783"
         y="41.472"
         x="57.599998"
         width="357.12"
         height="266.112"
         style="stroke-linecap:butt;stroke-linejoin:round" />
    </clipPath>
    <clipPath
       id="clipPath7710"
       style="stroke-linecap:butt;stroke-linejoin:round">
      <rect
         id="rect7708"
         y="41.472"
         x="57.599998"
         width="357.12"
         height="266.112"
         style="stroke-linecap:butt;stroke-linejoin:round" />
    </clipPath>
  </defs>
  <sodipodi:namedview
     id="base"
     pagecolor="#ffffff"
     bordercolor="#666666"
     borderopacity="1.0"
     inkscape:pageopacity="0.0"
     inkscape:pageshadow="2"
     inkscape:zoom="0.98994949"
     inkscape:cx="160.67278"
     inkscape:cy="215.79923"
     inkscape:document-units="mm"
     inkscape:current-layer="g9889"
     showgrid="false"
     inkscape:window-width="880"
     inkscape:window-height="1128"
     inkscape:window-x="763"
     inkscape:window-y="133"
     inkscape:window-maximized="0"
     fit-margin-top="0"
     fit-margin-left="0"
     fit-margin-right="0"
     fit-margin-bottom="0" />
  <metadata
     id="metadata7823">
    <rdf:RDF>
      <cc:Work
         rdf:about="">
        <dc:format>image/svg+xml</dc:format>
        <dc:type
           rdf:resource="http://purl.org/dc/dcmitype/StillImage" />
        <dc:title></dc:title>
      </cc:Work>
    </rdf:RDF>
  </metadata>
  <g
     inkscape:label="Layer 1"
     inkscape:groupmode="layer"
     id="layer1"
     transform="translate(-82.102579,-42.001934)">
    <g
       transform="translate(-17.463961,32.868643)"
       style="display:inline;opacity:1;stroke-linecap:butt;stroke-linejoin:round"
       id="g7696" />
    <g
       inkscape:groupmode="layer"
       id="layer4"
       inkscape:label="Latex"
       style="display:none">
      <text
         xml:space="preserve"
         style="font-style:normal;font-weight:normal;font-size:10.58333302px;line-height:1.25;font-family:sans-serif;text-align:center;letter-spacing:0px;word-spacing:0px;text-anchor:middle;display:inline;opacity:1;fill:#000000;fill-opacity:1;stroke:none;stroke-width:0.26458332;stroke-linecap:butt;stroke-linejoin:round"
         x="159.31653"
         y="46.490337"
         id="text8909"><tspan
           sodipodi:role="line"
           id="tspan8907"
           x="159.31653"
           y="46.490337"
           style="font-style:normal;font-variant:normal;font-weight:normal;font-stretch:normal;font-size:3.17499995px;font-family:'TeX Gyre Pagella';-inkscape-font-specification:'TeX Gyre Pagella';stroke-width:0.26458332">raw data sample</tspan></text>
      <text
         xml:space="preserve"
         style="font-style:normal;font-weight:normal;font-size:10.58333302px;line-height:1.25;font-family:sans-serif;text-align:center;letter-spacing:0px;word-spacing:0px;text-anchor:middle;display:inline;opacity:1;fill:#000000;fill-opacity:1;stroke:none;stroke-width:0.26458332;stroke-linecap:butt;stroke-linejoin:round"
         x="165.95599"
         y="50.42495"
         id="text8909-3"><tspan
           sodipodi:role="line"
           id="tspan8907-6"
           x="165.95599"
           y="50.42495"
           style="font-style:normal;font-variant:normal;font-weight:normal;font-stretch:normal;font-size:3.17499995px;font-family:'TeX Gyre Pagella';-inkscape-font-specification:'TeX Gyre Pagella';stroke-width:0.26458332">preprocessed data sample</tspan></text>
      <text
         xml:space="preserve"
         style="font-style:normal;font-weight:normal;font-size:10.58333302px;line-height:1.25;font-family:sans-serif;text-align:center;letter-spacing:0px;word-spacing:0px;text-anchor:middle;display:inline;opacity:1;fill:#000000;fill-opacity:1;stroke:none;stroke-width:0.26458332;stroke-linecap:butt;stroke-linejoin:round"
         x="-69.196899"
         y="84.544464"
         id="text8909-3-7"
         transform="rotate(-90)"><tspan
           sodipodi:role="line"
           id="tspan8907-6-5"
           x="-69.196899"
           y="84.544464"
           style="font-style:normal;font-variant:normal;font-weight:normal;font-stretch:normal;font-size:3.17499995px;font-family:'TeX Gyre Pagella';-inkscape-font-specification:'TeX Gyre Pagella';stroke-width:0.26458332">horizontal gaze position</tspan></text>
      <text
         xml:space="preserve"
         style="font-style:normal;font-weight:normal;font-size:10.58333302px;line-height:1.25;font-family:sans-serif;text-align:center;letter-spacing:0px;word-spacing:0px;text-anchor:middle;display:inline;opacity:1;fill:#000000;fill-opacity:1;stroke:none;stroke-width:0.26458332;stroke-linecap:butt;stroke-linejoin:round"
         x="139.67087"
         y="97.507637"
         id="text8909-3-7-3"><tspan
           sodipodi:role="line"
           id="tspan8907-6-5-5"
           x="139.67087"
           y="97.507637"
           style="font-style:normal;font-variant:normal;font-weight:normal;font-stretch:normal;font-size:3.17499995px;font-family:'TeX Gyre Pagella';-inkscape-font-specification:'TeX Gyre Pagella';stroke-width:0.26458332">$t$</tspan></text>
    </g>
  </g>
  <g
     rendltx:math="False"
     rendltx:newline="False"
     rendltx:fontsize="10.0"
     rendltx:depth="0.0"
     rendltx:scale="1.0"
     rendltx:packages="amsmath,amssymb"
     rendltx:preamble=""
     id="ltx-render-layer"
     inkscape:groupmode="layer"
     inkscape:label="Rendered Latex"
     transform="translate(-82.102579,-42.001934)">
    <g
       id="g9682">
      <g
         id="figure_1-1"
         transform="matrix(0.18577492,0,0,0.18877871,112.94989,-22.802435)"
         style="display:inline;opacity:1;stroke-width:1.06797218;stroke-linecap:butt;stroke-linejoin:round;stroke-miterlimit:4;stroke-dasharray:none"
         inkscape:export-filename="/tmp/remodnav_algorithm-v3.1.png"
         inkscape:export-xdpi="96"
         inkscape:export-ydpi="96">
        <g
           id="axes_1-0"
           style="stroke-width:1.06797218;stroke-linecap:butt;stroke-linejoin:round;stroke-miterlimit:4;stroke-dasharray:none"
           transform="translate(0,186.20246)">
          <g
             id="patch_4-5"
             style="stroke-width:1.06797218;stroke-linecap:butt;stroke-linejoin:round;stroke-miterlimit:4;stroke-dasharray:none" />
        </g>
      </g>
      <g
         id="g9889">
        <g
           id="patch_2-5-5"
           style="display:inline;opacity:1;fill:#ffffff;stroke-linecap:butt;stroke-linejoin:round"
           transform="matrix(0.27423004,0,0,0.18882125,72.2732,34.171139)">
          <path
             id="path16544-3"
             style="fill:#ffffff;stroke-linecap:butt;stroke-linejoin:round"
             d="M 57.6,307.584 H 414.72 V 41.472 H 57.6 Z"
             inkscape:connector-curvature="0" />
        </g>
        <g
           transform="matrix(0.26996329,0,0,0.18856424,73.432437,34.611061)"
           style="display:inline;opacity:1;stroke-width:0.89050311;stroke-linecap:butt;stroke-linejoin:round;stroke-miterlimit:4;stroke-dasharray:none"
           id="line2d_15-2">
          <path
             inkscape:connector-curvature="0"
             clip-path="url(#p6cbb97d697)"
             d="m 73.832727,214.848 1.63143,-8.64 1.63143,-11.52 1.63143,-8.64 1.63143,2.88 1.63143,-2.88 1.63143,-14.4 1.631429,-20.16 1.63143,-23.04 1.63143,-14.4 1.63143,-17.28 1.63143,-2.88 3.26286,23.04 1.63143,17.28 1.631429,5.76 1.63143,8.64 1.631435,2.88 h 1.63143 l 1.63142,14.4 1.63144,8.64 h 1.63142 l 1.63144,-31.68 1.63142,-28.8 1.63143,-31.68 1.63143,-5.76 1.63143,31.68 3.26286,83.52 4.89429,-132.48 1.63143,-5.76 1.63143,25.92 1.63143,23.04 1.63143,25.92 1.63143,-2.88 1.63143,-20.16 1.63143,-23.04 1.63143,17.28 1.63143,34.56 1.63143,28.8 1.63143,-5.76 3.26286,-5.76 h 1.63143 l 1.63143,11.52 1.63143,17.28 1.63143,28.8 1.63143,17.28 1.63143,23.04 3.26286,5.76 1.63143,-2.88 1.63143,-14.4 1.63143,-28.8 1.63143,-17.28 1.63143,5.76 1.63143,17.28 1.63143,23.04 1.63143,11.52 1.63143,5.76 1.63143,-28.8 1.63143,-20.16 1.63143,-23.04 1.63143,-8.64 1.63143,-14.4 1.63143,-20.16 1.63143,-17.28 1.63143,5.76 1.63143,25.92 1.63143,23.04 1.63143,8.64 1.63143,-8.64 1.63143,-14.4 1.63143,-17.28 1.63143,28.8 1.63143,31.68 1.63143,25.92 1.63143,-5.76 3.26286,-5.76 1.63143,-5.76 1.63143,11.52 1.63143,14.4 1.63143,-20.16 1.63143,-37.44 1.63143,-23.04 1.63143,20.16 1.63143,23.04 1.63143,11.52 h 3.26286 l 1.63143,8.64 1.63143,20.16 1.63143,17.28 1.63142,-20.16 1.63143,-31.68 1.63143,-2.88 1.63144,31.68 1.63142,28.8 1.63143,-17.28 1.63143,-40.32 1.63143,-37.44 1.63143,-8.64 3.26286,28.8 h 1.63143 l 1.63143,-11.52 3.26286,-51.84 1.63143,31.68 3.26286,89.28 h 3.26286 l 3.26286,-34.56 1.63143,-20.16 1.63143,8.64 1.63143,11.52 1.63143,17.28 1.63143,8.64 1.63143,20.16 1.63143,17.28 1.63143,11.52 1.63143,-8.64 1.63143,5.76 1.63143,8.64 1.63143,-11.52 1.63143,-40.32 1.63143,-37.44 1.63143,-17.28 1.63143,-5.76 1.63143,-2.88 1.63143,-17.28 1.63143,-11.52 1.63143,-17.28 1.63143,-5.76 1.63143,2.88 3.26286,83.52 1.63143,23.04 1.63143,-17.28 1.63143,-5.76 1.63143,5.76 1.63143,20.16 1.63143,11.52 1.63143,14.4 1.63143,-31.68 1.63143,-40.32 1.63143,-43.2 h 3.26286 l 1.63143,2.88 h 1.63143 l 1.63143,-2.88 1.63143,-8.64 1.63143,-5.76 1.63143,20.16 1.63143,28.8 1.63143,25.92 1.63143,-2.88 1.63143,-5.76 h 1.63143 l 1.63143,-5.76 3.26286,-17.28 3.26286,28.8 1.63143,28.8 1.63143,23.04 1.63143,28.8 1.63143,-28.8 1.63143,-34.56 1.63143,-40.32 1.63143,-11.52 3.26285,-17.28 1.63143,-5.76 h 1.63144 l 3.26286,34.56 1.63142,11.52 1.63143,-5.76 1.63143,-2.88 1.63143,-11.52 1.63143,-14.4 1.63143,-11.52 1.63143,5.76 1.63143,11.52 1.63143,-5.76 1.63143,-11.52 1.63143,-5.76 3.26286,11.52 1.63143,-23.04 1.63143,-20.16 1.63143,31.68 1.63143,51.84 v 0"
             style="fill:none;stroke:#1f77b4;stroke-width:0.89050311;stroke-linecap:square;stroke-linejoin:round;stroke-miterlimit:4;stroke-dasharray:none"
             id="path5660" />
        </g>
        <g
           transform="matrix(0.27146155,0,0,0.18848318,72.799572,34.628606)"
           style="display:inline;opacity:1;stroke-width:0.89076704;stroke-linecap:butt;stroke-linejoin:round;stroke-miterlimit:4;stroke-dasharray:none"
           id="line2d_16-0">
          <path
             inkscape:connector-curvature="0"
             clip-path="url(#p6cbb97d697)"
             d="m 73.832727,187.78797 1.63143,2.02403 1.63143,-0.84579 1.63143,-3.90921 1.63143,-6.10519 1.63143,-8.7661 1.63143,-10.79395 3.262859,-23.30112 1.63143,-8.52409 1.63143,-6.0517 1.63143,-3.48886 1.63143,-1.08016 1.63143,3.42772 1.63143,6.98155 1.631429,9.53546 1.63143,8.01331 1.631435,4.13339 1.63143,-0.64708 1.63142,-1.20116 1.63144,-2.6469 1.63142,-0.97826 1.63144,-0.107 1.63142,-3.08253 1.63143,-5.94342 1.63143,-8.33939 1.63143,-9.06544 1.63143,-7.56111 1.63143,-4.90276 1.63143,-2.2826 3.26286,0.19107 1.63143,-0.70694 1.63143,-0.29297 1.63143,-1.40115 1.63143,-1.043221 1.63143,1.362941 1.63143,5.73962 1.63143,7.60442 1.63143,9.08072 1.63143,7.95217 1.63143,4.55883 1.63143,5.27724 1.63143,7.49615 1.63143,10.0921 1.63143,13.85992 1.63143,16.00623 1.63143,13.47397 1.63143,9.98128 1.63143,5.36258 4.89429,12.59761 1.63143,4.37541 1.63143,3.12202 1.63143,1.12601 1.63143,-1.66736 3.26286,-6.96627 1.63143,-4.59322 1.63143,-5.10528 1.63143,-7.73308 1.63143,-8.8387 4.89429,-21.40193 1.63143,-8.5381 3.26286,-19.12442 1.63143,-6.0708 1.63143,-0.71586 1.63143,4.22128 1.63143,6.79812 3.26286,16.94755 4.89429,29.14519 1.63143,6.54337 1.63143,3.25704 3.26286,1.99345 1.63143,0.60122 1.63143,0.0471 1.63143,-2.66346 1.63143,-5.10528 1.63143,-4.6671 1.63143,-1.81767 3.26286,5.37786 1.63143,0.87254 1.63143,1.07634 1.63143,2.50296 1.63143,6.81596 1.63143,8.99156 1.63143,6.99556 1.63142,1.39096 1.63143,-2.50806 1.63143,-4.81359 1.63144,-4.1232 1.63142,-3.15768 1.63143,-5.26578 1.63143,-7.45284 3.26286,-20.91662 1.63143,-6.56248 1.63143,-3.22647 1.63143,-1.95269 1.63143,0.39869 1.63143,4.5945 1.63143,7.21083 1.63143,8.64509 1.63143,6.2504 1.63143,3.59969 3.26286,5.31035 1.63143,5.19572 3.26286,12.92497 1.63143,3.9729 1.63143,2.84688 1.63143,3.86718 1.63143,7.01211 1.63143,9.01322 1.63143,7.26433 1.63143,5.39315 1.63143,2.80739 1.63143,-1.27122 1.63143,-5.34475 1.63143,-10.01185 1.63143,-13.47779 1.63143,-18.10031 1.63143,-20.63639 1.63143,-17.74493 1.63143,-13.53383 1.63143,-9.81315 1.63143,-5.9982 1.63143,-2.5399 1.63143,2.14249 1.63143,7.86045 1.63143,10.81178 1.63143,13.06127 1.63143,14.32739 1.63143,11.79641 1.63143,9.45776 1.63143,5.48105 1.63143,1.69921 1.63143,-2.99464 1.63143,-6.7943 1.63143,-11.35441 4.89429,-36.58912 1.63143,-9.84754 1.63143,-7.27197 1.63143,-5.20845 1.63143,-0.66237 1.63143,3.97035 1.63143,7.30764 1.63143,8.81323 1.63143,7.1395 3.26286,6.09118 1.63143,4.5945 1.63143,6.0606 1.63143,8.961 1.63143,10.14305 1.63143,7.03632 1.63143,3.6519 1.63143,1.27378 1.63143,0.43563 1.63143,-0.21654 1.63143,-3.03923 1.63143,-5.546 1.63143,-6.21092 1.63143,-6.82487 4.89428,-23.09987 1.63143,-7.07835 1.63144,-4.92568 1.63142,-2.14121 1.63144,0.27895 1.63142,3.82514 1.63143,3.14749 1.63143,0.76045 3.26286,-0.48531 1.63143,-2.2826 1.63143,-4.96517 1.63143,-9.21702 1.63143,-8.34321 1.63143,-4.05569 1.63143,0.64198 1.63143,3.84425 1.63143,5.54982 6.52572,24.99652 v 0"
             style="fill:none;stroke:#ff7f0e;stroke-width:0.89076704;stroke-linecap:square;stroke-linejoin:round;stroke-miterlimit:4;stroke-dasharray:none"
             id="path5663" />
        </g>
        <g
           transform="matrix(0.18577492,0,0,0.18877871,76.966551,34.573631)"
           style="display:inline;opacity:1;stroke:#11110d;stroke-width:1.06797218;stroke-linecap:butt;stroke-linejoin:round;stroke-miterlimit:4;stroke-dasharray:none;stroke-opacity:1"
           id="patch_3-5">
          <path
             inkscape:connector-curvature="0"
             d="M 57.6,307.584 V 41.472"
             style="fill:none;stroke:#11110d;stroke-width:1.06797218;stroke-linecap:square;stroke-linejoin:miter;stroke-miterlimit:4;stroke-dasharray:none;stroke-opacity:1"
             id="path5666" />
        </g>
        <g
           transform="matrix(0.28281101,0,0,-0.18877871,71.380263,150.70425)"
           style="display:inline;opacity:1;stroke:#11110d;stroke-width:0.88976336;stroke-linecap:butt;stroke-linejoin:round;stroke-miterlimit:4;stroke-dasharray:none;stroke-opacity:1"
           id="patch_5-2">
          <path
             inkscape:connector-curvature="0"
             d="M 57.6,307.584 H 414.72"
             style="fill:none;stroke:#11110d;stroke-width:0.88976336;stroke-linecap:square;stroke-linejoin:miter;stroke-miterlimit:4;stroke-dasharray:none;stroke-opacity:1"
             id="path5672" />
        </g>
        <g
           transform="matrix(0.25623366,0,0,0.26847096,78.782955,31.235002)"
           style="display:inline;opacity:1;stroke-width:0.75095797;stroke-linecap:butt;stroke-linejoin:round;stroke-miterlimit:4;stroke-dasharray:none"
           id="legend_1-0">
          <g
             style="stroke-width:0.75095797;stroke-linecap:butt;stroke-linejoin:round;stroke-miterlimit:4;stroke-dasharray:none"
             id="patch_7-2"
             transform="matrix(1.0895928,0,0,1,-21.567191,0)">
            <path
               inkscape:connector-curvature="0"
               d="M 242.72469,78.82825 H 407.72 q 2,0 2,-2 V 48.472 q 0,-2 -2,-2 H 242.72469 q -2,0 -2,2 v 28.35625 q 0,2 2,2 z"
               style="opacity:0.8;fill:#ffffff;stroke:#cccccc;stroke-width:0.75095797;stroke-linecap:butt;stroke-linejoin:miter;stroke-miterlimit:4;stroke-dasharray:none"
               id="path5678" />
          </g>
          <g
             style="stroke-width:0.75095797;stroke-linecap:butt;stroke-linejoin:round;stroke-miterlimit:4;stroke-dasharray:none"
             id="line2d_17-8">
            <path
               inkscape:connector-curvature="0"
               d="m 244.72469,54.570437 h 20"
               style="fill:none;stroke:#1f77b4;stroke-width:0.75095797;stroke-linecap:square;stroke-linejoin:round;stroke-miterlimit:4;stroke-dasharray:none"
               id="path5681" />
          </g>
          <g
             style="stroke-width:0.75095797;stroke-linecap:butt;stroke-linejoin:round;stroke-miterlimit:4;stroke-dasharray:none"
             id="line2d_18-3" />
          <g
             style="stroke-width:0.75095797;stroke-linecap:butt;stroke-linejoin:round;stroke-miterlimit:4;stroke-dasharray:none"
             id="line2d_19-4">
            <path
               inkscape:connector-curvature="0"
               d="m 244.72469,69.248562 h 20"
               style="fill:none;stroke:#ff7f0e;stroke-width:0.75095797;stroke-linecap:square;stroke-linejoin:round;stroke-miterlimit:4;stroke-dasharray:none"
               id="path5722" />
          </g>
          <g
             style="stroke-width:0.75095797;stroke-linecap:butt;stroke-linejoin:round;stroke-miterlimit:4;stroke-dasharray:none"
             id="line2d_20-0" />
        </g>
        <path
           inkscape:export-ydpi="96"
           inkscape:export-xdpi="96"
           inkscape:export-filename="/tmp/remodnav_algorithm-v3.1.png"
           transform="matrix(0.2821386,0.23029557,-0.28826267,0.23254617,188.51271,43.585162)"
           inkscape:transform-center-y="0.022988923"
           inkscape:transform-center-x="-0.31142482"
           d="m 108.10775,103.88061 -0.62254,2.74066 -0.62254,2.74066 -2.06221,-1.90946 -2.06221,-1.90947 2.68475,-0.83119 z"
           inkscape:randomized="0"
           inkscape:rounded="0"
           inkscape:flatsided="false"
           sodipodi:arg2="0.22336031"
           sodipodi:arg1="-0.82383724"
           sodipodi:r2="1.6226281"
           sodipodi:r1="3.2452564"
           sodipodi:cy="106.26185"
           sodipodi:cx="105.90289"
           sodipodi:sides="3"
           id="path13734-2-1"
           style="display:inline;opacity:1;fill:#1a1a1a;fill-opacity:1;fill-rule:nonzero;stroke:#11110d;stroke-width:0.30000001;stroke-linecap:butt;stroke-linejoin:bevel;stroke-miterlimit:4;stroke-dasharray:0.59999999, 0.3;stroke-dashoffset:7.32442236;stroke-opacity:1;paint-order:stroke markers fill"
           sodipodi:type="star" />
        <path
           inkscape:export-ydpi="96"
           inkscape:export-xdpi="96"
           inkscape:export-filename="/tmp/remodnav_algorithm-v3.1.png"
           transform="matrix(0.23767889,-0.27594743,0.22483885,0.29431374,38.615858,41.661223)"
           inkscape:transform-center-y="9.7731565"
           inkscape:transform-center-x="-15.688145"
           d="m 108.10775,103.88061 -0.62254,2.74066 -0.62254,2.74066 -2.06221,-1.90946 -2.06221,-1.90947 2.68475,-0.83119 z"
           inkscape:randomized="0"
           inkscape:rounded="0"
           inkscape:flatsided="false"
           sodipodi:arg2="0.22336031"
           sodipodi:arg1="-0.82383724"
           sodipodi:r2="1.6226281"
           sodipodi:r1="3.2452564"
           sodipodi:cy="106.26185"
           sodipodi:cx="105.90289"
           sodipodi:sides="3"
           id="path13734-2-2-1-9"
           style="display:inline;opacity:1;fill:#1a1a1a;fill-opacity:1;fill-rule:nonzero;stroke:#11110d;stroke-width:0.30000001;stroke-linecap:butt;stroke-linejoin:bevel;stroke-miterlimit:4;stroke-dasharray:0.59999999, 0.3;stroke-dashoffset:7.32442236;stroke-opacity:1;paint-order:stroke markers fill"
           sodipodi:type="star" />
        <g
           id="lx-text8909"
           transform="matrix(0.352778,0,0,0.352778,147.67479,47.019504)">
          <defs
             id="defs9045">
            <g
               id="g9043">
              <symbol
                 id="lx-text8909-glyph0-0"
                 overflow="visible"
                 style="overflow:visible">
                <path
                   id="path9010"
                   d=""
                   style="stroke:none"
                   inkscape:connector-curvature="0" />
              </symbol>
              <symbol
                 id="lx-text8909-glyph0-1"
                 overflow="visible"
                 style="overflow:visible">
                <path
                   id="path9013"
                   d="M 1.671875,-3.3125 V -4.40625 L 0.28125,-4.296875 v 0.3125 c 0.703125,0 0.78125,0.0625 0.78125,0.5625 V -0.75 c 0,0.4375 -0.109375,0.4375 -0.78125,0.4375 V 0 c 0.390625,-0.015625 0.859375,-0.03125 1.140625,-0.03125 0.390625,0 0.859375,0 1.265625,0.03125 V -0.3125 H 2.46875 c -0.734375,0 -0.75,-0.109375 -0.75,-0.46875 V -2.3125 c 0,-0.984375 0.421875,-1.875 1.171875,-1.875 0.0625,0 0.09375,0 0.109375,0.015625 -0.03125,0 -0.234375,0.125 -0.234375,0.390625 0,0.265625 0.21875,0.421875 0.4375,0.421875 0.171875,0 0.421875,-0.125 0.421875,-0.4375 0,-0.3125 -0.3125,-0.609375 -0.734375,-0.609375 -0.734375,0 -1.09375,0.671875 -1.21875,1.09375 z m 0,0"
                   style="stroke:none"
                   inkscape:connector-curvature="0" />
              </symbol>
              <symbol
                 id="lx-text8909-glyph0-2"
                 overflow="visible"
                 style="overflow:visible">
                <path
                   id="path9016"
                   d="m 3.3125,-0.75 c 0.046875,0.390625 0.3125,0.8125 0.78125,0.8125 0.21875,0 0.828125,-0.140625 0.828125,-0.953125 v -0.5625 h -0.25 v 0.5625 c 0,0.578125 -0.25,0.640625 -0.359375,0.640625 -0.328125,0 -0.375,-0.453125 -0.375,-0.5 v -1.984375 c 0,-0.421875 0,-0.8125 -0.359375,-1.1875 C 3.1875,-4.3125 2.6875,-4.46875 2.21875,-4.46875 c -0.828125,0 -1.515625,0.46875 -1.515625,1.125 0,0.296875 0.203125,0.46875 0.46875,0.46875 0.28125,0 0.453125,-0.203125 0.453125,-0.453125 0,-0.125 -0.046875,-0.453125 -0.515625,-0.453125 C 1.390625,-4.140625 1.875,-4.25 2.1875,-4.25 c 0.5,0 1.0625,0.390625 1.0625,1.28125 v 0.359375 c -0.515625,0.03125 -1.203125,0.0625 -1.828125,0.359375 -0.75,0.34375 -1,0.859375 -1,1.296875 0,0.8125 0.96875,1.0625 1.59375,1.0625 0.65625,0 1.109375,-0.40625 1.296875,-0.859375 z M 3.25,-2.390625 v 1 c 0,0.9375 -0.71875,1.28125 -1.171875,1.28125 -0.484375,0 -0.890625,-0.34375 -0.890625,-0.84375 0,-0.546875 0.421875,-1.375 2.0625,-1.4375 z m 0,0"
                   style="stroke:none"
                   inkscape:connector-curvature="0" />
              </symbol>
              <symbol
                 id="lx-text8909-glyph0-3"
                 overflow="visible"
                 style="overflow:visible">
                <path
                   id="path9019"
                   d="m 6.171875,-3.34375 c 0.171875,-0.5 0.484375,-0.640625 0.84375,-0.640625 v -0.3125 C 6.78125,-4.28125 6.5,-4.265625 6.28125,-4.265625 c -0.296875,0 -0.734375,-0.015625 -0.921875,-0.03125 v 0.3125 c 0.359375,0 0.578125,0.1875 0.578125,0.46875 0,0.0625 0,0.09375 -0.0625,0.21875 L 4.96875,-0.75 3.984375,-3.53125 C 3.953125,-3.65625 3.9375,-3.671875 3.9375,-3.71875 c 0,-0.265625 0.390625,-0.265625 0.59375,-0.265625 v -0.3125 c -0.296875,0.015625 -0.796875,0.03125 -1.046875,0.03125 -0.296875,0 -0.578125,-0.015625 -0.875,-0.03125 v 0.3125 c 0.359375,0 0.515625,0.015625 0.625,0.140625 0.046875,0.0625 0.15625,0.359375 0.21875,0.546875 L 2.609375,-0.875 1.65625,-3.53125 C 1.609375,-3.65625 1.609375,-3.671875 1.609375,-3.71875 1.609375,-3.984375 2,-3.984375 2.1875,-3.984375 v -0.3125 c -0.296875,0.015625 -0.859375,0.03125 -1.078125,0.03125 -0.046875,0 -0.578125,-0.015625 -0.9375,-0.03125 v 0.3125 c 0.5,0 0.625,0.03125 0.75,0.34375 l 1.25,3.53125 C 2.21875,0.03125 2.25,0.109375 2.375,0.109375 c 0.140625,0 0.15625,-0.0625 0.203125,-0.203125 l 1.015625,-2.8125 1.015625,2.828125 c 0.03125,0.109375 0.0625,0.1875 0.203125,0.1875 0.125,0 0.15625,-0.09375 0.1875,-0.1875 z m 0,0"
                   style="stroke:none"
                   inkscape:connector-curvature="0" />
              </symbol>
              <symbol
                 id="lx-text8909-glyph0-4"
                 overflow="visible"
                 style="overflow:visible">
                <path
                   id="path9022"
                   d="m 3.78125,-0.546875 v 0.65625 L 5.25,0 v -0.3125 c -0.6875,0 -0.78125,-0.0625 -0.78125,-0.5625 V -6.921875 L 3.046875,-6.8125 V -6.5 c 0.6875,0 0.765625,0.0625 0.765625,0.5625 v 2.15625 c -0.28125,-0.359375 -0.71875,-0.625 -1.25,-0.625 -1.171875,0 -2.21875,0.984375 -2.21875,2.265625 0,1.265625 0.96875,2.25 2.109375,2.25 0.640625,0 1.078125,-0.34375 1.328125,-0.65625 z m 0,-2.671875 v 2.046875 c 0,0.171875 0,0.1875 -0.109375,0.359375 C 3.375,-0.328125 2.9375,-0.109375 2.5,-0.109375 2.046875,-0.109375 1.6875,-0.375 1.453125,-0.75 1.203125,-1.15625 1.171875,-1.71875 1.171875,-2.140625 1.171875,-2.5 1.1875,-3.09375 1.46875,-3.546875 1.6875,-3.859375 2.0625,-4.1875 2.609375,-4.1875 c 0.34375,0 0.765625,0.15625 1.0625,0.59375 0.109375,0.171875 0.109375,0.1875 0.109375,0.375 z m 0,0"
                   style="stroke:none"
                   inkscape:connector-curvature="0" />
              </symbol>
              <symbol
                 id="lx-text8909-glyph0-5"
                 overflow="visible"
                 style="overflow:visible">
                <path
                   id="path9025"
                   d="m 1.71875,-3.984375 h 1.4375 v -0.3125 H 1.71875 V -6.125 h -0.25 c 0,0.8125 -0.296875,1.875 -1.28125,1.921875 v 0.21875 h 0.84375 v 2.75 c 0,1.21875 0.9375,1.34375 1.296875,1.34375 0.703125,0 0.984375,-0.703125 0.984375,-1.34375 v -0.5625 h -0.25 V -1.25 c 0,0.734375 -0.296875,1.109375 -0.671875,1.109375 -0.671875,0 -0.671875,-0.90625 -0.671875,-1.078125 z m 0,0"
                   style="stroke:none"
                   inkscape:connector-curvature="0" />
              </symbol>
              <symbol
                 id="lx-text8909-glyph0-6"
                 overflow="visible"
                 style="overflow:visible">
                <path
                   id="path9028"
                   d="m 2.078125,-1.9375 c 0.21875,0.046875 1.03125,0.203125 1.03125,0.921875 0,0.5 -0.34375,0.90625 -1.125,0.90625 -0.84375,0 -1.203125,-0.5625 -1.390625,-1.421875 C 0.5625,-1.65625 0.5625,-1.6875 0.453125,-1.6875 c -0.125,0 -0.125,0.0625 -0.125,0.234375 V -0.125 c 0,0.171875 0,0.234375 0.109375,0.234375 0.046875,0 0.0625,-0.015625 0.25,-0.203125 0.015625,-0.015625 0.015625,-0.03125 0.203125,-0.21875 0.4375,0.40625 0.890625,0.421875 1.09375,0.421875 1.140625,0 1.609375,-0.671875 1.609375,-1.390625 0,-0.515625 -0.296875,-0.828125 -0.421875,-0.9375 C 2.84375,-2.546875 2.453125,-2.625 2.03125,-2.703125 1.46875,-2.8125 0.8125,-2.9375 0.8125,-3.515625 c 0,-0.359375 0.25,-0.765625 1.109375,-0.765625 1.09375,0 1.15625,0.90625 1.171875,1.203125 0,0.09375 0.09375,0.09375 0.109375,0.09375 0.140625,0 0.140625,-0.046875 0.140625,-0.234375 v -1.015625 c 0,-0.15625 0,-0.234375 -0.109375,-0.234375 -0.046875,0 -0.078125,0 -0.203125,0.125 -0.03125,0.03125 -0.125,0.125 -0.171875,0.15625 -0.375,-0.28125 -0.78125,-0.28125 -0.9375,-0.28125 -1.21875,0 -1.59375,0.671875 -1.59375,1.234375 0,0.34375 0.15625,0.625 0.421875,0.84375 0.328125,0.25 0.609375,0.3125 1.328125,0.453125 z m 0,0"
                   style="stroke:none"
                   inkscape:connector-curvature="0" />
              </symbol>
              <symbol
                 id="lx-text8909-glyph0-7"
                 overflow="visible"
                 style="overflow:visible">
                <path
                   id="path9031"
                   d="M 1.09375,-3.421875 V -0.75 c 0,0.4375 -0.109375,0.4375 -0.78125,0.4375 V 0 c 0.359375,-0.015625 0.859375,-0.03125 1.140625,-0.03125 0.25,0 0.765625,0.015625 1.109375,0.03125 v -0.3125 c -0.671875,0 -0.78125,0 -0.78125,-0.4375 V -2.59375 C 1.78125,-3.625 2.5,-4.1875 3.125,-4.1875 c 0.640625,0 0.75,0.53125 0.75,1.109375 V -0.75 c 0,0.4375 -0.109375,0.4375 -0.78125,0.4375 V 0 c 0.34375,-0.015625 0.859375,-0.03125 1.125,-0.03125 0.25,0 0.78125,0.015625 1.109375,0.03125 v -0.3125 c -0.65625,0 -0.765625,0 -0.765625,-0.4375 v -1.84375 c 0,-1.03125 0.703125,-1.59375 1.34375,-1.59375 0.625,0 0.734375,0.53125 0.734375,1.109375 V -0.75 c 0,0.4375 -0.109375,0.4375 -0.78125,0.4375 V 0 c 0.34375,-0.015625 0.859375,-0.03125 1.125,-0.03125 0.265625,0 0.78125,0.015625 1.125,0.03125 v -0.3125 c -0.515625,0 -0.765625,0 -0.78125,-0.296875 v -1.90625 c 0,-0.859375 0,-1.15625 -0.3125,-1.515625 -0.140625,-0.171875 -0.46875,-0.375 -1.046875,-0.375 -0.828125,0 -1.28125,0.59375 -1.4375,0.984375 C 4.390625,-4.296875 3.65625,-4.40625 3.203125,-4.40625 2.46875,-4.40625 2,-3.984375 1.71875,-3.359375 V -4.40625 L 0.3125,-4.296875 v 0.3125 c 0.703125,0 0.78125,0.0625 0.78125,0.5625 z m 0,0"
                   style="stroke:none"
                   inkscape:connector-curvature="0" />
              </symbol>
              <symbol
                 id="lx-text8909-glyph0-8"
                 overflow="visible"
                 style="overflow:visible">
                <path
                   id="path9034"
                   d="m 1.71875,-3.75 v -0.65625 l -1.4375,0.109375 v 0.3125 c 0.703125,0 0.78125,0.0625 0.78125,0.5 v 4.65625 C 1.0625,1.625 0.953125,1.625 0.28125,1.625 V 1.9375 C 0.625,1.921875 1.140625,1.90625 1.390625,1.90625 c 0.28125,0 0.78125,0.015625 1.125,0.03125 V 1.625 C 1.859375,1.625 1.75,1.625 1.75,1.171875 V -0.59375 c 0.046875,0.171875 0.46875,0.703125 1.21875,0.703125 1.1875,0 2.21875,-0.984375 2.21875,-2.265625 0,-1.265625 -0.953125,-2.25 -2.078125,-2.25 -0.78125,0 -1.203125,0.4375 -1.390625,0.65625 z M 1.75,-1.140625 v -2.21875 C 2.03125,-3.875 2.515625,-4.15625 3.03125,-4.15625 c 0.734375,0 1.328125,0.875 1.328125,2 0,1.203125 -0.6875,2.046875 -1.421875,2.046875 -0.40625,0 -0.78125,-0.203125 -1.046875,-0.609375 C 1.75,-0.921875 1.75,-0.9375 1.75,-1.140625 Z m 0,0"
                   style="stroke:none"
                   inkscape:connector-curvature="0" />
              </symbol>
              <symbol
                 id="lx-text8909-glyph0-9"
                 overflow="visible"
                 style="overflow:visible">
                <path
                   id="path9037"
                   d="M 1.765625,-6.921875 0.328125,-6.8125 V -6.5 c 0.703125,0 0.78125,0.0625 0.78125,0.5625 V -0.75 c 0,0.4375 -0.109375,0.4375 -0.78125,0.4375 V 0 C 0.65625,-0.015625 1.1875,-0.03125 1.4375,-0.03125 c 0.25,0 0.734375,0.015625 1.109375,0.03125 v -0.3125 c -0.671875,0 -0.78125,0 -0.78125,-0.4375 z m 0,0"
                   style="stroke:none"
                   inkscape:connector-curvature="0" />
              </symbol>
              <symbol
                 id="lx-text8909-glyph0-10"
                 overflow="visible"
                 style="overflow:visible">
                <path
                   id="path9040"
                   d="M 1.109375,-2.515625 C 1.171875,-4 2.015625,-4.25 2.359375,-4.25 c 1.015625,0 1.125,1.34375 1.125,1.734375 z m 0,0.21875 h 2.78125 c 0.21875,0 0.25,0 0.25,-0.21875 0,-0.984375 -0.546875,-1.953125 -1.78125,-1.953125 -1.15625,0 -2.078125,1.03125 -2.078125,2.28125 0,1.328125 1.046875,2.296875 2.1875,2.296875 C 3.6875,0.109375 4.140625,-1 4.140625,-1.1875 4.140625,-1.28125 4.0625,-1.3125 4,-1.3125 c -0.078125,0 -0.109375,0.0625 -0.125,0.140625 -0.34375,1.03125 -1.25,1.03125 -1.34375,1.03125 -0.5,0 -0.890625,-0.296875 -1.125,-0.671875 -0.296875,-0.46875 -0.296875,-1.125 -0.296875,-1.484375 z m 0,0"
                   style="stroke:none"
                   inkscape:connector-curvature="0" />
              </symbol>
            </g>
          </defs>
          <g
             id="lx-text8909-surface1">
            <g
               id="g9051"
               style="fill:#000000;fill-opacity:1">
              <use
                 id="use9047"
                 y="0"
                 x="0"
                 xlink:href="#lx-text8909-glyph0-1"
                 width="100%"
                 height="100%" />
              <use
                 id="use9049"
                 y="0"
                 x="3.9023499"
                 xlink:href="#lx-text8909-glyph0-2"
                 width="100%"
                 height="100%" />
            </g>
            <g
               id="g9055"
               style="fill:#000000;fill-opacity:1">
              <use
                 id="use9053"
                 y="0"
                 x="8.6046982"
                 xlink:href="#lx-text8909-glyph0-3"
                 width="100%"
                 height="100%" />
            </g>
            <g
               id="g9065"
               style="fill:#000000;fill-opacity:1">
              <use
                 id="use9057"
                 y="0"
                 x="19.127195"
                 xlink:href="#lx-text8909-glyph0-4"
                 width="100%"
                 height="100%" />
              <use
                 id="use9059"
                 y="0"
                 x="24.662416"
                 xlink:href="#lx-text8909-glyph0-2"
                 width="100%"
                 height="100%" />
              <use
                 id="use9061"
                 y="0"
                 x="29.643717"
                 xlink:href="#lx-text8909-glyph0-5"
                 width="100%"
                 height="100%" />
              <use
                 id="use9063"
                 y="0"
                 x="33.518169"
                 xlink:href="#lx-text8909-glyph0-2"
                 width="100%"
                 height="100%" />
            </g>
            <g
               id="g9079"
               style="fill:#000000;fill-opacity:1">
              <use
                 id="use9067"
                 y="0"
                 x="41.817017"
                 xlink:href="#lx-text8909-glyph0-6"
                 width="100%"
                 height="100%" />
              <use
                 id="use9069"
                 y="0"
                 x="45.746265"
                 xlink:href="#lx-text8909-glyph0-2"
                 width="100%"
                 height="100%" />
              <use
                 id="use9071"
                 y="0"
                 x="50.727566"
                 xlink:href="#lx-text8909-glyph0-7"
                 width="100%"
                 height="100%" />
              <use
                 id="use9073"
                 y="0"
                 x="59.0294"
                 xlink:href="#lx-text8909-glyph0-8"
                 width="100%"
                 height="100%" />
              <use
                 id="use9075"
                 y="0"
                 x="64.564621"
                 xlink:href="#lx-text8909-glyph0-9"
                 width="100%"
                 height="100%" />
              <use
                 id="use9077"
                 y="0"
                 x="67.33223"
                 xlink:href="#lx-text8909-glyph0-10"
                 width="100%"
                 height="100%" />
            </g>
          </g>
        </g>
        <g
           id="lx-text8909-3"
           transform="matrix(0.352778,0,0,0.352778,147.43504,50.954117)">
          <defs
             id="defs9121">
            <g
               id="g9119">
              <symbol
                 id="lx-text8909-3-glyph0-0"
                 overflow="visible"
                 style="overflow:visible">
                <path
                   id="path9083"
                   d=""
                   style="stroke:none"
                   inkscape:connector-curvature="0" />
              </symbol>
              <symbol
                 id="lx-text8909-3-glyph0-1"
                 overflow="visible"
                 style="overflow:visible">
                <path
                   id="path9086"
                   d="m 1.71875,-3.75 v -0.65625 l -1.4375,0.109375 v 0.3125 c 0.703125,0 0.78125,0.0625 0.78125,0.5 v 4.65625 C 1.0625,1.625 0.953125,1.625 0.28125,1.625 V 1.9375 C 0.625,1.921875 1.140625,1.90625 1.390625,1.90625 c 0.28125,0 0.78125,0.015625 1.125,0.03125 V 1.625 C 1.859375,1.625 1.75,1.625 1.75,1.171875 V -0.59375 c 0.046875,0.171875 0.46875,0.703125 1.21875,0.703125 1.1875,0 2.21875,-0.984375 2.21875,-2.265625 0,-1.265625 -0.953125,-2.25 -2.078125,-2.25 -0.78125,0 -1.203125,0.4375 -1.390625,0.65625 z M 1.75,-1.140625 v -2.21875 C 2.03125,-3.875 2.515625,-4.15625 3.03125,-4.15625 c 0.734375,0 1.328125,0.875 1.328125,2 0,1.203125 -0.6875,2.046875 -1.421875,2.046875 -0.40625,0 -0.78125,-0.203125 -1.046875,-0.609375 C 1.75,-0.921875 1.75,-0.9375 1.75,-1.140625 Z m 0,0"
                   style="stroke:none"
                   inkscape:connector-curvature="0" />
              </symbol>
              <symbol
                 id="lx-text8909-3-glyph0-2"
                 overflow="visible"
                 style="overflow:visible">
                <path
                   id="path9089"
                   d="M 1.671875,-3.3125 V -4.40625 L 0.28125,-4.296875 v 0.3125 c 0.703125,0 0.78125,0.0625 0.78125,0.5625 V -0.75 c 0,0.4375 -0.109375,0.4375 -0.78125,0.4375 V 0 c 0.390625,-0.015625 0.859375,-0.03125 1.140625,-0.03125 0.390625,0 0.859375,0 1.265625,0.03125 V -0.3125 H 2.46875 c -0.734375,0 -0.75,-0.109375 -0.75,-0.46875 V -2.3125 c 0,-0.984375 0.421875,-1.875 1.171875,-1.875 0.0625,0 0.09375,0 0.109375,0.015625 -0.03125,0 -0.234375,0.125 -0.234375,0.390625 0,0.265625 0.21875,0.421875 0.4375,0.421875 0.171875,0 0.421875,-0.125 0.421875,-0.4375 0,-0.3125 -0.3125,-0.609375 -0.734375,-0.609375 -0.734375,0 -1.09375,0.671875 -1.21875,1.09375 z m 0,0"
                   style="stroke:none"
                   inkscape:connector-curvature="0" />
              </symbol>
              <symbol
                 id="lx-text8909-3-glyph0-3"
                 overflow="visible"
                 style="overflow:visible">
                <path
                   id="path9092"
                   d="M 1.109375,-2.515625 C 1.171875,-4 2.015625,-4.25 2.359375,-4.25 c 1.015625,0 1.125,1.34375 1.125,1.734375 z m 0,0.21875 h 2.78125 c 0.21875,0 0.25,0 0.25,-0.21875 0,-0.984375 -0.546875,-1.953125 -1.78125,-1.953125 -1.15625,0 -2.078125,1.03125 -2.078125,2.28125 0,1.328125 1.046875,2.296875 2.1875,2.296875 C 3.6875,0.109375 4.140625,-1 4.140625,-1.1875 4.140625,-1.28125 4.0625,-1.3125 4,-1.3125 c -0.078125,0 -0.109375,0.0625 -0.125,0.140625 -0.34375,1.03125 -1.25,1.03125 -1.34375,1.03125 -0.5,0 -0.890625,-0.296875 -1.125,-0.671875 -0.296875,-0.46875 -0.296875,-1.125 -0.296875,-1.484375 z m 0,0"
                   style="stroke:none"
                   inkscape:connector-curvature="0" />
              </symbol>
              <symbol
                 id="lx-text8909-3-glyph0-4"
                 overflow="visible"
                 style="overflow:visible">
                <path
                   id="path9095"
                   d="M 4.6875,-2.140625 C 4.6875,-3.40625 3.703125,-4.46875 2.5,-4.46875 c -1.25,0 -2.21875,1.09375 -2.21875,2.328125 0,1.296875 1.03125,2.25 2.203125,2.25 1.203125,0 2.203125,-0.984375 2.203125,-2.25 z m -2.1875,2 c -0.4375,0 -0.875,-0.203125 -1.140625,-0.671875 -0.25,-0.4375 -0.25,-1.046875 -0.25,-1.40625 0,-0.390625 0,-0.921875 0.234375,-1.359375 C 1.609375,-4.03125 2.078125,-4.25 2.484375,-4.25 c 0.4375,0 0.859375,0.21875 1.125,0.65625 0.265625,0.421875 0.265625,1 0.265625,1.375 0,0.359375 0,0.90625 -0.21875,1.34375 C 3.421875,-0.421875 2.984375,-0.140625 2.5,-0.140625 Z m 0,0"
                   style="stroke:none"
                   inkscape:connector-curvature="0" />
              </symbol>
              <symbol
                 id="lx-text8909-3-glyph0-5"
                 overflow="visible"
                 style="overflow:visible">
                <path
                   id="path9098"
                   d="m 1.171875,-2.171875 c 0,-1.625 0.8125,-2.046875 1.34375,-2.046875 0.09375,0 0.71875,0.015625 1.0625,0.375 -0.40625,0.03125 -0.46875,0.328125 -0.46875,0.453125 0,0.265625 0.1875,0.453125 0.453125,0.453125 0.265625,0 0.46875,-0.15625 0.46875,-0.46875 0,-0.671875 -0.765625,-1.0625 -1.53125,-1.0625 -1.25,0 -2.15625,1.078125 -2.15625,2.3125 0,1.28125 0.984375,2.265625 2.140625,2.265625 1.328125,0 1.65625,-1.203125 1.65625,-1.296875 0,-0.09375 -0.109375,-0.09375 -0.140625,-0.09375 -0.078125,0 -0.109375,0.03125 -0.125,0.09375 -0.28125,0.921875 -0.9375,1.046875 -1.296875,1.046875 -0.53125,0 -1.40625,-0.421875 -1.40625,-2.03125 z m 0,0"
                   style="stroke:none"
                   inkscape:connector-curvature="0" />
              </symbol>
              <symbol
                 id="lx-text8909-3-glyph0-6"
                 overflow="visible"
                 style="overflow:visible">
                <path
                   id="path9101"
                   d="m 2.078125,-1.9375 c 0.21875,0.046875 1.03125,0.203125 1.03125,0.921875 0,0.5 -0.34375,0.90625 -1.125,0.90625 -0.84375,0 -1.203125,-0.5625 -1.390625,-1.421875 C 0.5625,-1.65625 0.5625,-1.6875 0.453125,-1.6875 c -0.125,0 -0.125,0.0625 -0.125,0.234375 V -0.125 c 0,0.171875 0,0.234375 0.109375,0.234375 0.046875,0 0.0625,-0.015625 0.25,-0.203125 0.015625,-0.015625 0.015625,-0.03125 0.203125,-0.21875 0.4375,0.40625 0.890625,0.421875 1.09375,0.421875 1.140625,0 1.609375,-0.671875 1.609375,-1.390625 0,-0.515625 -0.296875,-0.828125 -0.421875,-0.9375 C 2.84375,-2.546875 2.453125,-2.625 2.03125,-2.703125 1.46875,-2.8125 0.8125,-2.9375 0.8125,-3.515625 c 0,-0.359375 0.25,-0.765625 1.109375,-0.765625 1.09375,0 1.15625,0.90625 1.171875,1.203125 0,0.09375 0.09375,0.09375 0.109375,0.09375 0.140625,0 0.140625,-0.046875 0.140625,-0.234375 v -1.015625 c 0,-0.15625 0,-0.234375 -0.109375,-0.234375 -0.046875,0 -0.078125,0 -0.203125,0.125 -0.03125,0.03125 -0.125,0.125 -0.171875,0.15625 -0.375,-0.28125 -0.78125,-0.28125 -0.9375,-0.28125 -1.21875,0 -1.59375,0.671875 -1.59375,1.234375 0,0.34375 0.15625,0.625 0.421875,0.84375 0.328125,0.25 0.609375,0.3125 1.328125,0.453125 z m 0,0"
                   style="stroke:none"
                   inkscape:connector-curvature="0" />
              </symbol>
              <symbol
                 id="lx-text8909-3-glyph0-7"
                 overflow="visible"
                 style="overflow:visible">
                <path
                   id="path9104"
                   d="m 3.78125,-0.546875 v 0.65625 L 5.25,0 v -0.3125 c -0.6875,0 -0.78125,-0.0625 -0.78125,-0.5625 V -6.921875 L 3.046875,-6.8125 V -6.5 c 0.6875,0 0.765625,0.0625 0.765625,0.5625 v 2.15625 c -0.28125,-0.359375 -0.71875,-0.625 -1.25,-0.625 -1.171875,0 -2.21875,0.984375 -2.21875,2.265625 0,1.265625 0.96875,2.25 2.109375,2.25 0.640625,0 1.078125,-0.34375 1.328125,-0.65625 z m 0,-2.671875 v 2.046875 c 0,0.171875 0,0.1875 -0.109375,0.359375 C 3.375,-0.328125 2.9375,-0.109375 2.5,-0.109375 2.046875,-0.109375 1.6875,-0.375 1.453125,-0.75 1.203125,-1.15625 1.171875,-1.71875 1.171875,-2.140625 1.171875,-2.5 1.1875,-3.09375 1.46875,-3.546875 1.6875,-3.859375 2.0625,-4.1875 2.609375,-4.1875 c 0.34375,0 0.765625,0.15625 1.0625,0.59375 0.109375,0.171875 0.109375,0.1875 0.109375,0.375 z m 0,0"
                   style="stroke:none"
                   inkscape:connector-curvature="0" />
              </symbol>
              <symbol
                 id="lx-text8909-3-glyph0-8"
                 overflow="visible"
                 style="overflow:visible">
                <path
                   id="path9107"
                   d="m 3.3125,-0.75 c 0.046875,0.390625 0.3125,0.8125 0.78125,0.8125 0.21875,0 0.828125,-0.140625 0.828125,-0.953125 v -0.5625 h -0.25 v 0.5625 c 0,0.578125 -0.25,0.640625 -0.359375,0.640625 -0.328125,0 -0.375,-0.453125 -0.375,-0.5 v -1.984375 c 0,-0.421875 0,-0.8125 -0.359375,-1.1875 C 3.1875,-4.3125 2.6875,-4.46875 2.21875,-4.46875 c -0.828125,0 -1.515625,0.46875 -1.515625,1.125 0,0.296875 0.203125,0.46875 0.46875,0.46875 0.28125,0 0.453125,-0.203125 0.453125,-0.453125 0,-0.125 -0.046875,-0.453125 -0.515625,-0.453125 C 1.390625,-4.140625 1.875,-4.25 2.1875,-4.25 c 0.5,0 1.0625,0.390625 1.0625,1.28125 v 0.359375 c -0.515625,0.03125 -1.203125,0.0625 -1.828125,0.359375 -0.75,0.34375 -1,0.859375 -1,1.296875 0,0.8125 0.96875,1.0625 1.59375,1.0625 0.65625,0 1.109375,-0.40625 1.296875,-0.859375 z M 3.25,-2.390625 v 1 c 0,0.9375 -0.71875,1.28125 -1.171875,1.28125 -0.484375,0 -0.890625,-0.34375 -0.890625,-0.84375 0,-0.546875 0.421875,-1.375 2.0625,-1.4375 z m 0,0"
                   style="stroke:none"
                   inkscape:connector-curvature="0" />
              </symbol>
              <symbol
                 id="lx-text8909-3-glyph0-9"
                 overflow="visible"
                 style="overflow:visible">
                <path
                   id="path9110"
                   d="m 1.71875,-3.984375 h 1.4375 v -0.3125 H 1.71875 V -6.125 h -0.25 c 0,0.8125 -0.296875,1.875 -1.28125,1.921875 v 0.21875 h 0.84375 v 2.75 c 0,1.21875 0.9375,1.34375 1.296875,1.34375 0.703125,0 0.984375,-0.703125 0.984375,-1.34375 v -0.5625 h -0.25 V -1.25 c 0,0.734375 -0.296875,1.109375 -0.671875,1.109375 -0.671875,0 -0.671875,-0.90625 -0.671875,-1.078125 z m 0,0"
                   style="stroke:none"
                   inkscape:connector-curvature="0" />
              </symbol>
              <symbol
                 id="lx-text8909-3-glyph0-10"
                 overflow="visible"
                 style="overflow:visible">
                <path
                   id="path9113"
                   d="M 1.09375,-3.421875 V -0.75 c 0,0.4375 -0.109375,0.4375 -0.78125,0.4375 V 0 c 0.359375,-0.015625 0.859375,-0.03125 1.140625,-0.03125 0.25,0 0.765625,0.015625 1.109375,0.03125 v -0.3125 c -0.671875,0 -0.78125,0 -0.78125,-0.4375 V -2.59375 C 1.78125,-3.625 2.5,-4.1875 3.125,-4.1875 c 0.640625,0 0.75,0.53125 0.75,1.109375 V -0.75 c 0,0.4375 -0.109375,0.4375 -0.78125,0.4375 V 0 c 0.34375,-0.015625 0.859375,-0.03125 1.125,-0.03125 0.25,0 0.78125,0.015625 1.109375,0.03125 v -0.3125 c -0.65625,0 -0.765625,0 -0.765625,-0.4375 v -1.84375 c 0,-1.03125 0.703125,-1.59375 1.34375,-1.59375 0.625,0 0.734375,0.53125 0.734375,1.109375 V -0.75 c 0,0.4375 -0.109375,0.4375 -0.78125,0.4375 V 0 c 0.34375,-0.015625 0.859375,-0.03125 1.125,-0.03125 0.265625,0 0.78125,0.015625 1.125,0.03125 v -0.3125 c -0.515625,0 -0.765625,0 -0.78125,-0.296875 v -1.90625 c 0,-0.859375 0,-1.15625 -0.3125,-1.515625 -0.140625,-0.171875 -0.46875,-0.375 -1.046875,-0.375 -0.828125,0 -1.28125,0.59375 -1.4375,0.984375 C 4.390625,-4.296875 3.65625,-4.40625 3.203125,-4.40625 2.46875,-4.40625 2,-3.984375 1.71875,-3.359375 V -4.40625 L 0.3125,-4.296875 v 0.3125 c 0.703125,0 0.78125,0.0625 0.78125,0.5625 z m 0,0"
                   style="stroke:none"
                   inkscape:connector-curvature="0" />
              </symbol>
              <symbol
                 id="lx-text8909-3-glyph0-11"
                 overflow="visible"
                 style="overflow:visible">
                <path
                   id="path9116"
                   d="M 1.765625,-6.921875 0.328125,-6.8125 V -6.5 c 0.703125,0 0.78125,0.0625 0.78125,0.5625 V -0.75 c 0,0.4375 -0.109375,0.4375 -0.78125,0.4375 V 0 C 0.65625,-0.015625 1.1875,-0.03125 1.4375,-0.03125 c 0.25,0 0.734375,0.015625 1.109375,0.03125 v -0.3125 c -0.671875,0 -0.78125,0 -0.78125,-0.4375 z m 0,0"
                   style="stroke:none"
                   inkscape:connector-curvature="0" />
              </symbol>
            </g>
          </defs>
          <g
             id="lx-text8909-3-surface1">
            <g
               id="g9135"
               style="fill:#000000;fill-opacity:1">
              <use
                 id="use9123"
                 y="0"
                 x="0"
                 xlink:href="#lx-text8909-3-glyph0-1"
                 width="100%"
                 height="100%" />
              <use
                 id="use9125"
                 y="0"
                 x="5.5352211"
                 xlink:href="#lx-text8909-3-glyph0-2"
                 width="100%"
                 height="100%" />
              <use
                 id="use9127"
                 y="0"
                 x="9.4375706"
                 xlink:href="#lx-text8909-3-glyph0-3"
                 width="100%"
                 height="100%" />
              <use
                 id="use9129"
                 y="0"
                 x="13.86495"
                 xlink:href="#lx-text8909-3-glyph0-1"
                 width="100%"
                 height="100%" />
              <use
                 id="use9131"
                 y="0"
                 x="19.400171"
                 xlink:href="#lx-text8909-3-glyph0-2"
                 width="100%"
                 height="100%" />
              <use
                 id="use9133"
                 y="0"
                 x="23.302521"
                 xlink:href="#lx-text8909-3-glyph0-4"
                 width="100%"
                 height="100%" />
            </g>
            <g
               id="g9149"
               style="fill:#000000;fill-opacity:1">
              <use
                 id="use9137"
                 y="0"
                 x="28.562775"
                 xlink:href="#lx-text8909-3-glyph0-5"
                 width="100%"
                 height="100%" />
              <use
                 id="use9139"
                 y="0"
                 x="32.990154"
                 xlink:href="#lx-text8909-3-glyph0-3"
                 width="100%"
                 height="100%" />
              <use
                 id="use9141"
                 y="0"
                 x="37.417534"
                 xlink:href="#lx-text8909-3-glyph0-6"
                 width="100%"
                 height="100%" />
              <use
                 id="use9143"
                 y="0"
                 x="41.346783"
                 xlink:href="#lx-text8909-3-glyph0-6"
                 width="100%"
                 height="100%" />
              <use
                 id="use9145"
                 y="0"
                 x="45.276031"
                 xlink:href="#lx-text8909-3-glyph0-3"
                 width="100%"
                 height="100%" />
              <use
                 id="use9147"
                 y="0"
                 x="49.703411"
                 xlink:href="#lx-text8909-3-glyph0-7"
                 width="100%"
                 height="100%" />
            </g>
            <g
               id="g9159"
               style="fill:#000000;fill-opacity:1">
              <use
                 id="use9151"
                 y="0"
                 x="58.556179"
                 xlink:href="#lx-text8909-3-glyph0-7"
                 width="100%"
                 height="100%" />
              <use
                 id="use9153"
                 y="0"
                 x="64.0914"
                 xlink:href="#lx-text8909-3-glyph0-8"
                 width="100%"
                 height="100%" />
              <use
                 id="use9155"
                 y="0"
                 x="69.072701"
                 xlink:href="#lx-text8909-3-glyph0-9"
                 width="100%"
                 height="100%" />
              <use
                 id="use9157"
                 y="0"
                 x="72.947151"
                 xlink:href="#lx-text8909-3-glyph0-8"
                 width="100%"
                 height="100%" />
            </g>
            <g
               id="g9173"
               style="fill:#000000;fill-opacity:1">
              <use
                 id="use9161"
                 y="0"
                 x="81.255959"
                 xlink:href="#lx-text8909-3-glyph0-6"
                 width="100%"
                 height="100%" />
              <use
                 id="use9163"
                 y="0"
                 x="85.185211"
                 xlink:href="#lx-text8909-3-glyph0-8"
                 width="100%"
                 height="100%" />
              <use
                 id="use9165"
                 y="0"
                 x="90.166512"
                 xlink:href="#lx-text8909-3-glyph0-10"
                 width="100%"
                 height="100%" />
              <use
                 id="use9167"
                 y="0"
                 x="98.468346"
                 xlink:href="#lx-text8909-3-glyph0-1"
                 width="100%"
                 height="100%" />
              <use
                 id="use9169"
                 y="0"
                 x="104.00356"
                 xlink:href="#lx-text8909-3-glyph0-11"
                 width="100%"
                 height="100%" />
              <use
                 id="use9171"
                 y="0"
                 x="106.77118"
                 xlink:href="#lx-text8909-3-glyph0-3"
                 width="100%"
                 height="100%" />
            </g>
          </g>
        </g>
        <g
           id="lx-text8909-3-7"
           transform="matrix(0,-0.352778,0.352778,0,84.544464,86.130243)">
          <defs
             id="defs9221">
            <g
               id="g9219">
              <symbol
                 id="lx-text8909-3-7-glyph0-0"
                 overflow="visible"
                 style="overflow:visible">
                <path
                   id="path9177"
                   d=""
                   style="stroke:none"
                   inkscape:connector-curvature="0" />
              </symbol>
              <symbol
                 id="lx-text8909-3-7-glyph0-1"
                 overflow="visible"
                 style="overflow:visible">
                <path
                   id="path9180"
                   d="m 1.09375,-0.75 c 0,0.4375 -0.109375,0.4375 -0.78125,0.4375 V 0 c 0.359375,-0.015625 0.859375,-0.03125 1.140625,-0.03125 0.25,0 0.765625,0.015625 1.109375,0.03125 v -0.3125 c -0.671875,0 -0.78125,0 -0.78125,-0.4375 V -2.59375 C 1.78125,-3.625 2.5,-4.1875 3.125,-4.1875 c 0.640625,0 0.75,0.53125 0.75,1.109375 V -0.75 c 0,0.4375 -0.109375,0.4375 -0.78125,0.4375 V 0 c 0.34375,-0.015625 0.859375,-0.03125 1.125,-0.03125 0.25,0 0.78125,0.015625 1.109375,0.03125 v -0.3125 c -0.515625,0 -0.765625,0 -0.765625,-0.296875 v -1.90625 c 0,-0.859375 0,-1.15625 -0.3125,-1.515625 -0.140625,-0.171875 -0.46875,-0.375 -1.046875,-0.375 -0.84375,0 -1.28125,0.59375 -1.453125,0.984375 v -3.5 L 0.3125,-6.8125 V -6.5 c 0.703125,0 0.78125,0.0625 0.78125,0.5625 z m 0,0"
                   style="stroke:none"
                   inkscape:connector-curvature="0" />
              </symbol>
              <symbol
                 id="lx-text8909-3-7-glyph0-2"
                 overflow="visible"
                 style="overflow:visible">
                <path
                   id="path9183"
                   d="M 4.6875,-2.140625 C 4.6875,-3.40625 3.703125,-4.46875 2.5,-4.46875 c -1.25,0 -2.21875,1.09375 -2.21875,2.328125 0,1.296875 1.03125,2.25 2.203125,2.25 1.203125,0 2.203125,-0.984375 2.203125,-2.25 z m -2.1875,2 c -0.4375,0 -0.875,-0.203125 -1.140625,-0.671875 -0.25,-0.4375 -0.25,-1.046875 -0.25,-1.40625 0,-0.390625 0,-0.921875 0.234375,-1.359375 C 1.609375,-4.03125 2.078125,-4.25 2.484375,-4.25 c 0.4375,0 0.859375,0.21875 1.125,0.65625 0.265625,0.421875 0.265625,1 0.265625,1.375 0,0.359375 0,0.90625 -0.21875,1.34375 C 3.421875,-0.421875 2.984375,-0.140625 2.5,-0.140625 Z m 0,0"
                   style="stroke:none"
                   inkscape:connector-curvature="0" />
              </symbol>
              <symbol
                 id="lx-text8909-3-7-glyph0-3"
                 overflow="visible"
                 style="overflow:visible">
                <path
                   id="path9186"
                   d="M 1.671875,-3.3125 V -4.40625 L 0.28125,-4.296875 v 0.3125 c 0.703125,0 0.78125,0.0625 0.78125,0.5625 V -0.75 c 0,0.4375 -0.109375,0.4375 -0.78125,0.4375 V 0 c 0.390625,-0.015625 0.859375,-0.03125 1.140625,-0.03125 0.390625,0 0.859375,0 1.265625,0.03125 V -0.3125 H 2.46875 c -0.734375,0 -0.75,-0.109375 -0.75,-0.46875 V -2.3125 c 0,-0.984375 0.421875,-1.875 1.171875,-1.875 0.0625,0 0.09375,0 0.109375,0.015625 -0.03125,0 -0.234375,0.125 -0.234375,0.390625 0,0.265625 0.21875,0.421875 0.4375,0.421875 0.171875,0 0.421875,-0.125 0.421875,-0.4375 0,-0.3125 -0.3125,-0.609375 -0.734375,-0.609375 -0.734375,0 -1.09375,0.671875 -1.21875,1.09375 z m 0,0"
                   style="stroke:none"
                   inkscape:connector-curvature="0" />
              </symbol>
              <symbol
                 id="lx-text8909-3-7-glyph0-4"
                 overflow="visible"
                 style="overflow:visible">
                <path
                   id="path9189"
                   d="M 1.765625,-4.40625 0.375,-4.296875 v 0.3125 c 0.640625,0 0.734375,0.0625 0.734375,0.546875 V -0.75 c 0,0.4375 -0.109375,0.4375 -0.78125,0.4375 V 0 C 0.640625,-0.015625 1.1875,-0.03125 1.421875,-0.03125 1.78125,-0.03125 2.125,-0.015625 2.46875,0 v -0.3125 c -0.671875,0 -0.703125,-0.046875 -0.703125,-0.4375 z m 0.03125,-1.734375 c 0,-0.3125 -0.234375,-0.53125 -0.515625,-0.53125 -0.3125,0 -0.53125,0.265625 -0.53125,0.53125 0,0.265625 0.21875,0.53125 0.53125,0.53125 0.28125,0 0.515625,-0.21875 0.515625,-0.53125 z m 0,0"
                   style="stroke:none"
                   inkscape:connector-curvature="0" />
              </symbol>
              <symbol
                 id="lx-text8909-3-7-glyph0-5"
                 overflow="visible"
                 style="overflow:visible">
                <path
                   id="path9192"
                   d="m 3.890625,-4 c 0.09375,-0.109375 0.09375,-0.125 0.09375,-0.171875 0,-0.125 -0.09375,-0.125 -0.265625,-0.125 H 0.53125 L 0.421875,-2.6875 h 0.25 c 0.0625,-1.015625 0.25,-1.390625 1.34375,-1.390625 H 3.15625 L 0.375,-0.3125 C 0.28125,-0.203125 0.28125,-0.1875 0.28125,-0.140625 0.28125,0 0.34375,0 0.53125,0 H 3.828125 L 4,-1.859375 H 3.75 C 3.65625,-0.6875 3.453125,-0.25 2.296875,-0.25 h -1.1875 z m 0,0"
                   style="stroke:none"
                   inkscape:connector-curvature="0" />
              </symbol>
              <symbol
                 id="lx-text8909-3-7-glyph0-6"
                 overflow="visible"
                 style="overflow:visible">
                <path
                   id="path9195"
                   d="M 1.09375,-3.421875 V -0.75 c 0,0.4375 -0.109375,0.4375 -0.78125,0.4375 V 0 c 0.359375,-0.015625 0.859375,-0.03125 1.140625,-0.03125 0.25,0 0.765625,0.015625 1.109375,0.03125 v -0.3125 c -0.671875,0 -0.78125,0 -0.78125,-0.4375 V -2.59375 C 1.78125,-3.625 2.5,-4.1875 3.125,-4.1875 c 0.640625,0 0.75,0.53125 0.75,1.109375 V -0.75 c 0,0.4375 -0.109375,0.4375 -0.78125,0.4375 V 0 c 0.34375,-0.015625 0.859375,-0.03125 1.125,-0.03125 0.25,0 0.78125,0.015625 1.109375,0.03125 v -0.3125 c -0.515625,0 -0.765625,0 -0.765625,-0.296875 v -1.90625 c 0,-0.859375 0,-1.15625 -0.3125,-1.515625 -0.140625,-0.171875 -0.46875,-0.375 -1.046875,-0.375 C 2.46875,-4.40625 2,-3.984375 1.71875,-3.359375 V -4.40625 L 0.3125,-4.296875 v 0.3125 c 0.703125,0 0.78125,0.0625 0.78125,0.5625 z m 0,0"
                   style="stroke:none"
                   inkscape:connector-curvature="0" />
              </symbol>
              <symbol
                 id="lx-text8909-3-7-glyph0-7"
                 overflow="visible"
                 style="overflow:visible">
                <path
                   id="path9198"
                   d="m 1.71875,-3.984375 h 1.4375 v -0.3125 H 1.71875 V -6.125 h -0.25 c 0,0.8125 -0.296875,1.875 -1.28125,1.921875 v 0.21875 h 0.84375 v 2.75 c 0,1.21875 0.9375,1.34375 1.296875,1.34375 0.703125,0 0.984375,-0.703125 0.984375,-1.34375 v -0.5625 h -0.25 V -1.25 c 0,0.734375 -0.296875,1.109375 -0.671875,1.109375 -0.671875,0 -0.671875,-0.90625 -0.671875,-1.078125 z m 0,0"
                   style="stroke:none"
                   inkscape:connector-curvature="0" />
              </symbol>
              <symbol
                 id="lx-text8909-3-7-glyph0-8"
                 overflow="visible"
                 style="overflow:visible">
                <path
                   id="path9201"
                   d="m 3.3125,-0.75 c 0.046875,0.390625 0.3125,0.8125 0.78125,0.8125 0.21875,0 0.828125,-0.140625 0.828125,-0.953125 v -0.5625 h -0.25 v 0.5625 c 0,0.578125 -0.25,0.640625 -0.359375,0.640625 -0.328125,0 -0.375,-0.453125 -0.375,-0.5 v -1.984375 c 0,-0.421875 0,-0.8125 -0.359375,-1.1875 C 3.1875,-4.3125 2.6875,-4.46875 2.21875,-4.46875 c -0.828125,0 -1.515625,0.46875 -1.515625,1.125 0,0.296875 0.203125,0.46875 0.46875,0.46875 0.28125,0 0.453125,-0.203125 0.453125,-0.453125 0,-0.125 -0.046875,-0.453125 -0.515625,-0.453125 C 1.390625,-4.140625 1.875,-4.25 2.1875,-4.25 c 0.5,0 1.0625,0.390625 1.0625,1.28125 v 0.359375 c -0.515625,0.03125 -1.203125,0.0625 -1.828125,0.359375 -0.75,0.34375 -1,0.859375 -1,1.296875 0,0.8125 0.96875,1.0625 1.59375,1.0625 0.65625,0 1.109375,-0.40625 1.296875,-0.859375 z M 3.25,-2.390625 v 1 c 0,0.9375 -0.71875,1.28125 -1.171875,1.28125 -0.484375,0 -0.890625,-0.34375 -0.890625,-0.84375 0,-0.546875 0.421875,-1.375 2.0625,-1.4375 z m 0,0"
                   style="stroke:none"
                   inkscape:connector-curvature="0" />
              </symbol>
              <symbol
                 id="lx-text8909-3-7-glyph0-9"
                 overflow="visible"
                 style="overflow:visible">
                <path
                   id="path9204"
                   d="M 1.765625,-6.921875 0.328125,-6.8125 V -6.5 c 0.703125,0 0.78125,0.0625 0.78125,0.5625 V -0.75 c 0,0.4375 -0.109375,0.4375 -0.78125,0.4375 V 0 C 0.65625,-0.015625 1.1875,-0.03125 1.4375,-0.03125 c 0.25,0 0.734375,0.015625 1.109375,0.03125 v -0.3125 c -0.671875,0 -0.78125,0 -0.78125,-0.4375 z m 0,0"
                   style="stroke:none"
                   inkscape:connector-curvature="0" />
              </symbol>
              <symbol
                 id="lx-text8909-3-7-glyph0-10"
                 overflow="visible"
                 style="overflow:visible">
                <path
                   id="path9207"
                   d="m 2.21875,-1.71875 c -0.875,0 -0.875,-1 -0.875,-1.21875 0,-0.265625 0.015625,-0.59375 0.15625,-0.84375 0.078125,-0.109375 0.3125,-0.390625 0.71875,-0.390625 0.859375,0 0.859375,0.984375 0.859375,1.21875 0,0.265625 0,0.59375 -0.15625,0.84375 C 2.84375,-2 2.609375,-1.71875 2.21875,-1.71875 Z M 1.0625,-1.328125 c 0,-0.03125 0,-0.265625 0.15625,-0.46875 0.390625,0.28125 0.8125,0.3125 1,0.3125 0.921875,0 1.609375,-0.6875 1.609375,-1.453125 0,-0.375 -0.15625,-0.734375 -0.40625,-0.96875 C 3.78125,-4.25 4.140625,-4.296875 4.3125,-4.296875 c 0.03125,0 0.078125,0 0.109375,0.015625 C 4.3125,-4.25 4.25,-4.140625 4.25,-4.015625 c 0,0.171875 0.140625,0.28125 0.296875,0.28125 0.09375,0 0.28125,-0.0625 0.28125,-0.296875 0,-0.171875 -0.109375,-0.484375 -0.5,-0.484375 -0.203125,0 -0.640625,0.0625 -1.0625,0.46875 C 2.84375,-4.375 2.4375,-4.40625 2.21875,-4.40625 c -0.9375,0 -1.625,0.6875 -1.625,1.453125 0,0.4375 0.21875,0.8125 0.46875,1.03125 -0.125,0.140625 -0.3125,0.46875 -0.3125,0.828125 0,0.3125 0.140625,0.6875 0.453125,0.890625 -0.609375,0.15625 -0.921875,0.59375 -0.921875,0.984375 0,0.71875 0.984375,1.265625 2.203125,1.265625 1.171875,0 2.203125,-0.5 2.203125,-1.28125 0,-0.34375 -0.125,-0.859375 -0.640625,-1.140625 -0.53125,-0.265625 -1.109375,-0.265625 -1.71875,-0.265625 -0.25,0 -0.671875,0 -0.75,-0.015625 C 1.265625,-0.703125 1.0625,-1 1.0625,-1.328125 Z M 2.5,1.828125 c -1.015625,0 -1.703125,-0.515625 -1.703125,-1.046875 0,-0.453125 0.375,-0.828125 0.8125,-0.84375 h 0.59375 c 0.859375,0 1.96875,0 1.96875,0.84375 0,0.546875 -0.703125,1.046875 -1.671875,1.046875 z m 0,0"
                   style="stroke:none"
                   inkscape:connector-curvature="0" />
              </symbol>
              <symbol
                 id="lx-text8909-3-7-glyph0-11"
                 overflow="visible"
                 style="overflow:visible">
                <path
                   id="path9210"
                   d="M 1.109375,-2.515625 C 1.171875,-4 2.015625,-4.25 2.359375,-4.25 c 1.015625,0 1.125,1.34375 1.125,1.734375 z m 0,0.21875 h 2.78125 c 0.21875,0 0.25,0 0.25,-0.21875 0,-0.984375 -0.546875,-1.953125 -1.78125,-1.953125 -1.15625,0 -2.078125,1.03125 -2.078125,2.28125 0,1.328125 1.046875,2.296875 2.1875,2.296875 C 3.6875,0.109375 4.140625,-1 4.140625,-1.1875 4.140625,-1.28125 4.0625,-1.3125 4,-1.3125 c -0.078125,0 -0.109375,0.0625 -0.125,0.140625 -0.34375,1.03125 -1.25,1.03125 -1.34375,1.03125 -0.5,0 -0.890625,-0.296875 -1.125,-0.671875 -0.296875,-0.46875 -0.296875,-1.125 -0.296875,-1.484375 z m 0,0"
                   style="stroke:none"
                   inkscape:connector-curvature="0" />
              </symbol>
              <symbol
                 id="lx-text8909-3-7-glyph0-12"
                 overflow="visible"
                 style="overflow:visible">
                <path
                   id="path9213"
                   d="m 1.71875,-3.75 v -0.65625 l -1.4375,0.109375 v 0.3125 c 0.703125,0 0.78125,0.0625 0.78125,0.5 v 4.65625 C 1.0625,1.625 0.953125,1.625 0.28125,1.625 V 1.9375 C 0.625,1.921875 1.140625,1.90625 1.390625,1.90625 c 0.28125,0 0.78125,0.015625 1.125,0.03125 V 1.625 C 1.859375,1.625 1.75,1.625 1.75,1.171875 V -0.59375 c 0.046875,0.171875 0.46875,0.703125 1.21875,0.703125 1.1875,0 2.21875,-0.984375 2.21875,-2.265625 0,-1.265625 -0.953125,-2.25 -2.078125,-2.25 -0.78125,0 -1.203125,0.4375 -1.390625,0.65625 z M 1.75,-1.140625 v -2.21875 C 2.03125,-3.875 2.515625,-4.15625 3.03125,-4.15625 c 0.734375,0 1.328125,0.875 1.328125,2 0,1.203125 -0.6875,2.046875 -1.421875,2.046875 -0.40625,0 -0.78125,-0.203125 -1.046875,-0.609375 C 1.75,-0.921875 1.75,-0.9375 1.75,-1.140625 Z m 0,0"
                   style="stroke:none"
                   inkscape:connector-curvature="0" />
              </symbol>
              <symbol
                 id="lx-text8909-3-7-glyph0-13"
                 overflow="visible"
                 style="overflow:visible">
                <path
                   id="path9216"
                   d="m 2.078125,-1.9375 c 0.21875,0.046875 1.03125,0.203125 1.03125,0.921875 0,0.5 -0.34375,0.90625 -1.125,0.90625 -0.84375,0 -1.203125,-0.5625 -1.390625,-1.421875 C 0.5625,-1.65625 0.5625,-1.6875 0.453125,-1.6875 c -0.125,0 -0.125,0.0625 -0.125,0.234375 V -0.125 c 0,0.171875 0,0.234375 0.109375,0.234375 0.046875,0 0.0625,-0.015625 0.25,-0.203125 0.015625,-0.015625 0.015625,-0.03125 0.203125,-0.21875 0.4375,0.40625 0.890625,0.421875 1.09375,0.421875 1.140625,0 1.609375,-0.671875 1.609375,-1.390625 0,-0.515625 -0.296875,-0.828125 -0.421875,-0.9375 C 2.84375,-2.546875 2.453125,-2.625 2.03125,-2.703125 1.46875,-2.8125 0.8125,-2.9375 0.8125,-3.515625 c 0,-0.359375 0.25,-0.765625 1.109375,-0.765625 1.09375,0 1.15625,0.90625 1.171875,1.203125 0,0.09375 0.09375,0.09375 0.109375,0.09375 0.140625,0 0.140625,-0.046875 0.140625,-0.234375 v -1.015625 c 0,-0.15625 0,-0.234375 -0.109375,-0.234375 -0.046875,0 -0.078125,0 -0.203125,0.125 -0.03125,0.03125 -0.125,0.125 -0.171875,0.15625 -0.375,-0.28125 -0.78125,-0.28125 -0.9375,-0.28125 -1.21875,0 -1.59375,0.671875 -1.59375,1.234375 0,0.34375 0.15625,0.625 0.421875,0.84375 0.328125,0.25 0.609375,0.3125 1.328125,0.453125 z m 0,0"
                   style="stroke:none"
                   inkscape:connector-curvature="0" />
              </symbol>
            </g>
          </defs>
          <g
             id="lx-text8909-3-7-surface1">
            <g
               id="g9237"
               style="fill:#000000;fill-opacity:1">
              <use
                 id="use9223"
                 y="0"
                 x="0"
                 xlink:href="#lx-text8909-3-7-glyph0-1"
                 width="100%"
                 height="100%" />
              <use
                 id="use9225"
                 y="0"
                 x="5.5352211"
                 xlink:href="#lx-text8909-3-7-glyph0-2"
                 width="100%"
                 height="100%" />
              <use
                 id="use9227"
                 y="0"
                 x="10.516521"
                 xlink:href="#lx-text8909-3-7-glyph0-3"
                 width="100%"
                 height="100%" />
              <use
                 id="use9229"
                 y="0"
                 x="14.418871"
                 xlink:href="#lx-text8909-3-7-glyph0-4"
                 width="100%"
                 height="100%" />
              <use
                 id="use9231"
                 y="0"
                 x="17.186481"
                 xlink:href="#lx-text8909-3-7-glyph0-5"
                 width="100%"
                 height="100%" />
              <use
                 id="use9233"
                 y="0"
                 x="21.613861"
                 xlink:href="#lx-text8909-3-7-glyph0-2"
                 width="100%"
                 height="100%" />
              <use
                 id="use9235"
                 y="0"
                 x="26.595161"
                 xlink:href="#lx-text8909-3-7-glyph0-6"
                 width="100%"
                 height="100%" />
            </g>
            <g
               id="g9245"
               style="fill:#000000;fill-opacity:1">
              <use
                 id="use9239"
                 y="0"
                 x="31.851427"
                 xlink:href="#lx-text8909-3-7-glyph0-7"
                 width="100%"
                 height="100%" />
              <use
                 id="use9241"
                 y="0"
                 x="35.725883"
                 xlink:href="#lx-text8909-3-7-glyph0-8"
                 width="100%"
                 height="100%" />
              <use
                 id="use9243"
                 y="0"
                 x="40.707184"
                 xlink:href="#lx-text8909-3-7-glyph0-9"
                 width="100%"
                 height="100%" />
            </g>
            <g
               id="g9253"
               style="fill:#000000;fill-opacity:1">
              <use
                 id="use9247"
                 y="0"
                 x="46.792339"
                 xlink:href="#lx-text8909-3-7-glyph0-10"
                 width="100%"
                 height="100%" />
              <use
                 id="use9249"
                 y="0"
                 x="51.77364"
                 xlink:href="#lx-text8909-3-7-glyph0-8"
                 width="100%"
                 height="100%" />
              <use
                 id="use9251"
                 y="0"
                 x="56.75494"
                 xlink:href="#lx-text8909-3-7-glyph0-5"
                 width="100%"
                 height="100%" />
            </g>
            <g
               id="g9257"
               style="fill:#000000;fill-opacity:1">
              <use
                 id="use9255"
                 y="0"
                 x="61.192284"
                 xlink:href="#lx-text8909-3-7-glyph0-11"
                 width="100%"
                 height="100%" />
            </g>
            <g
               id="g9261"
               style="fill:#000000;fill-opacity:1">
              <use
                 id="use9259"
                 y="0"
                 x="68.93721"
                 xlink:href="#lx-text8909-3-7-glyph0-12"
                 width="100%"
                 height="100%" />
            </g>
            <g
               id="g9277"
               style="fill:#000000;fill-opacity:1">
              <use
                 id="use9263"
                 y="0"
                 x="74.751381"
                 xlink:href="#lx-text8909-3-7-glyph0-2"
                 width="100%"
                 height="100%" />
              <use
                 id="use9265"
                 y="0"
                 x="79.732681"
                 xlink:href="#lx-text8909-3-7-glyph0-13"
                 width="100%"
                 height="100%" />
              <use
                 id="use9267"
                 y="0"
                 x="83.661926"
                 xlink:href="#lx-text8909-3-7-glyph0-4"
                 width="100%"
                 height="100%" />
              <use
                 id="use9269"
                 y="0"
                 x="86.429543"
                 xlink:href="#lx-text8909-3-7-glyph0-7"
                 width="100%"
                 height="100%" />
              <use
                 id="use9271"
                 y="0"
                 x="90.303993"
                 xlink:href="#lx-text8909-3-7-glyph0-4"
                 width="100%"
                 height="100%" />
              <use
                 id="use9273"
                 y="0"
                 x="93.071602"
                 xlink:href="#lx-text8909-3-7-glyph0-2"
                 width="100%"
                 height="100%" />
              <use
                 id="use9275"
                 y="0"
                 x="98.052902"
                 xlink:href="#lx-text8909-3-7-glyph0-6"
                 width="100%"
                 height="100%" />
            </g>
          </g>
        </g>
        <g
           id="lx-text8909-3-7-3"
           transform="matrix(0.352778,0,0,0.352778,137.02502,97.507637)">
          <defs
             id="defs9289">
            <g
               id="g9287">
              <symbol
                 id="lx-text8909-3-7-3-glyph0-0"
                 overflow="visible"
                 style="overflow:visible">
                <path
                   id="path9281"
                   d=""
                   style="stroke:none"
                   inkscape:connector-curvature="0" />
              </symbol>
              <symbol
                 id="lx-text8909-3-7-3-glyph0-1"
                 overflow="visible"
                 style="overflow:visible">
                <path
                   id="path9284"
                   d="m 2.046875,-3.984375 h 0.9375 c 0.203125,0 0.3125,0 0.3125,-0.203125 0,-0.109375 -0.109375,-0.109375 -0.28125,-0.109375 h -0.875 C 2.5,-5.71875 2.546875,-5.90625 2.546875,-5.96875 c 0,-0.171875 -0.125,-0.265625 -0.296875,-0.265625 -0.03125,0 -0.3125,0 -0.390625,0.359375 L 1.46875,-4.296875 h -0.9375 c -0.203125,0 -0.296875,0 -0.296875,0.1875 0,0.125 0.078125,0.125 0.28125,0.125 h 0.875 C 0.671875,-1.15625 0.625,-0.984375 0.625,-0.8125 0.625,-0.265625 1,0.109375 1.546875,0.109375 2.5625,0.109375 3.125,-1.34375 3.125,-1.421875 3.125,-1.53125 3.046875,-1.53125 3.015625,-1.53125 2.921875,-1.53125 2.90625,-1.5 2.859375,-1.390625 2.4375,-0.34375 1.90625,-0.109375 1.5625,-0.109375 c -0.203125,0 -0.3125,-0.125 -0.3125,-0.453125 0,-0.25 0.03125,-0.3125 0.0625,-0.484375 z m 0,0"
                   style="stroke:none"
                   inkscape:connector-curvature="0" />
              </symbol>
            </g>
          </defs>
          <g
             id="lx-text8909-3-7-3-surface1">
            <g
               id="g9293"
               style="fill:#000000;fill-opacity:1">
              <use
                 id="use9291"
                 y="0"
                 x="0"
                 xlink:href="#lx-text8909-3-7-3-glyph0-1"
                 width="100%"
                 height="100%" />
            </g>
          </g>
        </g>
      </g>
    </g>
  </g>
</svg>
