<?xml version="1.0" encoding="utf-8" standalone="no"?>
<!DOCTYPE svg PUBLIC "-//W3C//DTD SVG 1.1//EN"
  "http://www.w3.org/Graphics/SVG/1.1/DTD/svg11.dtd">
<svg height="159.435469pt" version="1.1" viewBox="0 0 497.25625 159.435469" width="497.25625pt" xmlns="http://www.w3.org/2000/svg" xmlns:xlink="http://www.w3.org/1999/xlink">
 <metadata>
  <rdf:RDF xmlns:cc="http://creativecommons.org/ns#" xmlns:dc="http://purl.org/dc/elements/1.1/" xmlns:rdf="http://www.w3.org/1999/02/22-rdf-syntax-ns#">
   <cc:Work>
    <dc:type rdf:resource="http://purl.org/dc/dcmitype/StillImage"/>
    <dc:format>image/svg+xml</dc:format>
    <dc:creator>
     <cc:Agent>
      <dc:title>Matplotlib v3.4.3, https://matplotlib.org/</dc:title>
     </cc:Agent>
    </dc:creator>
   </cc:Work>
  </rdf:RDF>
 </metadata>
 <defs>
  <style type="text/css">*{stroke-linecap:butt;stroke-linejoin:round;}</style>
 </defs>
 <g id="figure_1">
  <g id="patch_1">
   <path d="M 0 159.435469 
L 497.25625 159.435469 
L 497.25625 0 
L 0 0 
z
" style="fill:none;"/>
  </g>
  <g id="axes_1">
   <g id="patch_2">
    <path d="M 53.328125 121.879219 
L 443.928125 121.879219 
L 443.928125 10.999219 
L 53.328125 10.999219 
z
" style="fill:none;"/>
   </g>
   <g id="matplotlib.axis_1">
    <g id="xtick_1">
     <g id="line2d_1">
      <defs>
       <path d="M 0 0 
L 0 3.5 
" id="m0ef3633ce7" style="stroke:#000000;stroke-width:0.8;"/>
      </defs>
      <g>
       <use style="stroke:#000000;stroke-width:0.8;" x="53.328125" xlink:href="#m0ef3633ce7" y="121.879219"/>
      </g>
     </g>
     <g id="text_1">
      <!-- 0.00 -->
      <g transform="translate(42.195313 136.477656)scale(0.1 -0.1)">
       <defs>
        <path d="M 2034 4250 
Q 1547 4250 1301 3770 
Q 1056 3291 1056 2328 
Q 1056 1369 1301 889 
Q 1547 409 2034 409 
Q 2525 409 2770 889 
Q 3016 1369 3016 2328 
Q 3016 3291 2770 3770 
Q 2525 4250 2034 4250 
z
M 2034 4750 
Q 2819 4750 3233 4129 
Q 3647 3509 3647 2328 
Q 3647 1150 3233 529 
Q 2819 -91 2034 -91 
Q 1250 -91 836 529 
Q 422 1150 422 2328 
Q 422 3509 836 4129 
Q 1250 4750 2034 4750 
z
" id="DejaVuSans-30" transform="scale(0.015625)"/>
        <path d="M 684 794 
L 1344 794 
L 1344 0 
L 684 0 
L 684 794 
z
" id="DejaVuSans-2e" transform="scale(0.015625)"/>
       </defs>
       <use xlink:href="#DejaVuSans-30"/>
       <use x="63.623047" xlink:href="#DejaVuSans-2e"/>
       <use x="95.410156" xlink:href="#DejaVuSans-30"/>
       <use x="159.033203" xlink:href="#DejaVuSans-30"/>
      </g>
     </g>
    </g>
    <g id="xtick_2">
     <g id="line2d_2">
      <g>
       <use style="stroke:#000000;stroke-width:0.8;" x="102.153125" xlink:href="#m0ef3633ce7" y="121.879219"/>
      </g>
     </g>
     <g id="text_2">
      <!-- 0.25 -->
      <g transform="translate(91.020313 136.477656)scale(0.1 -0.1)">
       <defs>
        <path d="M 1228 531 
L 3431 531 
L 3431 0 
L 469 0 
L 469 531 
Q 828 903 1448 1529 
Q 2069 2156 2228 2338 
Q 2531 2678 2651 2914 
Q 2772 3150 2772 3378 
Q 2772 3750 2511 3984 
Q 2250 4219 1831 4219 
Q 1534 4219 1204 4116 
Q 875 4013 500 3803 
L 500 4441 
Q 881 4594 1212 4672 
Q 1544 4750 1819 4750 
Q 2544 4750 2975 4387 
Q 3406 4025 3406 3419 
Q 3406 3131 3298 2873 
Q 3191 2616 2906 2266 
Q 2828 2175 2409 1742 
Q 1991 1309 1228 531 
z
" id="DejaVuSans-32" transform="scale(0.015625)"/>
        <path d="M 691 4666 
L 3169 4666 
L 3169 4134 
L 1269 4134 
L 1269 2991 
Q 1406 3038 1543 3061 
Q 1681 3084 1819 3084 
Q 2600 3084 3056 2656 
Q 3513 2228 3513 1497 
Q 3513 744 3044 326 
Q 2575 -91 1722 -91 
Q 1428 -91 1123 -41 
Q 819 9 494 109 
L 494 744 
Q 775 591 1075 516 
Q 1375 441 1709 441 
Q 2250 441 2565 725 
Q 2881 1009 2881 1497 
Q 2881 1984 2565 2268 
Q 2250 2553 1709 2553 
Q 1456 2553 1204 2497 
Q 953 2441 691 2322 
L 691 4666 
z
" id="DejaVuSans-35" transform="scale(0.015625)"/>
       </defs>
       <use xlink:href="#DejaVuSans-30"/>
       <use x="63.623047" xlink:href="#DejaVuSans-2e"/>
       <use x="95.410156" xlink:href="#DejaVuSans-32"/>
       <use x="159.033203" xlink:href="#DejaVuSans-35"/>
      </g>
     </g>
    </g>
    <g id="xtick_3">
     <g id="line2d_3">
      <g>
       <use style="stroke:#000000;stroke-width:0.8;" x="150.978125" xlink:href="#m0ef3633ce7" y="121.879219"/>
      </g>
     </g>
     <g id="text_3">
      <!-- 0.50 -->
      <g transform="translate(139.845313 136.477656)scale(0.1 -0.1)">
       <use xlink:href="#DejaVuSans-30"/>
       <use x="63.623047" xlink:href="#DejaVuSans-2e"/>
       <use x="95.410156" xlink:href="#DejaVuSans-35"/>
       <use x="159.033203" xlink:href="#DejaVuSans-30"/>
      </g>
     </g>
    </g>
    <g id="xtick_4">
     <g id="line2d_4">
      <g>
       <use style="stroke:#000000;stroke-width:0.8;" x="199.803125" xlink:href="#m0ef3633ce7" y="121.879219"/>
      </g>
     </g>
     <g id="text_4">
      <!-- 0.75 -->
      <g transform="translate(188.670313 136.477656)scale(0.1 -0.1)">
       <defs>
        <path d="M 525 4666 
L 3525 4666 
L 3525 4397 
L 1831 0 
L 1172 0 
L 2766 4134 
L 525 4134 
L 525 4666 
z
" id="DejaVuSans-37" transform="scale(0.015625)"/>
       </defs>
       <use xlink:href="#DejaVuSans-30"/>
       <use x="63.623047" xlink:href="#DejaVuSans-2e"/>
       <use x="95.410156" xlink:href="#DejaVuSans-37"/>
       <use x="159.033203" xlink:href="#DejaVuSans-35"/>
      </g>
     </g>
    </g>
    <g id="xtick_5">
     <g id="line2d_5">
      <g>
       <use style="stroke:#000000;stroke-width:0.8;" x="248.628125" xlink:href="#m0ef3633ce7" y="121.879219"/>
      </g>
     </g>
     <g id="text_5">
      <!-- 1.00 -->
      <g transform="translate(237.495313 136.477656)scale(0.1 -0.1)">
       <defs>
        <path d="M 794 531 
L 1825 531 
L 1825 4091 
L 703 3866 
L 703 4441 
L 1819 4666 
L 2450 4666 
L 2450 531 
L 3481 531 
L 3481 0 
L 794 0 
L 794 531 
z
" id="DejaVuSans-31" transform="scale(0.015625)"/>
       </defs>
       <use xlink:href="#DejaVuSans-31"/>
       <use x="63.623047" xlink:href="#DejaVuSans-2e"/>
       <use x="95.410156" xlink:href="#DejaVuSans-30"/>
       <use x="159.033203" xlink:href="#DejaVuSans-30"/>
      </g>
     </g>
    </g>
    <g id="xtick_6">
     <g id="line2d_6">
      <g>
       <use style="stroke:#000000;stroke-width:0.8;" x="297.453125" xlink:href="#m0ef3633ce7" y="121.879219"/>
      </g>
     </g>
     <g id="text_6">
      <!-- 1.25 -->
      <g transform="translate(286.320312 136.477656)scale(0.1 -0.1)">
       <use xlink:href="#DejaVuSans-31"/>
       <use x="63.623047" xlink:href="#DejaVuSans-2e"/>
       <use x="95.410156" xlink:href="#DejaVuSans-32"/>
       <use x="159.033203" xlink:href="#DejaVuSans-35"/>
      </g>
     </g>
    </g>
    <g id="xtick_7">
     <g id="line2d_7">
      <g>
       <use style="stroke:#000000;stroke-width:0.8;" x="346.278125" xlink:href="#m0ef3633ce7" y="121.879219"/>
      </g>
     </g>
     <g id="text_7">
      <!-- 1.50 -->
      <g transform="translate(335.145313 136.477656)scale(0.1 -0.1)">
       <use xlink:href="#DejaVuSans-31"/>
       <use x="63.623047" xlink:href="#DejaVuSans-2e"/>
       <use x="95.410156" xlink:href="#DejaVuSans-35"/>
       <use x="159.033203" xlink:href="#DejaVuSans-30"/>
      </g>
     </g>
    </g>
    <g id="xtick_8">
     <g id="line2d_8">
      <g>
       <use style="stroke:#000000;stroke-width:0.8;" x="395.103125" xlink:href="#m0ef3633ce7" y="121.879219"/>
      </g>
     </g>
     <g id="text_8">
      <!-- 1.75 -->
      <g transform="translate(383.970313 136.477656)scale(0.1 -0.1)">
       <use xlink:href="#DejaVuSans-31"/>
       <use x="63.623047" xlink:href="#DejaVuSans-2e"/>
       <use x="95.410156" xlink:href="#DejaVuSans-37"/>
       <use x="159.033203" xlink:href="#DejaVuSans-35"/>
      </g>
     </g>
    </g>
    <g id="xtick_9">
     <g id="line2d_9">
      <g>
       <use style="stroke:#000000;stroke-width:0.8;" x="443.928125" xlink:href="#m0ef3633ce7" y="121.879219"/>
      </g>
     </g>
     <g id="text_9">
      <!-- 2.00 -->
      <g transform="translate(432.795313 136.477656)scale(0.1 -0.1)">
       <use xlink:href="#DejaVuSans-32"/>
       <use x="63.623047" xlink:href="#DejaVuSans-2e"/>
       <use x="95.410156" xlink:href="#DejaVuSans-30"/>
       <use x="159.033203" xlink:href="#DejaVuSans-30"/>
      </g>
     </g>
    </g>
    <g id="text_10">
     <!-- time (seconds) -->
     <g transform="translate(211.403906 150.155781)scale(0.1 -0.1)">
      <defs>
       <path d="M 1172 4494 
L 1172 3500 
L 2356 3500 
L 2356 3053 
L 1172 3053 
L 1172 1153 
Q 1172 725 1289 603 
Q 1406 481 1766 481 
L 2356 481 
L 2356 0 
L 1766 0 
Q 1100 0 847 248 
Q 594 497 594 1153 
L 594 3053 
L 172 3053 
L 172 3500 
L 594 3500 
L 594 4494 
L 1172 4494 
z
" id="DejaVuSans-74" transform="scale(0.015625)"/>
       <path d="M 603 3500 
L 1178 3500 
L 1178 0 
L 603 0 
L 603 3500 
z
M 603 4863 
L 1178 4863 
L 1178 4134 
L 603 4134 
L 603 4863 
z
" id="DejaVuSans-69" transform="scale(0.015625)"/>
       <path d="M 3328 2828 
Q 3544 3216 3844 3400 
Q 4144 3584 4550 3584 
Q 5097 3584 5394 3201 
Q 5691 2819 5691 2113 
L 5691 0 
L 5113 0 
L 5113 2094 
Q 5113 2597 4934 2840 
Q 4756 3084 4391 3084 
Q 3944 3084 3684 2787 
Q 3425 2491 3425 1978 
L 3425 0 
L 2847 0 
L 2847 2094 
Q 2847 2600 2669 2842 
Q 2491 3084 2119 3084 
Q 1678 3084 1418 2786 
Q 1159 2488 1159 1978 
L 1159 0 
L 581 0 
L 581 3500 
L 1159 3500 
L 1159 2956 
Q 1356 3278 1631 3431 
Q 1906 3584 2284 3584 
Q 2666 3584 2933 3390 
Q 3200 3197 3328 2828 
z
" id="DejaVuSans-6d" transform="scale(0.015625)"/>
       <path d="M 3597 1894 
L 3597 1613 
L 953 1613 
Q 991 1019 1311 708 
Q 1631 397 2203 397 
Q 2534 397 2845 478 
Q 3156 559 3463 722 
L 3463 178 
Q 3153 47 2828 -22 
Q 2503 -91 2169 -91 
Q 1331 -91 842 396 
Q 353 884 353 1716 
Q 353 2575 817 3079 
Q 1281 3584 2069 3584 
Q 2775 3584 3186 3129 
Q 3597 2675 3597 1894 
z
M 3022 2063 
Q 3016 2534 2758 2815 
Q 2500 3097 2075 3097 
Q 1594 3097 1305 2825 
Q 1016 2553 972 2059 
L 3022 2063 
z
" id="DejaVuSans-65" transform="scale(0.015625)"/>
       <path id="DejaVuSans-20" transform="scale(0.015625)"/>
       <path d="M 1984 4856 
Q 1566 4138 1362 3434 
Q 1159 2731 1159 2009 
Q 1159 1288 1364 580 
Q 1569 -128 1984 -844 
L 1484 -844 
Q 1016 -109 783 600 
Q 550 1309 550 2009 
Q 550 2706 781 3412 
Q 1013 4119 1484 4856 
L 1984 4856 
z
" id="DejaVuSans-28" transform="scale(0.015625)"/>
       <path d="M 2834 3397 
L 2834 2853 
Q 2591 2978 2328 3040 
Q 2066 3103 1784 3103 
Q 1356 3103 1142 2972 
Q 928 2841 928 2578 
Q 928 2378 1081 2264 
Q 1234 2150 1697 2047 
L 1894 2003 
Q 2506 1872 2764 1633 
Q 3022 1394 3022 966 
Q 3022 478 2636 193 
Q 2250 -91 1575 -91 
Q 1294 -91 989 -36 
Q 684 19 347 128 
L 347 722 
Q 666 556 975 473 
Q 1284 391 1588 391 
Q 1994 391 2212 530 
Q 2431 669 2431 922 
Q 2431 1156 2273 1281 
Q 2116 1406 1581 1522 
L 1381 1569 
Q 847 1681 609 1914 
Q 372 2147 372 2553 
Q 372 3047 722 3315 
Q 1072 3584 1716 3584 
Q 2034 3584 2315 3537 
Q 2597 3491 2834 3397 
z
" id="DejaVuSans-73" transform="scale(0.015625)"/>
       <path d="M 3122 3366 
L 3122 2828 
Q 2878 2963 2633 3030 
Q 2388 3097 2138 3097 
Q 1578 3097 1268 2742 
Q 959 2388 959 1747 
Q 959 1106 1268 751 
Q 1578 397 2138 397 
Q 2388 397 2633 464 
Q 2878 531 3122 666 
L 3122 134 
Q 2881 22 2623 -34 
Q 2366 -91 2075 -91 
Q 1284 -91 818 406 
Q 353 903 353 1747 
Q 353 2603 823 3093 
Q 1294 3584 2113 3584 
Q 2378 3584 2631 3529 
Q 2884 3475 3122 3366 
z
" id="DejaVuSans-63" transform="scale(0.015625)"/>
       <path d="M 1959 3097 
Q 1497 3097 1228 2736 
Q 959 2375 959 1747 
Q 959 1119 1226 758 
Q 1494 397 1959 397 
Q 2419 397 2687 759 
Q 2956 1122 2956 1747 
Q 2956 2369 2687 2733 
Q 2419 3097 1959 3097 
z
M 1959 3584 
Q 2709 3584 3137 3096 
Q 3566 2609 3566 1747 
Q 3566 888 3137 398 
Q 2709 -91 1959 -91 
Q 1206 -91 779 398 
Q 353 888 353 1747 
Q 353 2609 779 3096 
Q 1206 3584 1959 3584 
z
" id="DejaVuSans-6f" transform="scale(0.015625)"/>
       <path d="M 3513 2113 
L 3513 0 
L 2938 0 
L 2938 2094 
Q 2938 2591 2744 2837 
Q 2550 3084 2163 3084 
Q 1697 3084 1428 2787 
Q 1159 2491 1159 1978 
L 1159 0 
L 581 0 
L 581 3500 
L 1159 3500 
L 1159 2956 
Q 1366 3272 1645 3428 
Q 1925 3584 2291 3584 
Q 2894 3584 3203 3211 
Q 3513 2838 3513 2113 
z
" id="DejaVuSans-6e" transform="scale(0.015625)"/>
       <path d="M 2906 2969 
L 2906 4863 
L 3481 4863 
L 3481 0 
L 2906 0 
L 2906 525 
Q 2725 213 2448 61 
Q 2172 -91 1784 -91 
Q 1150 -91 751 415 
Q 353 922 353 1747 
Q 353 2572 751 3078 
Q 1150 3584 1784 3584 
Q 2172 3584 2448 3432 
Q 2725 3281 2906 2969 
z
M 947 1747 
Q 947 1113 1208 752 
Q 1469 391 1925 391 
Q 2381 391 2643 752 
Q 2906 1113 2906 1747 
Q 2906 2381 2643 2742 
Q 2381 3103 1925 3103 
Q 1469 3103 1208 2742 
Q 947 2381 947 1747 
z
" id="DejaVuSans-64" transform="scale(0.015625)"/>
       <path d="M 513 4856 
L 1013 4856 
Q 1481 4119 1714 3412 
Q 1947 2706 1947 2009 
Q 1947 1309 1714 600 
Q 1481 -109 1013 -844 
L 513 -844 
Q 928 -128 1133 580 
Q 1338 1288 1338 2009 
Q 1338 2731 1133 3434 
Q 928 4138 513 4856 
z
" id="DejaVuSans-29" transform="scale(0.015625)"/>
      </defs>
      <use xlink:href="#DejaVuSans-74"/>
      <use x="39.208984" xlink:href="#DejaVuSans-69"/>
      <use x="66.992188" xlink:href="#DejaVuSans-6d"/>
      <use x="164.404297" xlink:href="#DejaVuSans-65"/>
      <use x="225.927734" xlink:href="#DejaVuSans-20"/>
      <use x="257.714844" xlink:href="#DejaVuSans-28"/>
      <use x="296.728516" xlink:href="#DejaVuSans-73"/>
      <use x="348.828125" xlink:href="#DejaVuSans-65"/>
      <use x="410.351562" xlink:href="#DejaVuSans-63"/>
      <use x="465.332031" xlink:href="#DejaVuSans-6f"/>
      <use x="526.513672" xlink:href="#DejaVuSans-6e"/>
      <use x="589.892578" xlink:href="#DejaVuSans-64"/>
      <use x="653.369141" xlink:href="#DejaVuSans-73"/>
      <use x="705.46875" xlink:href="#DejaVuSans-29"/>
     </g>
    </g>
   </g>
   <g id="matplotlib.axis_2">
    <g id="ytick_1">
     <g id="line2d_10">
      <defs>
       <path d="M 0 0 
L -3.5 0 
" id="mdba7d3781f" style="stroke:#000000;stroke-width:0.8;"/>
      </defs>
      <g>
       <use style="stroke:#000000;stroke-width:0.8;" x="53.328125" xlink:href="#mdba7d3781f" y="121.879219"/>
      </g>
     </g>
     <g id="text_11">
      <!-- 0 -->
      <g transform="translate(39.965625 125.678437)scale(0.1 -0.1)">
       <use xlink:href="#DejaVuSans-30"/>
      </g>
     </g>
    </g>
    <g id="ytick_2">
     <g id="line2d_11">
      <g>
       <use style="stroke:#000000;stroke-width:0.8;" x="53.328125" xlink:href="#mdba7d3781f" y="78.566719"/>
      </g>
     </g>
     <g id="text_12">
      <!-- 500 -->
      <g transform="translate(27.240625 82.365937)scale(0.1 -0.1)">
       <use xlink:href="#DejaVuSans-35"/>
       <use x="63.623047" xlink:href="#DejaVuSans-30"/>
       <use x="127.246094" xlink:href="#DejaVuSans-30"/>
      </g>
     </g>
    </g>
    <g id="ytick_3">
     <g id="line2d_12">
      <g>
       <use style="stroke:#000000;stroke-width:0.8;" x="53.328125" xlink:href="#mdba7d3781f" y="35.254219"/>
      </g>
     </g>
     <g id="text_13">
      <!-- 1000 -->
      <g transform="translate(20.878125 39.053437)scale(0.1 -0.1)">
       <use xlink:href="#DejaVuSans-31"/>
       <use x="63.623047" xlink:href="#DejaVuSans-30"/>
       <use x="127.246094" xlink:href="#DejaVuSans-30"/>
       <use x="190.869141" xlink:href="#DejaVuSans-30"/>
      </g>
     </g>
    </g>
    <g id="text_14">
     <!-- coordinates -->
     <g transform="translate(14.798438 95.712656)rotate(-90)scale(0.1 -0.1)">
      <defs>
       <path d="M 2631 2963 
Q 2534 3019 2420 3045 
Q 2306 3072 2169 3072 
Q 1681 3072 1420 2755 
Q 1159 2438 1159 1844 
L 1159 0 
L 581 0 
L 581 3500 
L 1159 3500 
L 1159 2956 
Q 1341 3275 1631 3429 
Q 1922 3584 2338 3584 
Q 2397 3584 2469 3576 
Q 2541 3569 2628 3553 
L 2631 2963 
z
" id="DejaVuSans-72" transform="scale(0.015625)"/>
       <path d="M 2194 1759 
Q 1497 1759 1228 1600 
Q 959 1441 959 1056 
Q 959 750 1161 570 
Q 1363 391 1709 391 
Q 2188 391 2477 730 
Q 2766 1069 2766 1631 
L 2766 1759 
L 2194 1759 
z
M 3341 1997 
L 3341 0 
L 2766 0 
L 2766 531 
Q 2569 213 2275 61 
Q 1981 -91 1556 -91 
Q 1019 -91 701 211 
Q 384 513 384 1019 
Q 384 1609 779 1909 
Q 1175 2209 1959 2209 
L 2766 2209 
L 2766 2266 
Q 2766 2663 2505 2880 
Q 2244 3097 1772 3097 
Q 1472 3097 1187 3025 
Q 903 2953 641 2809 
L 641 3341 
Q 956 3463 1253 3523 
Q 1550 3584 1831 3584 
Q 2591 3584 2966 3190 
Q 3341 2797 3341 1997 
z
" id="DejaVuSans-61" transform="scale(0.015625)"/>
      </defs>
      <use xlink:href="#DejaVuSans-63"/>
      <use x="54.980469" xlink:href="#DejaVuSans-6f"/>
      <use x="116.162109" xlink:href="#DejaVuSans-6f"/>
      <use x="177.34375" xlink:href="#DejaVuSans-72"/>
      <use x="216.707031" xlink:href="#DejaVuSans-64"/>
      <use x="280.183594" xlink:href="#DejaVuSans-69"/>
      <use x="307.966797" xlink:href="#DejaVuSans-6e"/>
      <use x="371.345703" xlink:href="#DejaVuSans-61"/>
      <use x="432.625" xlink:href="#DejaVuSans-74"/>
      <use x="471.833984" xlink:href="#DejaVuSans-65"/>
      <use x="533.357422" xlink:href="#DejaVuSans-73"/>
     </g>
    </g>
   </g>
   <g id="line2d_13">
    <path clip-path="url(#p62f1880bca)" d="M 53.523523 48.256631 
L 55.4775 48.092044 
L 56.25909 48.447206 
L 56.649886 48.447206 
L 57.236079 48.135356 
L 57.822272 48.170006 
L 58.799261 48.429881 
L 59.385454 48.421219 
L 60.362442 48.291281 
L 60.753238 48.377906 
L 61.144033 48.568481 
L 62.121021 48.507844 
L 62.511817 48.637781 
L 63.293408 48.533831 
L 63.684203 48.395231 
L 64.661192 48.481856 
L 65.247385 48.585806 
L 66.615169 48.499181 
L 67.201362 48.568481 
L 68.17835 48.507844 
L 68.959941 48.863006 
L 69.741532 48.949631 
L 70.523122 49.174856 
L 71.500111 49.027594 
L 71.890906 48.837019 
L 72.672497 49.079569 
L 73.063293 48.992944 
L 73.844883 49.122881 
L 74.235679 49.218169 
L 74.626474 49.400081 
L 75.01727 49.261481 
L 75.408065 49.157531 
L 77.166644 49.252819 
L 77.55744 49.365431 
L 79.120621 49.322119 
L 81.269996 49.400081 
L 82.051587 49.504031 
L 82.833178 49.469381 
L 83.419371 49.296131 
L 84.005564 49.304794 
L 84.787155 49.564669 
L 86.545734 49.434731 
L 87.131927 49.556006 
L 88.890506 49.486706 
L 89.085904 49.607981 
L 90.25829 49.512694 
L 91.235279 49.590656 
L 92.993858 49.374094 
L 93.775449 49.382756 
L 94.361642 49.148869 
L 95.534028 49.521356 
L 95.924823 49.651294 
L 96.315619 49.434731 
L 97.09721 49.512694 
L 97.683403 49.261481 
L 99.832777 49.313456 
L 100.223573 49.763906 
L 100.614368 50.742769 
L 101.200561 53.618719 
L 103.154538 64.689394 
L 103.545334 65.165831 
L 103.936129 65.079206 
L 104.326924 64.628756 
L 104.71772 64.083019 
L 105.499311 64.143656 
L 106.867094 66.231319 
L 107.25789 66.291956 
L 108.039481 65.720231 
L 108.430276 64.957931 
L 109.602662 64.715381 
L 109.993458 65.009906 
L 110.579651 65.391056 
L 110.775048 65.391056 
L 111.556639 66.153356 
L 112.142832 66.309281 
L 112.533628 66.499856 
L 113.706014 66.170681 
L 114.096809 66.032081 
L 114.487605 65.832844 
L 115.269196 65.962781 
L 115.855389 65.694244 
L 116.832377 65.668256 
L 117.223173 65.330419 
L 117.809366 65.477681 
L 118.200161 65.243794 
L 118.786354 65.512331 
L 119.372547 65.529656 
L 119.567945 65.642269 
L 119.95874 65.417044 
L 120.349536 65.209144 
L 121.131127 65.044556 
L 121.912717 65.009906 
L 123.085103 65.035894 
L 123.671297 64.672069 
L 124.648285 64.940606 
L 125.03908 65.113856 
L 125.429876 65.131181 
L 126.406864 65.027231 
L 126.602262 65.061881 
L 127.188455 64.672069 
L 127.970046 64.689394 
L 128.556239 64.611431 
L 128.947034 64.689394 
L 130.510216 64.585444 
L 133.050386 64.568119 
L 133.245784 64.628756 
L 134.222772 64.143656 
L 135.199761 64.117669 
L 135.590556 64.316906 
L 137.349136 64.212956 
L 139.303112 63.987731 
L 139.889306 64.057031 
L 142.234078 63.823144 
L 144.383453 64.005056 
L 144.774248 64.057031 
L 145.360441 63.831806 
L 146.33743 63.883781 
L 147.314418 63.597919 
L 147.900611 63.545944 
L 149.268395 63.641231 
L 149.659191 63.606581 
L 150.245384 63.294731 
L 151.026974 63.502631 
L 153.95794 63.294731 
L 154.544133 63.416006 
L 155.130326 63.459319 
L 155.521121 63.580594 
L 156.302712 63.277406 
L 156.888905 63.381356 
L 157.279701 63.502631 
L 158.256689 63.104156 
L 158.647485 63.493969 
L 158.842882 63.502631 
L 159.233678 63.121481 
L 160.015269 63.052181 
L 160.406064 63.147469 
L 161.383052 62.930906 
L 163.141632 63.104156 
L 163.337029 63.034856 
L 163.923223 63.164794 
L 164.509416 63.052181 
L 165.8772 63.112819 
L 167.635779 62.913581 
L 168.612767 62.930906 
L 172.325324 62.826956 
L 172.911517 62.982881 
L 173.302312 63.078169 
L 173.693107 63.104156 
L 174.670096 62.593069 
L 175.256289 62.800969 
L 176.03788 62.896256 
L 176.624073 62.723006 
L 177.014868 62.818294 
L 177.405664 62.878931 
L 177.991857 62.705681 
L 180.336629 62.601731 
L 182.290606 62.480456 
L 182.876799 62.324531 
L 184.635379 62.376506 
L 185.221572 62.515106 
L 186.003163 62.281219 
L 186.784753 60.860569 
L 187.370946 59.422594 
L 188.347935 57.317606 
L 188.73873 57.040406 
L 189.129526 57.222319 
L 189.715719 57.525506 
L 190.106514 57.681431 
L 190.692707 58.478381 
L 193.623673 58.261819 
L 195.382252 57.672769 
L 195.968445 57.768056 
L 196.359241 57.768056 
L 196.750036 57.681431 
L 197.336229 57.802706 
L 197.727024 57.785381 
L 198.508615 57.655444 
L 200.462592 57.820031 
L 201.634978 57.794044 
L 203.784353 57.594806 
L 204.565944 57.750731 
L 205.152137 57.638119 
L 205.73833 57.854681 
L 206.129126 57.612131 
L 208.083102 57.785381 
L 208.473898 57.880669 
L 209.255489 57.820031 
L 211.600261 57.768056 
L 212.186454 57.854681 
L 213.35884 57.646781 
L 213.945033 57.594806 
L 214.335829 57.785381 
L 215.11742 57.776719 
L 215.89901 57.837356 
L 216.680601 57.759394 
L 216.875999 57.802706 
L 217.462192 57.664106 
L 217.852987 57.785381 
L 223.519521 57.932644 
L 223.910316 57.923981 
L 224.301111 58.019269 
L 224.887305 57.837356 
L 225.473498 58.183856 
L 226.059691 58.071244 
L 226.841282 58.140544 
L 227.232077 58.062581 
L 228.013668 57.837356 
L 228.404463 57.906656 
L 228.795259 57.993281 
L 229.772247 57.958631 
L 230.35844 57.993281 
L 230.944633 58.105894 
L 231.335429 57.681431 
L 231.530826 57.664106 
L 232.507815 58.201181 
L 232.89861 58.166531 
L 233.484803 58.001944 
L 234.461792 58.027931 
L 235.047985 58.149206 
L 237.19736 57.854681 
L 237.97895 57.785381 
L 238.565144 58.027931 
L 239.151337 58.010606 
L 239.542132 58.062581 
L 240.323723 57.889331 
L 241.300711 57.958631 
L 241.691507 57.291619 
L 242.082302 56.312756 
L 243.645484 50.223019 
L 244.036279 49.607981 
L 244.231677 49.400081 
L 244.622472 49.581994 
L 244.81787 49.685944 
L 246.185654 52.821769 
L 246.771847 53.471456 
L 247.162642 53.774644 
L 247.553438 53.575406 
L 248.139631 53.142281 
L 249.116619 52.613869 
L 249.507415 52.613869 
L 249.89821 52.302019 
L 250.484403 51.886219 
L 250.679801 51.860231 
L 251.461392 51.392456 
L 252.633778 51.557044 
L 253.219971 51.860231 
L 253.806164 51.808256 
L 254.783153 51.877556 
L 256.346334 51.903544 
L 256.73713 52.016156 
L 257.127925 51.938194 
L 257.714118 51.816919 
L 258.300311 51.877556 
L 258.886504 51.946856 
L 261.035879 51.669656 
L 261.622072 51.834244 
L 262.208265 51.816919 
L 262.794458 51.652331 
L 263.576049 51.825581 
L 264.162242 51.721631 
L 264.553037 51.591694 
L 264.943833 51.808256 
L 265.334628 52.007494 
L 265.920821 52.120106 
L 267.679401 51.686981 
L 268.656389 51.678319 
L 269.047185 51.773606 
L 269.633378 51.990169 
L 270.024173 52.033481 
L 270.805764 51.764944 
L 272.368945 51.868894 
L 273.150536 51.660994 
L 273.736729 51.964181 
L 275.104513 51.635006 
L 276.081502 51.669656 
L 276.276899 51.695644 
L 276.863092 51.496406 
L 277.449286 51.790931 
L 277.840081 51.860231 
L 278.621672 51.583031 
L 279.012467 51.548381 
L 279.403263 51.435769 
L 279.989456 51.617681 
L 282.334228 51.548381 
L 282.725023 51.548381 
L 283.115819 51.660994 
L 284.288205 51.461756 
L 286.242182 51.531056 
L 288.000761 51.427106 
L 288.782352 51.435769 
L 289.173148 51.583031 
L 289.563943 51.773606 
L 290.345534 51.617681 
L 290.736329 51.600356 
L 291.908715 51.643669 
L 292.494908 51.531056 
L 293.081101 51.635006 
L 293.667295 51.427106 
L 294.253488 51.635006 
L 294.839681 51.340481 
L 296.402862 51.375131 
L 296.989055 51.357806 
L 297.770646 51.271181 
L 298.943032 51.392456 
L 299.529226 51.669656 
L 299.920021 51.704306 
L 300.701612 51.409781 
L 301.287805 51.409781 
L 301.6786 51.409781 
L 302.655589 51.063281 
L 303.046384 51.054619 
L 304.21877 51.262519 
L 305.000361 51.262519 
L 305.391157 51.288506 
L 306.368145 51.011306 
L 306.75894 51.123919 
L 306.954338 51.201881 
L 307.735929 51.089269 
L 308.712917 51.288506 
L 309.29911 51.219206 
L 310.080701 51.210544 
L 310.471497 51.383794 
L 311.05769 51.305831 
L 311.448485 51.305831 
L 311.839281 51.011306 
L 312.034678 50.855381 
L 312.425474 50.976656 
L 312.620871 51.080606 
L 313.402462 51.028631 
L 313.988655 51.115256 
L 314.965644 51.002644 
L 315.356439 50.716781 
L 316.528825 51.132581 
L 317.115018 51.115256 
L 320.045984 51.011306 
L 320.632177 51.019969 
L 321.022972 51.054619 
L 321.413768 50.846719 
L 321.999961 51.279844 
L 322.976949 50.803406 
L 323.172347 50.820731 
L 323.563143 51.089269 
L 324.735529 50.933344 
L 325.126324 50.838056 
L 326.884903 51.089269 
L 327.275699 50.976656 
L 328.643483 51.115256 
L 332.746834 51.210544 
L 333.333027 51.236531 
L 334.505414 51.115256 
L 335.287004 51.253856 
L 336.263993 51.253856 
L 337.240981 51.496406 
L 337.827175 51.678319 
L 339.390356 51.297169 
L 339.976549 51.591694 
L 341.735129 51.444431 
L 342.125924 51.479081 
L 343.29831 51.548381 
L 343.689105 51.660994 
L 344.470696 51.357806 
L 345.252287 51.383794 
L 345.643082 51.340481 
L 346.033878 51.340481 
L 346.229276 51.297169 
L 346.620071 51.522394 
L 346.815469 51.652331 
L 347.401662 51.721631 
L 347.792457 51.773606 
L 348.37865 51.635006 
L 349.355639 51.825581 
L 350.528025 51.946856 
L 350.91882 51.860231 
L 351.700411 51.964181 
L 352.6774 51.946856 
L 353.45899 51.903544 
L 354.240581 51.912206 
L 354.826774 51.868894 
L 355.21757 52.007494 
L 355.999161 51.964181 
L 357.953138 52.059469 
L 358.734728 52.033481 
L 358.930126 52.016156 
L 359.711717 52.362656 
L 361.079501 52.423294 
L 362.056489 52.302019 
L 362.447285 52.388644 
L 362.83808 52.674506 
L 364.792057 52.397306 
L 366.355239 52.293356 
L 366.941432 52.674506 
L 368.113818 52.622531 
L 368.504613 52.622531 
L 369.090806 52.856419 
L 369.872397 52.865081 
L 370.45859 52.761131 
L 371.630976 52.899731 
L 372.021772 52.639856 
L 372.412567 52.761131 
L 372.803363 52.856419 
L 373.389556 52.891069 
L 374.171147 53.072981 
L 374.952737 52.908394 
L 375.929726 52.761131 
L 376.906714 52.839094 
L 383.550236 53.072981 
L 384.722622 52.917056 
L 385.895008 53.133619 
L 387.262792 52.969031 
L 388.825974 53.350181 
L 389.216769 53.176931 
L 389.607565 53.003681 
L 390.389156 53.280881 
L 391.170746 53.506106 
L 391.561542 53.315531 
L 391.952337 53.107631 
L 393.320121 53.142281 
L 393.906314 53.081644 
L 394.492507 53.228906 
L 396.251086 53.159606 
L 397.228075 53.159606 
L 397.814268 53.072981 
L 398.400461 53.159606 
L 399.182052 53.176931 
L 399.572847 53.263556 
L 400.15904 53.142281 
L 401.722222 53.107631 
L 402.113017 53.021006 
L 403.285404 53.124956 
L 404.45779 52.969031 
L 405.630176 53.055656 
L 406.020971 53.124956 
L 406.607165 52.839094 
L 407.193358 52.986356 
L 407.584153 52.908394 
L 408.365744 52.995019 
L 408.951937 52.830431 
L 410.124323 52.830431 
L 411.101312 52.934381 
L 412.664493 52.969031 
L 413.641482 52.787119 
L 414.61847 52.717819 
L 415.400061 53.012344 
L 416.377049 52.717819 
L 417.15864 52.657181 
L 420.089606 52.596544 
L 420.480401 52.553231 
L 421.652787 52.527244 
L 422.23898 52.483931 
L 422.434378 52.509919 
L 423.215969 52.206731 
L 423.99756 52.276031 
L 424.779151 52.276031 
L 425.169946 52.232719 
L 425.560741 52.146094 
L 426.342332 52.293356 
L 427.319321 51.998831 
L 427.905514 52.076794 
L 429.0779 52.180744 
L 430.054888 52.128769 
L 431.227275 52.085456 
L 432.008865 51.860231 
L 432.595058 52.094119 
L 433.376649 51.825581 
L 434.744433 51.851569 
L 436.112217 51.730294 
L 436.893808 51.496406 
L 437.480001 51.531056 
L 438.066194 51.929531 
L 438.261592 51.903544 
L 439.043183 51.444431 
L 439.629376 51.444431 
L 440.215569 51.600356 
L 440.99716 51.427106 
L 441.387955 51.539719 
L 441.77875 51.721631 
L 442.364943 51.479081 
L 443.146534 51.271181 
L 443.732727 51.505069 
L 443.928125 51.453094 
L 443.928125 51.453094 
" style="fill:none;stroke:#000000;stroke-linecap:square;"/>
   </g>
   <g id="line2d_14">
    <path clip-path="url(#p62f1880bca)" d="M 53.523523 95.891719 
L 53.71892 95.822419 
L 54.109716 95.380631 
L 54.500511 95.484581 
L 54.891307 95.709806 
L 55.4775 95.640506 
L 56.454488 95.952356 
L 57.236079 95.952356 
L 57.431477 95.969681 
L 58.01767 95.614519 
L 58.603863 95.631844 
L 59.190056 95.328656 
L 59.776249 95.900381 
L 59.971647 95.744456 
L 60.167044 95.744456 
L 60.55784 96.038981 
L 61.144033 95.813756 
L 62.902612 95.874394 
L 63.293408 95.935031 
L 63.879601 95.978344 
L 64.661192 95.501906 
L 65.247385 95.553881 
L 65.63818 95.527894 
L 66.615169 95.675156 
L 66.810566 95.657831 
L 67.396759 95.987006 
L 68.959941 95.857069 
L 70.132327 95.883056 
L 71.109316 95.727131 
L 71.890906 95.640506 
L 72.477099 95.623181 
L 74.821872 95.640506 
L 75.408065 95.848406 
L 76.385053 95.709806 
L 76.971247 95.805094 
L 77.55744 95.969681 
L 77.948235 95.891719 
L 78.33903 95.848406 
L 78.925224 96.021656 
L 79.511417 96.004331 
L 80.488405 95.857069 
L 80.879201 95.614519 
L 83.028575 95.813756 
L 83.419371 95.753119 
L 83.810166 95.597194 
L 84.591757 95.631844 
L 84.982552 95.475919 
L 85.764143 95.657831 
L 86.154938 95.943694 
L 86.741132 95.848406 
L 87.71812 95.865731 
L 88.304313 95.761781 
L 89.281302 95.900381 
L 89.867495 95.571206 
L 90.25829 95.588531 
L 90.649085 95.467256 
L 92.407665 95.839744 
L 92.79846 96.004331 
L 95.33863 95.389294 
L 95.729426 95.467256 
L 96.120221 95.588531 
L 97.488005 95.406619 
L 97.8788 95.666494 
L 99.63738 95.363306 
L 100.41897 95.397956 
L 100.809766 95.796431 
L 101.395959 97.165106 
L 101.786754 98.447156 
L 102.17755 100.162331 
L 102.763743 103.289494 
L 103.545334 105.567731 
L 103.936129 105.740981 
L 104.326924 105.723656 
L 104.71772 105.593719 
L 105.499311 104.961356 
L 106.280901 105.004669 
L 107.25789 105.533081 
L 108.430276 105.169256 
L 109.211867 104.614856 
L 109.602662 104.562881 
L 110.384253 105.073969 
L 111.165844 105.342506 
L 113.315219 105.836269 
L 113.706014 105.689006 
L 114.683002 105.992194 
L 115.073798 105.888244 
L 115.464593 105.732319 
L 115.659991 105.740981 
L 116.246184 105.377156 
L 116.832377 105.541744 
L 118.004763 105.524419 
L 118.786354 105.125944 
L 118.981752 105.169256 
L 119.567945 105.697669 
L 120.935729 105.463781 
L 122.694308 105.723656 
L 123.280501 105.481106 
L 123.671297 105.403144 
L 124.062092 105.359831 
L 125.03908 105.671681 
L 126.016069 105.585056 
L 126.602262 105.411806 
L 127.188455 105.507094 
L 129.142432 105.498431 
L 129.924023 105.732319 
L 130.510216 105.680344 
L 131.291807 105.619706 
L 131.682602 105.766969 
L 132.268795 105.966206 
L 132.464193 105.957544 
L 133.245784 105.455119 
L 133.831977 105.784294 
L 134.41817 105.463781 
L 135.004363 105.507094 
L 135.199761 105.507094 
L 135.785954 105.879581 
L 137.349136 105.888244 
L 137.544533 106.044169 
L 137.739931 105.966206 
L 138.130726 105.541744 
L 139.889306 105.827606 
L 140.475499 105.689006 
L 141.061692 105.905569 
L 142.624873 105.896906 
L 143.406464 105.801619 
L 144.383453 105.922894 
L 144.969646 105.957544 
L 145.555839 105.818944 
L 147.11902 105.931556 
L 147.509816 105.723656 
L 148.096009 105.792956 
L 148.291407 105.567731 
L 148.486804 105.585056 
L 148.8776 105.914231 
L 149.463793 105.663019 
L 150.245384 105.645694 
L 152.394758 105.922894 
L 153.176349 105.896906 
L 153.95794 106.156781 
L 154.544133 106.208756 
L 154.934928 106.044169 
L 155.521121 106.096144 
L 156.302712 106.018181 
L 157.084303 106.312706 
L 158.061292 106.260731 
L 158.452087 105.966206 
L 159.233678 105.853594 
L 160.015269 105.914231 
L 160.406064 106.217419 
L 161.57845 106.200094 
L 162.360041 106.122131 
L 162.946234 106.208756 
L 164.314018 106.156781 
L 164.900211 106.485956 
L 165.291006 106.416656 
L 165.8772 106.217419 
L 166.854188 106.208756 
L 167.635779 106.104806 
L 168.41737 106.096144 
L 169.003563 106.364681 
L 169.980551 106.338694 
L 170.566744 106.122131 
L 171.348335 106.096144 
L 171.934528 106.052831 
L 172.520721 106.399331 
L 173.302312 106.113469 
L 174.279301 106.208756 
L 174.670096 106.451306 
L 175.256289 106.433981 
L 175.842482 106.520606 
L 176.624073 106.191431 
L 177.405664 106.321369 
L 177.796459 106.070156 
L 178.773448 106.373344 
L 179.164243 106.399331 
L 179.945834 106.520606 
L 180.922822 106.407994 
L 181.509015 106.511944 
L 182.095209 106.156781 
L 182.486004 106.304044 
L 182.876799 106.555256 
L 183.072197 106.546594 
L 183.65839 106.278056 
L 184.830776 106.459969 
L 185.221572 106.685194 
L 185.612367 106.520606 
L 186.19856 105.775631 
L 186.589356 104.909381 
L 188.152537 99.391369 
L 189.129526 97.598231 
L 189.324923 97.650206 
L 190.106514 97.295044 
L 190.692707 97.355681 
L 191.083503 97.615556 
L 192.255889 99.400031 
L 192.646684 99.486656 
L 193.428275 99.798506 
L 194.014468 99.755194 
L 195.382252 98.273906 
L 195.773047 98.247919 
L 196.163843 98.031356 
L 196.750036 97.598231 
L 197.336229 97.520269 
L 197.531627 97.450969 
L 198.508615 97.658869 
L 199.094808 97.684856 
L 199.876399 97.892756 
L 201.048785 98.091994 
L 201.830376 98.152631 
L 202.611967 98.135306 
L 203.002762 97.944731 
L 203.588955 98.135306 
L 204.370546 98.031356 
L 205.152137 97.962056 
L 205.73833 98.048681 
L 206.129126 97.944731 
L 206.715319 98.334544 
L 207.106114 98.299894 
L 208.083102 98.351869 
L 208.473898 98.074669 
L 208.864693 97.667531 
L 209.060091 97.754156 
L 209.646284 98.429831 
L 210.232477 98.083331 
L 210.81867 98.343206 
L 211.209466 98.204606 
L 211.795659 97.979381 
L 212.381852 98.135306 
L 213.163443 98.282569 
L 213.749636 98.074669 
L 214.140431 98.152631 
L 214.531227 98.299894 
L 215.312817 98.187281 
L 216.094408 98.204606 
L 216.680601 98.048681 
L 217.266794 98.204606 
L 218.634578 98.126644 
L 219.416169 98.152631 
L 220.002362 98.040019 
L 221.956339 98.542444 
L 222.542532 98.100656 
L 222.933328 98.247919 
L 223.910316 97.944731 
L 224.301111 98.256581 
L 224.496509 98.221931 
L 224.887305 97.875431 
L 226.841282 98.135306 
L 228.209065 98.031356 
L 229.967645 98.620406 
L 230.553838 97.944731 
L 231.140031 97.953394 
L 231.726224 98.499131 
L 233.094008 98.377856 
L 234.070996 98.048681 
L 234.852587 98.117981 
L 235.829576 98.014031 
L 236.415769 97.849444 
L 237.19736 97.962056 
L 237.588155 98.014031 
L 237.97895 98.031356 
L 238.369746 97.970719 
L 238.955939 98.187281 
L 239.73753 98.091994 
L 240.128325 98.074669 
L 241.105314 98.204606 
L 242.082302 97.450969 
L 243.254688 96.047644 
L 243.840881 94.869544 
L 244.231677 94.886869 
L 244.622472 94.930181 
L 245.013268 94.904194 
L 245.599461 95.423944 
L 245.990256 95.571206 
L 246.381051 96.203569 
L 246.576449 96.541406 
L 246.771847 96.654019 
L 247.553438 96.524081 
L 248.139631 96.524081 
L 248.921222 96.324844 
L 250.093608 96.368156 
L 250.679801 95.883056 
L 251.461392 95.969681 
L 252.242982 95.571206 
L 253.219971 95.640506 
L 253.806164 95.519231 
L 254.783153 95.588531 
L 256.346334 95.753119 
L 256.932527 96.021656 
L 257.909516 95.900381 
L 258.300311 95.753119 
L 258.691106 95.935031 
L 259.472697 95.571206 
L 260.254288 95.536556 
L 260.645083 95.562544 
L 261.035879 95.571206 
L 261.426674 95.683819 
L 262.012867 95.536556 
L 262.59906 95.657831 
L 262.989856 95.588531 
L 263.576049 95.605856 
L 265.334628 95.562544 
L 265.920821 95.813756 
L 267.679401 95.571206 
L 268.070196 95.363306 
L 268.460991 95.649169 
L 268.851787 95.657831 
L 269.242582 95.805094 
L 269.828775 95.779106 
L 270.414968 95.831081 
L 271.001162 95.822419 
L 271.782752 95.640506 
L 272.564343 95.640506 
L 272.955139 95.935031 
L 273.150536 95.900381 
L 273.541332 95.527894 
L 274.127525 95.588531 
L 274.713718 95.718469 
L 276.276899 95.640506 
L 277.05849 95.796431 
L 278.230876 95.649169 
L 278.817069 95.649169 
L 279.794058 95.579869 
L 280.380251 95.718469 
L 281.35724 95.588531 
L 281.943433 95.242031 
L 282.334228 95.406619 
L 282.529626 95.519231 
L 283.311217 95.475919 
L 284.092807 95.675156 
L 284.483603 95.787769 
L 284.874398 95.865731 
L 286.828375 95.562544 
L 287.219171 95.579869 
L 288.391557 95.614519 
L 288.782352 95.770444 
L 289.173148 95.813756 
L 289.563943 96.090956 
L 290.540931 95.987006 
L 290.931727 96.038981 
L 291.51792 96.246881 
L 292.104113 95.770444 
L 293.276499 96.056306 
L 294.05809 96.082294 
L 294.448885 96.298856 
L 295.816669 96.099619 
L 296.989055 96.021656 
L 297.575249 96.420131 
L 298.552237 96.333506 
L 299.13843 95.917706 
L 299.920021 96.108281 
L 303.827975 96.368156 
L 305.000361 96.186244 
L 305.586554 95.909044 
L 306.172747 96.524081 
L 306.954338 96.229556 
L 309.103713 96.584719 
L 309.689906 96.212231 
L 310.471497 96.316181 
L 312.425474 96.662681 
L 312.620871 96.654019 
L 313.59786 96.090956 
L 313.988655 96.047644 
L 314.770246 96.194906 
L 315.551837 96.506756 
L 316.528825 96.264206 
L 317.701212 96.532744 
L 318.287405 96.316181 
L 318.873598 96.454781 
L 319.459791 96.246881 
L 320.241382 95.874394 
L 321.022972 96.134269 
L 321.21837 96.212231 
L 321.609166 96.047644 
L 321.804563 95.935031 
L 322.976949 96.134269 
L 323.563143 95.917706 
L 324.735529 96.021656 
L 324.930926 96.281531 
L 325.126324 96.307519 
L 325.517119 95.813756 
L 326.29871 95.848406 
L 328.05729 96.229556 
L 328.643483 95.519231 
L 329.034278 95.605856 
L 329.620471 96.012994 
L 330.792857 96.021656 
L 331.574448 95.787769 
L 332.160641 95.718469 
L 332.942232 96.056306 
L 333.528425 95.987006 
L 333.919221 95.848406 
L 335.482402 96.073631 
L 336.459391 96.255544 
L 337.045584 96.272869 
L 337.631777 96.030319 
L 338.21797 96.212231 
L 338.608765 96.238219 
L 339.390356 96.082294 
L 339.976549 96.411469 
L 341.148935 96.168919 
L 341.539731 96.108281 
L 342.712117 96.160256 
L 343.102912 96.038981 
L 343.29831 96.125606 
L 343.689105 96.480769 
L 343.884503 96.489431 
L 344.275299 96.238219 
L 345.056889 96.368156 
L 345.447685 96.212231 
L 346.033878 96.420131 
L 347.401662 96.350831 
L 348.183253 96.558731 
L 348.769446 96.498094 
L 349.160241 96.437456 
L 349.746434 96.697331 
L 350.332627 96.654019 
L 351.114218 96.749306 
L 352.091207 96.385481 
L 353.849786 96.766631 
L 354.826774 96.783956 
L 355.21757 96.775294 
L 355.803763 96.991856 
L 357.171547 96.731981 
L 357.953138 96.835931 
L 358.343933 96.818606 
L 359.516319 97.295044 
L 360.29791 97.095806 
L 360.884103 97.165106 
L 361.665694 96.887906 
L 362.056489 97.113131 
L 362.251887 97.269056 
L 363.424273 97.407656 
L 364.010466 97.442306 
L 364.596659 97.156444 
L 365.573648 97.130456 
L 365.769045 97.069819 
L 366.355239 97.606894 
L 367.723022 97.459631 
L 368.895409 97.606894 
L 369.286204 97.433644 
L 369.872397 97.702181 
L 370.653988 97.442306 
L 371.044783 97.225744 
L 371.630976 97.390331 
L 372.021772 97.468294 
L 372.607965 97.840781 
L 373.389556 97.269056 
L 373.780351 97.702181 
L 373.975749 97.736831 
L 374.561942 97.338356 
L 375.148135 97.113131 
L 375.343533 97.165106 
L 375.734328 97.459631 
L 376.320521 97.762819 
L 376.515919 97.676194 
L 376.906714 97.286381 
L 377.492907 97.572244 
L 378.274498 97.554919 
L 378.860691 97.875431 
L 380.033077 97.806131 
L 380.423873 97.884094 
L 381.010066 97.554919 
L 381.596259 97.840781 
L 382.37785 97.736831 
L 383.159441 97.442306 
L 383.941031 97.910081 
L 384.722622 97.892756 
L 385.504213 97.632881 
L 385.895008 97.528931 
L 386.676599 97.702181 
L 387.067395 97.476956 
L 387.653588 97.719506 
L 388.044383 97.944731 
L 388.435179 97.754156 
L 388.630576 97.615556 
L 389.412167 97.875431 
L 390.389156 98.152631 
L 390.584553 98.187281 
L 391.170746 97.936069 
L 391.756939 98.169956 
L 392.147735 98.273906 
L 392.733928 98.083331 
L 393.320121 97.823456 
L 395.274098 97.979381 
L 395.860291 97.832119 
L 397.228075 98.178619 
L 397.814268 98.100656 
L 398.205063 98.204606 
L 398.791257 97.667531 
L 399.37745 97.823456 
L 399.768245 98.135306 
L 400.354438 98.135306 
L 401.526824 98.169956 
L 403.090006 98.048681 
L 403.480801 98.040019 
L 404.848585 97.658869 
L 405.239381 97.979381 
L 405.630176 97.797469 
L 405.825574 97.658869 
L 406.802562 97.771481 
L 407.193358 97.944731 
L 408.365744 97.840781 
L 408.756539 98.091994 
L 412.273698 97.684856 
L 412.859891 97.944731 
L 413.250686 98.048681 
L 415.986254 97.606894 
L 416.572447 97.910081 
L 417.15864 97.641544 
L 418.331026 97.918744 
L 418.91722 97.554919 
L 419.112617 97.580906 
L 419.69881 97.936069 
L 422.23898 97.806131 
L 422.629776 97.546256 
L 423.020571 97.823456 
L 423.99756 97.797469 
L 424.583753 97.381669 
L 425.169946 97.624219 
L 426.146934 97.424981 
L 427.710116 97.745494 
L 428.296309 97.632881 
L 428.491707 97.650206 
L 429.0779 97.355681 
L 429.468695 97.485619 
L 429.859491 97.390331 
L 430.641081 97.754156 
L 431.61807 97.702181 
L 432.595058 97.719506 
L 433.376649 97.468294 
L 434.15824 97.528931 
L 434.939831 97.407656 
L 435.526024 97.468294 
L 436.503012 97.459631 
L 437.284603 97.702181 
L 437.480001 97.702181 
L 438.261592 98.135306 
L 438.847785 97.667531 
L 439.433978 98.048681 
L 439.824773 98.014031 
L 440.410966 97.615556 
L 441.192557 97.684856 
L 441.583353 97.615556 
L 442.560341 97.684856 
L 443.732727 97.693519 
L 443.928125 97.546256 
L 443.928125 97.546256 
" style="fill:none;stroke:#000000;stroke-linecap:square;"/>
   </g>
   <g id="patch_3">
    <path d="M 53.328125 121.879219 
L 53.328125 10.999219 
" style="fill:none;stroke:#000000;stroke-linecap:square;stroke-linejoin:miter;stroke-width:0.8;"/>
   </g>
   <g id="patch_4">
    <path d="M 443.928125 121.879219 
L 443.928125 10.999219 
" style="fill:none;stroke:#000000;stroke-linecap:square;stroke-linejoin:miter;stroke-width:0.8;"/>
   </g>
   <g id="patch_5">
    <path d="M 53.328125 121.879219 
L 443.928125 121.879219 
" style="fill:none;stroke:#000000;stroke-linecap:square;stroke-linejoin:miter;stroke-width:0.8;"/>
   </g>
   <g id="patch_6">
    <path d="M 53.328125 10.999219 
L 443.928125 10.999219 
" style="fill:none;stroke:#000000;stroke-linecap:square;stroke-linejoin:miter;stroke-width:0.8;"/>
   </g>
  </g>
  <g id="axes_2">
   <g id="matplotlib.axis_3">
    <g id="ytick_4">
     <g id="line2d_15">
      <defs>
       <path d="M 0 0 
L 3.5 0 
" id="mfe95e05be3" style="stroke:#000000;stroke-width:0.8;"/>
      </defs>
      <g>
       <use style="stroke:#000000;stroke-width:0.8;" x="443.928125" xlink:href="#mfe95e05be3" y="94.20082"/>
      </g>
     </g>
     <g id="text_15">
      <!-- 500 -->
      <g style="fill:#536267;" transform="translate(450.928125 98.000038)scale(0.1 -0.1)">
       <use xlink:href="#DejaVuSans-35"/>
       <use x="63.623047" xlink:href="#DejaVuSans-30"/>
       <use x="127.246094" xlink:href="#DejaVuSans-30"/>
      </g>
     </g>
    </g>
    <g id="ytick_5">
     <g id="line2d_16">
      <g>
       <use style="stroke:#000000;stroke-width:0.8;" x="443.928125" xlink:href="#mfe95e05be3" y="66.466953"/>
      </g>
     </g>
     <g id="text_16">
      <!-- 1000 -->
      <g style="fill:#536267;" transform="translate(450.928125 70.266171)scale(0.1 -0.1)">
       <use xlink:href="#DejaVuSans-31"/>
       <use x="63.623047" xlink:href="#DejaVuSans-30"/>
       <use x="127.246094" xlink:href="#DejaVuSans-30"/>
       <use x="190.869141" xlink:href="#DejaVuSans-30"/>
      </g>
     </g>
    </g>
    <g id="ytick_6">
     <g id="line2d_17">
      <g>
       <use style="stroke:#000000;stroke-width:0.8;" x="443.928125" xlink:href="#mfe95e05be3" y="38.733086"/>
      </g>
     </g>
     <g id="text_17">
      <!-- 1500 -->
      <g style="fill:#536267;" transform="translate(450.928125 42.532304)scale(0.1 -0.1)">
       <use xlink:href="#DejaVuSans-31"/>
       <use x="63.623047" xlink:href="#DejaVuSans-35"/>
       <use x="127.246094" xlink:href="#DejaVuSans-30"/>
       <use x="190.869141" xlink:href="#DejaVuSans-30"/>
      </g>
     </g>
    </g>
    <g id="ytick_7">
     <g id="line2d_18">
      <g>
       <use style="stroke:#000000;stroke-width:0.8;" x="443.928125" xlink:href="#mfe95e05be3" y="10.999219"/>
      </g>
     </g>
     <g id="text_18">
      <!-- 2000 -->
      <g style="fill:#536267;" transform="translate(450.928125 14.798438)scale(0.1 -0.1)">
       <use xlink:href="#DejaVuSans-32"/>
       <use x="63.623047" xlink:href="#DejaVuSans-30"/>
       <use x="127.246094" xlink:href="#DejaVuSans-30"/>
       <use x="190.869141" xlink:href="#DejaVuSans-30"/>
      </g>
     </g>
    </g>
    <g id="text_19">
     <!-- velocity (deg/sec) -->
     <g style="fill:#536267;" transform="translate(487.976562 111.011875)rotate(-90)scale(0.1 -0.1)">
      <defs>
       <path d="M 191 3500 
L 800 3500 
L 1894 563 
L 2988 3500 
L 3597 3500 
L 2284 0 
L 1503 0 
L 191 3500 
z
" id="DejaVuSans-76" transform="scale(0.015625)"/>
       <path d="M 603 4863 
L 1178 4863 
L 1178 0 
L 603 0 
L 603 4863 
z
" id="DejaVuSans-6c" transform="scale(0.015625)"/>
       <path d="M 2059 -325 
Q 1816 -950 1584 -1140 
Q 1353 -1331 966 -1331 
L 506 -1331 
L 506 -850 
L 844 -850 
Q 1081 -850 1212 -737 
Q 1344 -625 1503 -206 
L 1606 56 
L 191 3500 
L 800 3500 
L 1894 763 
L 2988 3500 
L 3597 3500 
L 2059 -325 
z
" id="DejaVuSans-79" transform="scale(0.015625)"/>
       <path d="M 2906 1791 
Q 2906 2416 2648 2759 
Q 2391 3103 1925 3103 
Q 1463 3103 1205 2759 
Q 947 2416 947 1791 
Q 947 1169 1205 825 
Q 1463 481 1925 481 
Q 2391 481 2648 825 
Q 2906 1169 2906 1791 
z
M 3481 434 
Q 3481 -459 3084 -895 
Q 2688 -1331 1869 -1331 
Q 1566 -1331 1297 -1286 
Q 1028 -1241 775 -1147 
L 775 -588 
Q 1028 -725 1275 -790 
Q 1522 -856 1778 -856 
Q 2344 -856 2625 -561 
Q 2906 -266 2906 331 
L 2906 616 
Q 2728 306 2450 153 
Q 2172 0 1784 0 
Q 1141 0 747 490 
Q 353 981 353 1791 
Q 353 2603 747 3093 
Q 1141 3584 1784 3584 
Q 2172 3584 2450 3431 
Q 2728 3278 2906 2969 
L 2906 3500 
L 3481 3500 
L 3481 434 
z
" id="DejaVuSans-67" transform="scale(0.015625)"/>
       <path d="M 1625 4666 
L 2156 4666 
L 531 -594 
L 0 -594 
L 1625 4666 
z
" id="DejaVuSans-2f" transform="scale(0.015625)"/>
      </defs>
      <use xlink:href="#DejaVuSans-76"/>
      <use x="59.179688" xlink:href="#DejaVuSans-65"/>
      <use x="120.703125" xlink:href="#DejaVuSans-6c"/>
      <use x="148.486328" xlink:href="#DejaVuSans-6f"/>
      <use x="209.667969" xlink:href="#DejaVuSans-63"/>
      <use x="264.648438" xlink:href="#DejaVuSans-69"/>
      <use x="292.431641" xlink:href="#DejaVuSans-74"/>
      <use x="331.640625" xlink:href="#DejaVuSans-79"/>
      <use x="390.820312" xlink:href="#DejaVuSans-20"/>
      <use x="422.607422" xlink:href="#DejaVuSans-28"/>
      <use x="461.621094" xlink:href="#DejaVuSans-64"/>
      <use x="525.097656" xlink:href="#DejaVuSans-65"/>
      <use x="586.621094" xlink:href="#DejaVuSans-67"/>
      <use x="650.097656" xlink:href="#DejaVuSans-2f"/>
      <use x="683.789062" xlink:href="#DejaVuSans-73"/>
      <use x="735.888672" xlink:href="#DejaVuSans-65"/>
      <use x="797.412109" xlink:href="#DejaVuSans-63"/>
      <use x="852.392578" xlink:href="#DejaVuSans-29"/>
     </g>
    </g>
   </g>
   <g id="line2d_19">
    <path clip-path="url(#p62f1880bca)" d="M 53.523523 117.842894 
L 53.71892 120.71475 
L 53.914318 118.08827 
L 54.109716 118.224393 
L 54.305113 121.786747 
L 54.500511 120.153264 
L 54.695909 119.988852 
L 54.891307 119.676494 
L 55.282102 120.867883 
L 55.4775 120.987414 
L 55.672897 119.389446 
L 55.868295 119.623804 
L 56.063693 120.603235 
L 56.25909 120.455296 
L 56.454488 120.611479 
L 56.649886 121.194991 
L 56.845284 119.816521 
L 57.040681 119.816521 
L 57.431477 121.603885 
L 57.626874 119.863539 
L 58.01767 119.676494 
L 58.213067 120.987414 
L 58.408465 120.867883 
L 58.799261 120.455296 
L 58.994658 119.255396 
L 59.190056 120.595041 
L 59.580851 117.289305 
L 59.776249 119.949875 
L 59.971647 119.206825 
L 60.167044 121.786747 
L 60.362442 118.972209 
L 60.55784 119.858262 
L 60.753238 119.526413 
L 60.948635 119.623804 
L 61.339431 121.401285 
L 61.534828 121.097817 
L 61.925624 121.401285 
L 62.316419 120.455296 
L 62.707215 121.934686 
L 62.902612 121.934686 
L 63.09801 121.638808 
L 63.293408 120.12886 
L 63.488805 120.081015 
L 63.684203 120.888599 
L 63.879601 121.047052 
L 64.270396 118.975905 
L 64.465794 119.415375 
L 64.661192 120.41156 
L 65.051987 120.570755 
L 65.247385 121.072061 
L 65.442782 120.71475 
L 65.63818 121.194991 
L 66.028975 120.455296 
L 66.419771 121.324718 
L 66.615169 120.71475 
L 66.810566 120.857674 
L 67.005964 119.960933 
L 67.201362 119.842512 
L 67.396759 120.300646 
L 67.592157 121.307034 
L 67.787555 121.401285 
L 67.982952 121.725469 
L 68.373748 119.54924 
L 68.569146 119.780661 
L 68.764543 119.816521 
L 68.959941 121.194991 
L 69.155339 121.603885 
L 69.350736 120.888599 
L 69.546134 121.034808 
L 69.741532 120.857674 
L 70.132327 119.801079 
L 70.327725 120.867883 
L 70.523122 121.273083 
L 70.913918 121.273083 
L 71.109316 121.516252 
L 71.500111 121.13801 
L 71.695509 120.153264 
L 71.890906 120.12886 
L 72.086304 120.741963 
L 72.281702 119.494813 
L 72.672497 121.194991 
L 72.867895 120.741963 
L 73.063293 121.194991 
L 73.25869 120.741963 
L 73.454088 120.595041 
L 73.649486 121.603885 
L 74.040281 121.180342 
L 74.431076 120.005797 
L 74.626474 120.611479 
L 74.821872 120.477655 
L 75.01727 119.424077 
L 75.212667 119.317377 
L 75.408065 121.786747 
L 75.603463 121.194991 
L 75.79886 121.180342 
L 76.189656 121.786747 
L 76.775849 121.324718 
L 76.971247 120.12886 
L 77.166644 119.623804 
L 77.362042 119.595564 
L 77.55744 121.934686 
L 77.752837 121.638808 
L 77.948235 120.570755 
L 78.143633 121.13801 
L 78.33903 121.047052 
L 78.534428 120.41156 
L 78.925224 121.072061 
L 79.120621 120.999038 
L 79.316019 121.638808 
L 79.511417 121.401285 
L 79.706814 121.401285 
L 79.902212 120.942281 
L 80.09761 121.786747 
L 80.683803 119.544657 
L 80.879201 120.005797 
L 81.074598 121.401285 
L 81.465394 121.047052 
L 81.660791 120.334481 
L 81.856189 120.603235 
L 82.051587 121.34293 
L 82.246984 120.999038 
L 82.63778 121.603885 
L 82.833178 120.390157 
L 83.223973 120.455296 
L 83.419371 120.899113 
L 83.614768 120.300646 
L 84.005564 121.466862 
L 84.200961 120.081015 
L 84.396359 120.147132 
L 84.591757 119.94437 
L 84.982552 120.808016 
L 85.17795 121.401285 
L 85.373348 120.595041 
L 85.568745 120.71475 
L 85.764143 119.062229 
L 85.959541 118.942804 
L 86.350336 120.899113 
L 86.936529 120.857674 
L 87.131927 121.34293 
L 87.327325 121.273083 
L 87.522722 121.516252 
L 87.71812 120.455296 
L 88.108915 121.047052 
L 88.304313 120.570755 
L 88.499711 120.477655 
L 88.695108 120.741963 
L 88.890506 119.676494 
L 89.085904 119.842512 
L 89.281302 120.867883 
L 89.476699 119.267677 
L 89.672097 119.485859 
L 89.867495 121.034808 
L 90.25829 121.307034 
L 90.453688 120.670694 
L 90.844483 121.097817 
L 91.039881 121.638808 
L 91.235279 121.603885 
L 91.430676 120.987414 
L 91.626074 120.999038 
L 91.821472 120.670694 
L 92.016869 121.072061 
L 92.212267 121.194991 
L 92.407665 120.005797 
L 92.603062 120.203104 
L 92.993858 121.034808 
L 93.189256 120.71475 
L 93.384653 120.104781 
L 93.580051 120.447917 
L 93.775449 121.725469 
L 93.970846 119.633294 
L 94.166244 120.334481 
L 94.361642 119.485859 
L 94.557039 119.595564 
L 94.752437 120.595041 
L 94.947835 120.670694 
L 95.33863 121.401285 
L 95.534028 119.858262 
L 95.729426 119.54924 
L 95.924823 120.741963 
L 96.120221 119.816521 
L 96.315619 120.063389 
L 96.511016 121.072061 
L 96.706414 120.888599 
L 96.901812 120.999038 
L 97.488005 119.300706 
L 97.683403 119.214859 
L 98.074198 121.13801 
L 98.269596 121.047052 
L 98.464993 121.466862 
L 98.660391 120.888599 
L 99.051187 121.194991 
L 99.246584 121.603885 
L 99.63738 121.638808 
L 99.832777 121.786747 
L 100.028175 118.680027 
L 100.223573 117.494049 
L 100.614368 111.829245 
L 101.005164 104.955816 
L 101.395959 99.690629 
L 101.591357 97.672225 
L 101.786754 99.161195 
L 102.17755 94.121745 
L 102.372947 93.779192 
L 102.568345 99.121347 
L 102.763743 96.50422 
L 102.959141 102.312252 
L 103.154538 102.743046 
L 103.349936 112.877721 
L 103.936129 120.867883 
L 104.522322 116.15748 
L 104.913117 118.680027 
L 105.108515 118.06275 
L 105.499311 120.570755 
L 105.694708 116.608879 
L 105.890106 116.015274 
L 106.085504 114.366623 
L 106.280901 119.271783 
L 106.476299 116.132909 
L 106.671697 117.289305 
L 106.867094 116.022673 
L 107.062492 120.247921 
L 107.25789 121.603885 
L 107.453288 119.406702 
L 107.648685 119.54924 
L 107.844083 120.611479 
L 108.234878 115.365125 
L 108.430276 115.365125 
L 108.625674 119.12774 
L 108.821071 118.972209 
L 109.016469 118.554675 
L 109.211867 120.011478 
L 109.407265 120.477655 
L 109.602662 120.570755 
L 109.993458 117.634262 
L 110.188855 118.06275 
L 110.775048 121.047052 
L 110.970446 117.675171 
L 111.165844 117.750337 
L 111.361242 117.698356 
L 111.556639 121.13801 
L 111.752037 120.867883 
L 111.947435 121.072061 
L 112.142832 120.147132 
L 112.33823 120.104781 
L 112.533628 119.016872 
L 112.729025 119.801079 
L 112.924423 119.94437 
L 113.315219 121.072061 
L 113.510616 120.41156 
L 113.901412 120.611479 
L 114.096809 119.526413 
L 114.292207 119.526413 
L 114.683002 121.072061 
L 115.269196 119.508305 
L 115.659991 119.563043 
L 115.855389 119.567661 
L 116.050786 119.267677 
L 116.246184 120.71475 
L 116.441582 120.247921 
L 116.636979 120.280677 
L 116.832377 120.808016 
L 117.027775 118.676666 
L 117.223173 119.415375 
L 117.41857 120.987414 
L 117.613968 119.313199 
L 117.809366 121.324718 
L 118.004763 118.236209 
L 118.200161 119.485859 
L 118.395559 119.206825 
L 118.590956 119.419722 
L 118.981752 121.13801 
L 119.17715 118.335173 
L 119.372547 117.910308 
L 119.763343 120.539032 
L 119.95874 118.888434 
L 120.154138 118.888434 
L 120.349536 121.047052 
L 120.544933 120.611479 
L 120.740331 120.570755 
L 120.935729 121.34293 
L 121.131127 121.273083 
L 121.326524 120.611479 
L 121.521922 121.13801 
L 121.912717 121.273083 
L 122.303513 119.842512 
L 122.49891 120.011478 
L 122.694308 119.710674 
L 122.889706 119.863539 
L 123.085103 119.863539 
L 123.280501 119.567661 
L 123.475899 119.563043 
L 124.062092 120.942281 
L 124.25749 120.447917 
L 124.452887 119.623804 
L 124.648285 120.081015 
L 124.843683 119.638054 
L 125.03908 120.987414 
L 125.234478 121.047052 
L 125.429876 121.273083 
L 125.820671 120.808016 
L 126.016069 121.180342 
L 126.211467 120.447917 
L 126.602262 121.194991 
L 126.79766 119.077508 
L 126.993057 119.922497 
L 127.188455 119.863539 
L 127.383853 121.466862 
L 127.774648 121.786747 
L 127.970046 121.603885 
L 128.165444 121.13801 
L 128.556239 121.725469 
L 128.751637 120.888599 
L 128.947034 121.516252 
L 129.142432 120.390157 
L 129.33783 120.209435 
L 129.533228 120.280677 
L 129.728625 121.490869 
L 129.924023 121.401285 
L 130.119421 121.725469 
L 130.314818 121.725469 
L 130.510216 120.942281 
L 130.705614 121.180342 
L 130.901011 121.13801 
L 131.096409 121.324718 
L 131.487205 120.670694 
L 131.682602 119.472489 
L 131.878 120.300646 
L 132.073398 120.153264 
L 132.268795 121.638808 
L 132.464193 121.725469 
L 132.854988 118.987021 
L 133.050386 118.939148 
L 133.245784 120.570755 
L 133.636579 118.561156 
L 133.831977 118.528873 
L 134.027375 119.988852 
L 134.222772 119.816521 
L 134.41817 120.447917 
L 134.613568 120.662066 
L 135.004363 121.638808 
L 135.199761 120.603235 
L 135.395159 118.676666 
L 135.981352 121.324718 
L 136.176749 121.273083 
L 136.567545 121.603885 
L 136.762942 121.34293 
L 136.95834 120.741963 
L 137.153738 120.899113 
L 137.349136 119.255396 
L 137.544533 119.235051 
L 137.739931 120.595041 
L 137.935329 117.937592 
L 138.130726 118.666605 
L 138.326124 120.888599 
L 138.521522 120.209435 
L 138.716919 120.209435 
L 139.107715 121.194991 
L 139.49851 120.942281 
L 139.889306 121.466862 
L 140.084703 120.390157 
L 140.280101 120.611479 
L 140.475499 121.401285 
L 140.670896 120.104781 
L 140.866294 120.300646 
L 141.061692 121.638808 
L 141.257089 121.603885 
L 141.452487 120.751174 
L 141.647885 120.867883 
L 141.843283 121.194991 
L 142.03868 121.072061 
L 142.429476 121.725469 
L 142.624873 120.999038 
L 142.820271 120.999038 
L 143.406464 121.725469 
L 143.601862 121.466862 
L 143.79726 121.401285 
L 143.992657 121.072061 
L 144.188055 121.194991 
L 144.383453 120.539032 
L 144.57885 120.779245 
L 144.774248 121.786747 
L 144.969646 120.280677 
L 145.165043 119.922497 
L 145.360441 120.987414 
L 145.751237 121.603885 
L 145.946634 121.638808 
L 146.142032 121.466862 
L 146.33743 121.725469 
L 146.728225 120.341334 
L 147.11902 121.34293 
L 147.314418 119.879451 
L 147.509816 120.011478 
L 147.705214 121.194991 
L 147.900611 119.695962 
L 148.096009 120.247921 
L 148.291407 118.043017 
L 148.486804 121.516252 
L 148.682202 118.085426 
L 148.8776 120.153264 
L 149.268395 119.710674 
L 149.463793 121.638808 
L 149.659191 121.401285 
L 149.854588 119.494813 
L 150.049986 119.563043 
L 150.245384 121.097817 
L 150.440781 120.477655 
L 150.636179 120.300646 
L 150.831577 120.71475 
L 151.026974 120.570755 
L 151.222372 120.71475 
L 151.613168 121.401285 
L 152.394758 121.401285 
L 152.590156 120.999038 
L 152.785554 121.034808 
L 152.980951 120.455296 
L 153.176349 121.490869 
L 153.371747 120.390157 
L 153.567145 120.307357 
L 153.762542 120.595041 
L 153.95794 121.194991 
L 154.153338 120.477655 
L 154.348735 120.334481 
L 154.544133 121.097817 
L 154.739531 119.988852 
L 154.934928 121.047052 
L 155.325724 120.41156 
L 155.521121 121.072061 
L 155.911917 119.671654 
L 156.107315 120.13493 
L 156.302712 121.603885 
L 156.49811 120.307357 
L 156.693508 120.247921 
L 156.888905 119.7156 
L 157.084303 119.863539 
L 157.279701 121.638808 
L 157.475098 120.13493 
L 157.670496 119.494813 
L 158.061292 120.539032 
L 158.452087 117.995504 
L 158.647485 118.418215 
L 158.842882 121.466862 
L 159.03828 118.676666 
L 159.233678 118.649906 
L 159.429075 121.34293 
L 159.624473 120.987414 
L 159.819871 121.401285 
L 160.210666 119.020624 
L 160.406064 119.380862 
L 160.601462 120.888599 
L 160.796859 120.153264 
L 161.187655 121.786747 
L 161.383052 121.934686 
L 161.773848 120.477655 
L 161.969246 120.539032 
L 162.164643 121.401285 
L 162.750836 120.741963 
L 162.946234 121.934686 
L 163.141632 120.71475 
L 163.532427 120.662066 
L 163.727825 120.153264 
L 163.923223 120.159417 
L 164.11862 120.539032 
L 164.314018 119.419722 
L 164.704813 119.695962 
L 165.095609 121.786747 
L 165.486404 120.153264 
L 165.8772 121.273083 
L 166.072597 121.273083 
L 166.267995 120.741963 
L 166.463393 121.516252 
L 166.65879 121.194991 
L 166.854188 121.097817 
L 167.049586 121.638808 
L 167.244983 121.34293 
L 167.635779 121.273083 
L 167.831177 121.603885 
L 168.612767 119.710674 
L 168.808165 119.563043 
L 169.003563 121.786747 
L 169.19896 121.934686 
L 169.394358 121.273083 
L 169.589756 121.638808 
L 169.785154 121.638808 
L 169.980551 121.194991 
L 170.175949 119.922497 
L 170.371347 120.12886 
L 170.762142 121.273083 
L 171.152937 121.603885 
L 171.348335 120.999038 
L 171.543733 121.194991 
L 171.739131 120.987414 
L 171.934528 121.13801 
L 172.129926 119.255396 
L 172.325324 118.987021 
L 172.520721 120.390157 
L 172.716119 120.390157 
L 172.911517 119.454775 
L 173.106914 121.273083 
L 173.302312 120.531213 
L 173.49771 120.71475 
L 173.693107 121.194991 
L 173.888505 119.816521 
L 174.083903 119.842512 
L 174.279301 118.89923 
L 174.474698 118.796425 
L 174.670096 120.005797 
L 175.060891 120.104781 
L 175.256289 121.34293 
L 175.451687 120.987414 
L 175.647084 120.867883 
L 175.842482 121.273083 
L 176.233278 119.801079 
L 176.428675 119.750392 
L 176.624073 121.072061 
L 176.819471 121.401285 
L 177.014868 120.051729 
L 177.210266 120.153264 
L 177.405664 121.13801 
L 177.601061 119.267677 
L 177.796459 119.389446 
L 177.991857 120.603235 
L 178.187255 119.695962 
L 178.382652 119.695962 
L 178.57805 121.516252 
L 178.773448 121.401285 
L 179.164243 120.334481 
L 179.359641 120.867883 
L 179.555038 120.334481 
L 179.750436 121.324718 
L 179.945834 121.638808 
L 180.336629 121.13801 
L 180.532027 121.725469 
L 180.727425 121.603885 
L 180.922822 121.786747 
L 181.11822 121.401285 
L 181.313618 121.324718 
L 181.509015 121.072061 
L 181.704413 119.7156 
L 181.899811 119.695962 
L 182.095209 120.300646 
L 182.486004 119.735414 
L 182.681402 119.288272 
L 182.876799 120.011478 
L 183.072197 121.786747 
L 183.267595 119.7156 
L 183.462992 119.780661 
L 183.65839 121.516252 
L 184.049186 121.603885 
L 184.244583 121.638808 
L 184.439981 121.273083 
L 184.635379 121.273083 
L 184.830776 120.005797 
L 185.026174 119.816521 
L 185.221572 119.960933 
L 185.416969 120.888599 
L 185.807765 118.335173 
L 186.19856 114.793656 
L 186.980151 107.181517 
L 187.175549 107.2447 
L 187.370946 104.414051 
L 187.566344 107.27005 
L 187.761742 107.376398 
L 188.543333 116.963845 
L 188.73873 112.446957 
L 188.934128 116.264546 
L 189.129526 116.37564 
L 189.324923 119.544657 
L 189.520321 119.300706 
L 189.715719 119.544657 
L 189.911116 119.472489 
L 190.106514 120.595041 
L 190.301912 116.902582 
L 190.692707 117.896735 
L 190.888105 119.563043 
L 191.083503 119.816521 
L 191.2789 116.452949 
L 191.474298 115.861972 
L 191.669696 114.531817 
L 191.865093 115.719484 
L 192.255889 119.874133 
L 192.451287 121.072061 
L 192.646684 120.808016 
L 193.03748 119.842512 
L 193.428275 121.516252 
L 193.623673 120.341334 
L 193.81907 120.595041 
L 194.014468 120.159417 
L 194.209866 118.224393 
L 194.405264 117.621558 
L 194.600661 115.753027 
L 194.796059 118.789458 
L 194.991457 116.824895 
L 195.186854 119.267677 
L 195.382252 120.153264 
L 195.57765 121.603885 
L 195.968445 120.455296 
L 196.163843 118.987021 
L 196.359241 118.561156 
L 196.554638 118.845628 
L 196.750036 120.611479 
L 196.945434 120.751174 
L 197.140831 121.180342 
L 197.336229 120.741963 
L 197.727024 120.741963 
L 198.11782 119.949875 
L 198.508615 121.786747 
L 198.704013 121.401285 
L 198.899411 121.401285 
L 199.094808 120.808016 
L 199.290206 120.595041 
L 199.485604 120.603235 
L 199.681001 121.786747 
L 199.876399 121.180342 
L 200.267195 120.808016 
L 200.65799 121.786747 
L 200.853388 121.34293 
L 201.048785 121.466862 
L 201.244183 121.194991 
L 201.439581 121.786747 
L 201.634978 121.516252 
L 201.830376 121.490869 
L 202.025774 121.934686 
L 202.221172 121.638808 
L 202.807365 119.695962 
L 203.002762 120.662066 
L 203.19816 119.949875 
L 203.393558 119.949875 
L 203.588955 121.401285 
L 203.784353 120.570755 
L 203.979751 120.662066 
L 204.175149 120.603235 
L 204.370546 121.466862 
L 204.565944 121.466862 
L 204.761342 120.987414 
L 204.956739 120.999038 
L 205.152137 121.401285 
L 205.347535 119.750392 
L 205.542932 119.816521 
L 205.73833 121.466862 
L 205.933728 119.351041 
L 206.129126 120.011478 
L 206.519921 119.415375 
L 207.301512 121.725469 
L 207.496909 121.490869 
L 207.692307 120.999038 
L 207.887705 121.401285 
L 208.083102 119.472489 
L 208.473898 119.267677 
L 208.669296 116.996977 
L 208.864693 119.842512 
L 209.060091 120.455296 
L 209.450886 116.311055 
L 209.646284 119.858262 
L 209.841682 120.425998 
L 210.037079 118.666605 
L 210.232477 120.751174 
L 210.427875 119.671654 
L 210.623273 119.671654 
L 210.81867 121.786747 
L 211.014068 121.324718 
L 211.209466 120.104781 
L 211.404863 120.153264 
L 211.795659 120.867883 
L 211.991056 121.516252 
L 212.381852 120.425998 
L 212.57725 121.13801 
L 212.772647 120.011478 
L 212.968045 120.570755 
L 213.163443 120.679382 
L 213.35884 120.13493 
L 213.554238 119.949875 
L 213.749636 121.047052 
L 213.945033 121.034808 
L 214.140431 119.801079 
L 214.335829 119.94437 
L 214.726624 120.999038 
L 214.922022 121.180342 
L 215.11742 120.888599 
L 215.312817 121.194991 
L 215.508215 121.072061 
L 215.703613 121.603885 
L 215.89901 121.725469 
L 216.289806 120.12886 
L 216.485204 120.741963 
L 216.680601 121.786747 
L 216.875999 120.539032 
L 217.071397 120.209435 
L 217.462192 121.466862 
L 217.65759 120.447917 
L 217.852987 121.324718 
L 218.243783 121.516252 
L 218.634578 121.516252 
L 218.829976 121.516252 
L 219.416169 120.999038 
L 219.611567 120.857674 
L 220.002362 121.603885 
L 220.19776 121.047052 
L 220.393158 121.13801 
L 220.588555 120.999038 
L 220.783953 120.71475 
L 220.979351 120.751174 
L 221.370146 121.603885 
L 221.565544 120.477655 
L 221.760941 120.455296 
L 221.956339 120.662066 
L 222.151737 119.255396 
L 222.347135 118.813908 
L 222.542532 120.153264 
L 223.128725 120.857674 
L 223.324123 120.159417 
L 223.519521 120.147132 
L 223.910316 121.638808 
L 224.105714 118.610169 
L 224.496509 120.477655 
L 224.691907 118.554675 
L 225.082702 119.780661 
L 225.2781 119.419722 
L 225.668895 120.470164 
L 226.059691 121.786747 
L 226.255088 121.786747 
L 226.645884 121.34293 
L 226.841282 120.899113 
L 227.036679 121.466862 
L 227.232077 119.94437 
L 227.427475 120.040142 
L 227.622872 120.867883 
L 227.81827 121.13801 
L 228.013668 121.13801 
L 228.404463 120.153264 
L 228.599861 119.346809 
L 228.795259 121.034808 
L 228.990656 120.808016 
L 229.186054 121.034808 
L 229.381452 120.942281 
L 229.576849 120.307357 
L 229.967645 121.466862 
L 230.163042 117.621558 
L 230.553838 118.332134 
L 230.749236 121.034808 
L 230.944633 121.725469 
L 231.140031 118.381068 
L 231.335429 117.104526 
L 231.530826 118.961148 
L 231.726224 117.995504 
L 231.921622 118.381068 
L 232.117019 120.595041 
L 232.312417 120.209435 
L 232.507815 121.194991 
L 232.703213 121.401285 
L 233.289406 120.040142 
L 233.680201 120.300646 
L 233.875599 121.307034 
L 234.070996 121.638808 
L 234.461792 121.273083 
L 234.65719 120.611479 
L 234.852587 120.942281 
L 235.047985 121.934686 
L 235.243383 121.638808 
L 235.43878 121.725469 
L 235.634178 121.638808 
L 235.829576 120.203104 
L 236.024973 120.081015 
L 236.220371 120.280677 
L 236.415769 121.516252 
L 236.611167 121.072061 
L 236.806564 121.180342 
L 237.001962 120.670694 
L 237.19736 121.34293 
L 237.392757 121.13801 
L 237.588155 120.741963 
L 237.783553 121.401285 
L 237.97895 121.603885 
L 238.174348 120.040142 
L 238.369746 120.447917 
L 238.565144 119.922497 
L 238.760541 120.280677 
L 238.955939 121.194991 
L 239.151337 121.047052 
L 239.346734 120.71475 
L 239.542132 121.401285 
L 239.73753 120.455296 
L 240.128325 121.516252 
L 240.323723 120.987414 
L 240.51912 120.999038 
L 240.714518 120.741963 
L 240.909916 120.999038 
L 241.105314 121.603885 
L 241.886904 113.717739 
L 242.082302 112.718426 
L 242.2777 108.116035 
L 242.473097 107.868799 
L 242.668495 105.420416 
L 242.863893 109.698595 
L 243.059291 106.720678 
L 243.450086 106.911765 
L 244.036279 117.872418 
L 244.231677 118.236209 
L 244.427074 120.455296 
L 244.622472 119.671654 
L 244.81787 120.063389 
L 245.013268 113.796692 
L 245.404063 113.276773 
L 245.599461 115.115032 
L 245.794858 114.059101 
L 245.990256 111.865043 
L 246.185654 114.887753 
L 246.381051 114.261795 
L 246.576449 115.898119 
L 246.771847 116.549622 
L 246.967245 118.987021 
L 247.162642 119.218886 
L 247.35804 120.670694 
L 247.748835 118.666605 
L 247.944233 119.255396 
L 248.139631 120.341334 
L 248.335028 119.879451 
L 248.530426 119.879451 
L 248.725824 118.332134 
L 248.921222 120.741963 
L 249.312017 121.13801 
L 249.507415 121.13801 
L 249.89821 118.528873 
L 250.093608 118.827966 
L 250.289005 117.312922 
L 250.484403 119.485859 
L 251.070596 119.089021 
L 251.265994 119.206825 
L 251.461392 121.786747 
L 251.656789 120.104781 
L 251.852187 119.485859 
L 252.43838 121.34293 
L 252.829176 119.313199 
L 253.415369 120.779245 
L 253.610766 120.779245 
L 253.806164 121.273083 
L 254.001562 121.097817 
L 254.196959 121.194991 
L 254.392357 121.934686 
L 254.783153 121.401285 
L 254.97855 121.725469 
L 255.173948 121.516252 
L 255.369346 121.638808 
L 255.955539 120.808016 
L 256.150936 120.741963 
L 256.346334 120.808016 
L 256.541732 119.526413 
L 256.73713 120.425998 
L 256.932527 120.595041 
L 257.127925 120.425998 
L 257.323323 120.603235 
L 257.714118 121.786747 
L 257.909516 119.567661 
L 258.104913 119.526413 
L 258.300311 121.324718 
L 258.495709 119.406702 
L 258.691106 121.072061 
L 259.081902 119.526413 
L 259.2773 120.867883 
L 259.472697 120.670694 
L 259.668095 121.307034 
L 259.863493 121.307034 
L 260.449686 120.477655 
L 260.645083 120.741963 
L 260.840481 120.662066 
L 261.231277 120.153264 
L 262.012867 121.273083 
L 262.208265 120.247921 
L 262.794458 120.751174 
L 263.380651 120.741963 
L 263.771447 121.603885 
L 263.966844 121.034808 
L 264.162242 121.273083 
L 264.35764 120.334481 
L 264.553037 120.455296 
L 264.748435 120.334481 
L 265.139231 119.028145 
L 265.334628 121.097817 
L 265.530026 119.922497 
L 265.920821 120.741963 
L 266.311617 120.999038 
L 266.507014 121.490869 
L 266.702412 120.307357 
L 266.89781 120.300646 
L 267.093208 120.447917 
L 267.288605 121.786747 
L 267.484003 121.638808 
L 267.679401 118.676666 
L 267.874798 118.961148 
L 268.070196 121.273083 
L 268.265594 119.271783 
L 268.460991 119.671654 
L 268.656389 121.401285 
L 268.851787 121.34293 
L 269.047185 119.735414 
L 269.43798 120.063389 
L 269.633378 121.603885 
L 270.024173 120.999038 
L 270.414968 120.153264 
L 270.610366 120.13493 
L 270.805764 121.307034 
L 271.391957 120.531213 
L 271.587355 121.786747 
L 271.782752 121.324718 
L 271.97815 121.934686 
L 272.173548 121.34293 
L 272.368945 121.725469 
L 272.564343 120.888599 
L 272.759741 119.351041 
L 272.955139 118.95747 
L 273.150536 121.324718 
L 273.345934 118.427563 
L 273.541332 118.227344 
L 273.736729 120.159417 
L 273.932127 120.888599 
L 274.127525 119.922497 
L 274.322922 119.922497 
L 274.51832 120.539032 
L 274.713718 121.603885 
L 274.909115 121.603885 
L 275.104513 120.888599 
L 275.690706 121.638808 
L 275.886104 121.603885 
L 276.276899 121.194991 
L 276.472297 120.081015 
L 276.667695 119.816521 
L 276.863092 121.13801 
L 277.05849 119.780661 
L 277.253888 119.313199 
L 277.449286 120.808016 
L 277.644683 120.662066 
L 277.840081 121.466862 
L 278.230876 119.858262 
L 278.426274 120.104781 
L 278.621672 121.324718 
L 278.817069 121.097817 
L 279.012467 120.670694 
L 279.207865 120.751174 
L 279.403263 120.987414 
L 279.59866 120.477655 
L 279.794058 120.670694 
L 279.989456 120.477655 
L 280.184853 120.751174 
L 280.380251 121.786747 
L 280.575649 121.786747 
L 280.771046 121.401285 
L 281.161842 121.638808 
L 281.35724 120.063389 
L 281.552637 119.842512 
L 281.748035 119.028145 
L 281.943433 120.888599 
L 282.13883 120.942281 
L 282.334228 119.750392 
L 282.529626 119.874133 
L 282.725023 121.072061 
L 282.920421 120.447917 
L 283.115819 121.401285 
L 283.506614 120.455296 
L 283.89741 120.570755 
L 284.092807 121.638808 
L 284.288205 121.516252 
L 284.483603 120.280677 
L 284.679 120.603235 
L 284.874398 121.934686 
L 285.069796 120.741963 
L 285.265194 120.662066 
L 285.460591 121.047052 
L 285.655989 121.034808 
L 285.851387 120.455296 
L 286.046784 120.611479 
L 286.242182 119.842512 
L 286.43758 121.34293 
L 286.632977 121.638808 
L 286.828375 120.741963 
L 287.219171 121.401285 
L 287.414568 121.180342 
L 287.609966 121.466862 
L 287.805364 121.180342 
L 288.000761 121.603885 
L 288.196159 121.603885 
L 288.391557 121.180342 
L 288.586954 119.710674 
L 288.782352 121.466862 
L 288.97775 121.490869 
L 289.368545 118.884844 
L 289.563943 119.218886 
L 289.759341 121.638808 
L 289.954738 121.603885 
L 290.150136 120.741963 
L 290.345534 120.71475 
L 290.736329 121.401285 
L 291.127124 120.13493 
L 291.322522 120.13493 
L 291.51792 121.34293 
L 291.713318 119.170956 
L 291.908715 119.255396 
L 292.104113 118.987021 
L 292.299511 120.470164 
L 292.494908 120.603235 
L 292.690306 120.209435 
L 293.081101 121.490869 
L 293.276499 120.455296 
L 293.471897 120.455296 
L 293.667295 121.097817 
L 293.862692 120.104781 
L 294.05809 119.842512 
L 294.253488 119.988852 
L 294.448885 119.092869 
L 295.230476 121.324718 
L 295.816669 121.786747 
L 296.207465 121.603885 
L 296.402862 121.324718 
L 296.793658 121.516252 
L 296.989055 121.034808 
L 297.184453 119.170956 
L 297.379851 119.170956 
L 297.770646 121.934686 
L 297.966044 121.603885 
L 298.161442 121.725469 
L 298.356839 121.047052 
L 298.552237 121.466862 
L 298.747635 119.119953 
L 298.943032 118.734275 
L 299.920021 121.603885 
L 300.115419 120.13493 
L 300.310816 120.280677 
L 300.701612 120.999038 
L 301.092407 121.603885 
L 301.287805 120.942281 
L 301.483203 121.194991 
L 301.6786 120.942281 
L 301.873998 120.425998 
L 302.069396 120.300646 
L 302.264793 120.41156 
L 302.460191 121.194991 
L 302.655589 121.034808 
L 302.850986 121.34293 
L 303.046384 121.194991 
L 303.241782 120.539032 
L 303.632577 121.638808 
L 303.827975 120.867883 
L 304.21877 121.786747 
L 304.414168 121.490869 
L 304.609566 121.725469 
L 304.804963 121.516252 
L 305.000361 119.54924 
L 305.391157 119.863539 
L 305.586554 120.670694 
L 305.781952 118.224393 
L 305.97735 118.192091 
L 306.172747 118.335173 
L 306.368145 120.13493 
L 306.563543 120.104781 
L 306.75894 119.735414 
L 306.954338 120.595041 
L 307.149736 120.867883 
L 307.345134 120.341334 
L 307.540531 121.072061 
L 307.735929 120.570755 
L 307.931327 120.570755 
L 308.126724 121.324718 
L 308.322122 120.531213 
L 308.51752 120.570755 
L 308.712917 120.455296 
L 308.908315 120.081015 
L 309.103713 120.341334 
L 309.29911 119.108314 
L 309.494508 119.119953 
L 309.689906 120.888599 
L 309.885304 121.34293 
L 310.276099 120.203104 
L 310.471497 120.334481 
L 310.862292 121.194991 
L 311.05769 121.324718 
L 311.448485 120.867883 
L 311.839281 118.626668 
L 312.034678 119.206825 
L 312.230076 121.603885 
L 312.425474 119.988852 
L 312.620871 120.153264 
L 312.816269 119.638054 
L 313.011667 119.454775 
L 313.207064 119.454775 
L 313.59786 120.455296 
L 313.793258 120.570755 
L 313.988655 121.516252 
L 314.184053 121.516252 
L 314.379451 121.786747 
L 314.770246 120.531213 
L 314.965644 118.939148 
L 315.161041 118.799913 
L 315.551837 120.153264 
L 315.747235 120.153264 
L 315.942632 119.005642 
L 316.13803 119.206825 
L 316.333428 120.570755 
L 316.528825 120.779245 
L 316.919621 120.603235 
L 317.115018 121.401285 
L 317.310416 120.603235 
L 317.505814 120.662066 
L 317.701212 121.603885 
L 317.896609 120.307357 
L 318.092007 120.040142 
L 318.287405 121.097817 
L 318.482802 120.808016 
L 318.6782 121.034808 
L 318.873598 121.072061 
L 319.068995 120.779245 
L 319.264393 120.147132 
L 319.459791 120.741963 
L 319.655189 119.863539 
L 319.850586 119.567661 
L 320.045984 119.526413 
L 320.241382 121.194991 
L 320.436779 120.300646 
L 320.632177 120.341334 
L 320.827575 121.180342 
L 321.21837 119.7156 
L 321.413768 119.949875 
L 321.609166 119.214859 
L 321.804563 117.766058 
L 321.999961 119.949875 
L 322.195359 119.676494 
L 322.390756 119.7156 
L 322.586154 121.194991 
L 322.781552 119.710674 
L 322.976949 119.544657 
L 323.172347 120.425998 
L 323.367745 119.143377 
L 323.563143 119.595564 
L 323.75854 121.786747 
L 323.953938 121.934686 
L 324.149336 121.638808 
L 324.540131 120.334481 
L 324.735529 118.08827 
L 324.930926 117.207575 
L 325.126324 121.490869 
L 325.321722 117.603834 
L 325.517119 117.726866 
L 325.712517 121.401285 
L 325.907915 121.401285 
L 326.494108 120.455296 
L 327.080301 120.153264 
L 327.275699 121.194991 
L 327.471096 120.611479 
L 327.666494 120.455296 
L 327.861892 120.741963 
L 328.05729 120.741963 
L 328.252687 117.200636 
L 328.448085 118.189168 
L 328.643483 118.224393 
L 328.83888 121.34293 
L 329.034278 121.034808 
L 329.229676 119.089021 
L 329.620471 119.960933 
L 329.815869 121.786747 
L 330.011267 121.638808 
L 330.206664 121.194991 
L 330.402062 121.466862 
L 330.59746 121.466862 
L 331.183653 120.081015 
L 331.37905 121.072061 
L 331.574448 120.247921 
L 331.769846 121.34293 
L 331.965244 120.341334 
L 332.160641 120.899113 
L 332.356039 119.676494 
L 332.746834 119.816521 
L 332.942232 121.466862 
L 333.13763 121.603885 
L 333.333027 121.401285 
L 333.723823 120.341334 
L 333.919221 120.679382 
L 334.114618 121.401285 
L 334.310016 121.307034 
L 334.896209 120.539032 
L 335.091607 120.999038 
L 335.287004 120.455296 
L 335.482402 121.516252 
L 335.873198 120.741963 
L 336.068595 120.751174 
L 336.263993 121.401285 
L 336.459391 121.194991 
L 336.654788 121.466862 
L 336.850186 121.194991 
L 337.045584 121.194991 
L 337.240981 119.300706 
L 337.631777 120.147132 
L 337.827175 121.490869 
L 338.022572 120.362072 
L 338.21797 120.341334 
L 338.413368 120.779245 
L 338.804163 120.12886 
L 338.999561 119.623804 
L 339.194958 121.34293 
L 339.390356 121.307034 
L 339.585754 118.884844 
L 339.781152 118.998179 
L 340.171947 121.307034 
L 340.367345 120.987414 
L 340.75814 121.934686 
L 341.148935 120.153264 
L 341.344333 120.260947 
L 341.539731 121.786747 
L 341.735129 120.741963 
L 342.125924 121.273083 
L 342.321322 121.047052 
L 342.516719 121.324718 
L 342.712117 120.390157 
L 342.907515 120.13493 
L 343.102912 121.516252 
L 343.29831 120.455296 
L 343.493708 118.093964 
L 343.884503 120.595041 
L 344.079901 118.690129 
L 344.275299 118.998179 
L 344.470696 120.867883 
L 344.666094 120.203104 
L 344.861492 120.662066 
L 345.056889 120.595041 
L 345.252287 120.011478 
L 345.447685 120.779245 
L 345.83848 120.063389 
L 346.033878 121.273083 
L 346.229276 121.13801 
L 346.424673 120.531213 
L 346.620071 119.415375 
L 346.815469 119.695962 
L 347.010866 121.324718 
L 347.206264 121.638808 
L 347.401662 120.334481 
L 347.597059 120.051729 
L 347.792457 121.072061 
L 347.987855 120.209435 
L 348.183253 120.611479 
L 348.37865 121.603885 
L 349.160241 120.942281 
L 349.355639 120.209435 
L 349.551036 120.063389 
L 349.746434 120.260947 
L 349.941832 120.867883 
L 350.13723 120.779245 
L 350.332627 121.034808 
L 350.528025 120.334481 
L 350.91882 121.34293 
L 351.114218 121.047052 
L 351.309616 120.447917 
L 351.505013 120.390157 
L 351.700411 119.842512 
L 351.895809 121.273083 
L 352.091207 121.34293 
L 352.286604 121.034808 
L 352.482002 120.455296 
L 352.6774 120.531213 
L 353.068195 121.466862 
L 353.263593 120.751174 
L 353.849786 121.725469 
L 354.045184 121.603885 
L 354.240581 121.034808 
L 354.435979 121.180342 
L 354.826774 120.987414 
L 355.022172 120.477655 
L 355.21757 120.808016 
L 355.412967 120.203104 
L 355.608365 120.203104 
L 355.803763 121.466862 
L 355.999161 120.999038 
L 356.194558 120.899113 
L 356.585354 121.638808 
L 356.780751 121.324718 
L 356.976149 121.34293 
L 357.171547 121.638808 
L 357.366944 121.194991 
L 357.75774 120.867883 
L 357.953138 121.516252 
L 358.148535 121.401285 
L 358.343933 121.466862 
L 358.734728 119.960933 
L 358.930126 119.988852 
L 359.125524 119.526413 
L 359.516319 119.842512 
L 359.711717 120.603235 
L 360.102512 120.603235 
L 360.29791 121.324718 
L 360.493308 120.857674 
L 360.688705 120.808016 
L 360.884103 121.047052 
L 361.274898 120.539032 
L 361.470296 120.867883 
L 361.665694 120.341334 
L 361.861091 120.741963 
L 362.056489 119.271783 
L 362.251887 119.267677 
L 362.447285 120.595041 
L 362.642682 119.54924 
L 362.83808 119.415375 
L 363.033478 121.401285 
L 363.228875 121.072061 
L 363.424273 121.194991 
L 363.619671 120.867883 
L 363.815068 121.603885 
L 364.010466 120.888599 
L 364.205864 119.7156 
L 364.401262 119.735414 
L 364.792057 121.324718 
L 364.987455 121.194991 
L 365.182852 121.307034 
L 365.37825 120.741963 
L 365.573648 120.570755 
L 365.769045 120.662066 
L 365.964443 118.519247 
L 366.159841 118.626668 
L 366.355239 119.267677 
L 366.550636 119.206825 
L 366.941432 120.13493 
L 367.136829 121.603885 
L 367.332227 121.466862 
L 367.527625 121.603885 
L 367.723022 121.934686 
L 368.113818 120.280677 
L 368.504613 120.867883 
L 368.700011 120.063389 
L 368.895409 119.750392 
L 369.286204 120.570755 
L 369.481602 119.960933 
L 369.676999 120.005797 
L 369.872397 120.888599 
L 370.067795 120.455296 
L 370.263193 120.679382 
L 370.45859 121.638808 
L 370.653988 119.206825 
L 370.849386 119.170956 
L 371.044783 120.662066 
L 371.240181 120.203104 
L 371.435579 120.341334 
L 371.630976 120.999038 
L 371.826374 119.695962 
L 372.021772 119.485859 
L 372.21717 119.960933 
L 372.412567 118.939148 
L 372.607965 119.415375 
L 372.803363 119.419722 
L 372.99876 118.224393 
L 373.194158 118.381068 
L 373.389556 120.899113 
L 373.584953 118.051462 
L 373.780351 117.894026 
L 373.975749 121.194991 
L 374.171147 118.972209 
L 374.366544 118.471521 
L 374.561942 120.611479 
L 374.75734 120.104781 
L 375.148135 120.888599 
L 375.343533 120.679382 
L 375.53893 118.703648 
L 375.734328 120.011478 
L 375.929726 120.455296 
L 376.125123 120.477655 
L 376.320521 119.54924 
L 376.515919 120.341334 
L 376.711317 118.085426 
L 377.102112 120.005797 
L 377.29751 120.005797 
L 377.688305 121.466862 
L 377.883703 121.725469 
L 378.274498 121.725469 
L 378.469896 120.005797 
L 378.665294 119.681345 
L 379.056089 120.670694 
L 379.251487 121.34293 
L 379.83768 121.603885 
L 380.228475 121.273083 
L 380.423873 120.779245 
L 380.619271 119.346809 
L 380.814668 119.218886 
L 381.010066 120.857674 
L 381.205464 120.005797 
L 381.400861 119.863539 
L 381.791657 121.638808 
L 381.987054 121.786747 
L 382.182452 121.516252 
L 382.37785 120.447917 
L 382.573248 120.280677 
L 383.159441 121.034808 
L 383.550236 118.972209 
L 383.745634 118.884844 
L 383.941031 121.490869 
L 384.136429 121.786747 
L 384.331827 121.638808 
L 384.527225 121.324718 
L 384.722622 121.466862 
L 384.91802 120.081015 
L 385.113418 120.005797 
L 385.308815 120.12886 
L 385.504213 121.273083 
L 385.699611 120.999038 
L 385.895008 121.034808 
L 386.090406 120.611479 
L 386.285804 119.780661 
L 386.676599 119.494813 
L 386.871997 119.695962 
L 387.262792 120.888599 
L 387.45819 119.949875 
L 387.653588 119.94437 
L 387.848985 119.389446 
L 388.044383 119.949875 
L 388.239781 120.867883 
L 388.435179 119.494813 
L 388.630576 119.494813 
L 388.825974 120.307357 
L 389.021372 120.203104 
L 389.216769 119.143377 
L 389.607565 120.41156 
L 389.99836 119.735414 
L 390.193758 120.888599 
L 390.389156 120.531213 
L 390.584553 120.611479 
L 390.779951 119.735414 
L 391.170746 120.595041 
L 391.366144 120.779245 
L 391.561542 119.143377 
L 391.756939 118.975905 
L 391.952337 119.801079 
L 392.147735 121.638808 
L 392.343133 120.987414 
L 392.53853 121.180342 
L 392.733928 120.159417 
L 392.929326 119.858262 
L 393.124723 119.863539 
L 393.320121 121.516252 
L 393.710916 120.888599 
L 393.906314 121.072061 
L 394.101712 120.670694 
L 394.297109 120.899113 
L 394.492507 121.638808 
L 395.274098 121.401285 
L 395.469496 120.71475 
L 395.664893 120.71475 
L 395.860291 121.786747 
L 396.251086 120.13493 
L 396.83728 121.273083 
L 397.032677 121.401285 
L 397.423473 120.679382 
L 397.61887 120.779245 
L 397.814268 121.516252 
L 398.009666 120.679382 
L 398.205063 120.867883 
L 398.400461 118.532087 
L 398.595859 118.371841 
L 398.791257 119.638054 
L 398.986654 121.638808 
L 399.572847 118.961148 
L 399.768245 119.218886 
L 400.15904 121.603885 
L 400.354438 121.466862 
L 400.549836 121.603885 
L 400.745234 120.741963 
L 401.136029 121.466862 
L 401.722222 120.390157 
L 402.113017 121.13801 
L 402.503813 120.867883 
L 402.699211 121.603885 
L 402.894608 121.638808 
L 403.090006 121.34293 
L 403.285404 121.516252 
L 403.871597 120.455296 
L 404.066994 120.425998 
L 404.262392 120.751174 
L 404.45779 120.280677 
L 404.653188 121.490869 
L 404.848585 121.490869 
L 405.043983 119.119953 
L 405.239381 119.267677 
L 405.434778 120.987414 
L 405.630176 119.313199 
L 405.825574 119.406702 
L 406.020971 121.603885 
L 406.411767 119.842512 
L 406.607165 120.570755 
L 406.802562 119.595564 
L 406.99796 119.54924 
L 407.193358 121.047052 
L 407.388755 120.942281 
L 407.584153 120.670694 
L 407.779551 120.888599 
L 407.974948 120.362072 
L 408.170346 121.180342 
L 408.365744 119.801079 
L 408.561142 119.218886 
L 408.756539 119.508305 
L 408.951937 121.490869 
L 409.147335 121.273083 
L 409.342732 120.867883 
L 409.53813 120.867883 
L 409.928925 121.490869 
L 410.124323 121.072061 
L 410.319721 120.987414 
L 410.515118 121.072061 
L 410.905914 121.466862 
L 411.101312 121.466862 
L 411.492107 121.786747 
L 411.687505 120.341334 
L 411.882902 120.425998 
L 412.0783 121.273083 
L 412.273698 120.539032 
L 412.469095 120.857674 
L 412.664493 120.104781 
L 412.859891 120.280677 
L 413.055289 120.063389 
L 413.250686 121.490869 
L 413.446084 120.741963 
L 413.641482 120.779245 
L 413.836879 120.341334 
L 414.032277 121.034808 
L 414.61847 121.725469 
L 414.813868 120.570755 
L 415.009266 120.751174 
L 415.204663 120.13493 
L 415.400061 120.539032 
L 415.595459 120.477655 
L 415.790856 119.54924 
L 415.986254 120.300646 
L 416.181652 120.011478 
L 416.572447 120.280677 
L 416.767845 120.159417 
L 417.15864 120.603235 
L 417.354038 121.194991 
L 417.549436 120.425998 
L 417.744833 120.425998 
L 418.135629 121.786747 
L 418.331026 121.786747 
L 418.526424 119.710674 
L 418.721822 119.695962 
L 418.91722 120.159417 
L 419.112617 121.401285 
L 419.308015 119.54924 
L 419.503413 120.159417 
L 419.69881 120.011478 
L 419.894208 121.034808 
L 420.089606 120.779245 
L 420.285003 120.867883 
L 420.675799 121.725469 
L 420.871197 121.603885 
L 421.066594 121.786747 
L 421.45739 121.725469 
L 421.652787 121.466862 
L 421.848185 120.741963 
L 422.043583 120.531213 
L 422.434378 118.503265 
L 422.629776 119.879451 
L 422.825174 118.690129 
L 423.020571 118.975905 
L 423.215969 121.34293 
L 423.411367 121.34293 
L 423.606764 121.638808 
L 423.99756 121.603885 
L 424.192957 119.816521 
L 424.388355 119.415375 
L 424.583753 119.415375 
L 424.974548 120.595041 
L 425.169946 120.455296 
L 425.365344 120.470164 
L 425.560741 121.194991 
L 425.756139 120.662066 
L 425.951537 120.779245 
L 426.146934 121.490869 
L 426.733128 120.390157 
L 426.928525 120.455296 
L 427.123923 120.942281 
L 427.319321 120.390157 
L 427.514718 120.455296 
L 427.710116 121.466862 
L 427.905514 120.570755 
L 428.100911 120.741963 
L 428.491707 121.603885 
L 428.687104 119.842512 
L 428.882502 119.858262 
L 429.0779 121.034808 
L 429.468695 120.470164 
L 429.859491 121.34293 
L 430.054888 120.011478 
L 430.445684 119.351041 
L 430.641081 121.401285 
L 430.836479 121.466862 
L 431.031877 120.741963 
L 431.227275 121.180342 
L 431.61807 119.7156 
L 431.813468 120.999038 
L 432.008865 120.741963 
L 432.204263 120.081015 
L 432.399661 119.874133 
L 432.595058 120.670694 
L 432.790456 119.842512 
L 432.985854 120.147132 
L 433.181252 119.879451 
L 433.572047 121.401285 
L 433.962842 121.324718 
L 434.15824 121.34293 
L 434.353638 121.194991 
L 434.549035 120.751174 
L 434.744433 121.466862 
L 434.939831 121.603885 
L 435.135229 121.072061 
L 435.330626 121.072061 
L 435.526024 121.307034 
L 435.916819 121.034808 
L 436.112217 120.247921 
L 436.307615 120.447917 
L 436.503012 120.447917 
L 436.69841 120.280677 
L 437.089206 120.455296 
L 437.284603 121.516252 
L 437.480001 121.638808 
L 437.675399 118.884844 
L 437.870796 118.975905 
L 438.066194 118.561156 
L 438.261592 120.808016 
L 438.456989 118.676666 
L 438.652387 118.051462 
L 438.847785 118.051462 
L 439.043183 119.402377 
L 439.23858 119.494813 
L 439.629376 120.999038 
L 439.824773 120.425998 
L 440.020171 119.346809 
L 440.410966 119.54924 
L 440.606364 120.539032 
L 440.801762 120.888599 
L 440.99716 121.466862 
L 441.192557 121.13801 
L 441.387955 120.081015 
L 441.583353 120.13493 
L 441.77875 120.477655 
L 441.974148 121.13801 
L 442.169546 119.7156 
L 442.364943 120.751174 
L 442.755739 121.34293 
L 443.146534 120.662066 
L 443.341932 120.477655 
L 443.732727 120.595041 
L 443.928125 119.267677 
L 443.928125 119.267677 
" style="fill:none;stroke:#536267;stroke-linecap:square;"/>
   </g>
   <g id="patch_7">
    <path d="M 53.328125 121.879219 
L 53.328125 10.999219 
" style="fill:none;stroke:#000000;stroke-linecap:square;stroke-linejoin:miter;stroke-width:0.8;"/>
   </g>
   <g id="patch_8">
    <path d="M 443.928125 121.879219 
L 443.928125 10.999219 
" style="fill:none;stroke:#000000;stroke-linecap:square;stroke-linejoin:miter;stroke-width:0.8;"/>
   </g>
   <g id="patch_9">
    <path d="M 53.328125 121.879219 
L 443.928125 121.879219 
" style="fill:none;stroke:#000000;stroke-linecap:square;stroke-linejoin:miter;stroke-width:0.8;"/>
   </g>
   <g id="patch_10">
    <path d="M 53.328125 10.999219 
L 443.928125 10.999219 
" style="fill:none;stroke:#000000;stroke-linecap:square;stroke-linejoin:miter;stroke-width:0.8;"/>
   </g>
  </g>
 </g>
 <defs>
  <clipPath id="p62f1880bca">
   <rect height="110.88" width="390.6" x="53.328125" y="10.999219"/>
  </clipPath>
 </defs>
</svg>
